%
M48
M72
T01C0.00800
T02C0.01181
T03C0.02000
T04C0.02362
T05C0.10000
%
T01
X27200Y12300
X94000Y12500
X109000Y46000
X109000Y60000
X109000Y102000
X109000Y116000
X93800Y150600
X75700Y131800
X73500Y129000
X69700Y131400
X78300Y129000
X86000Y93000
X85000Y70000
X74000Y33100
X70500Y30700
X77300Y30100
X79400Y32200
X50500Y30500
X47700Y32200
X44200Y29800
X42000Y32000
X11000Y46000
X11000Y60000
X11000Y103000
X11000Y116000
X26600Y150400
X42900Y132700
X40500Y130600
X47100Y129000
X49700Y131500
X34000Y92000
X34000Y71000
T02
X21000Y25150
X18050Y28200
X21750Y30000
X18750Y33000
X21750Y36000
X16750Y40000
X13750Y38000
X13750Y44000
X16750Y46000
X13750Y51000
X16750Y53000
X13750Y57000
X16750Y59000
X13750Y64000
X16750Y66000
X13750Y70000
X16750Y72000
X22750Y76000
X25750Y73000
X22750Y70000
X25750Y79000
X25750Y83000
X22750Y86000
X16750Y90000
X13750Y94000
X16750Y96000
X13750Y100000
X16750Y103000
X13750Y107000
X16750Y109000
X13750Y113000
X16750Y116000
X13750Y120000
X16750Y122000
X13750Y126000
X17750Y129000
X17750Y133000
X19900Y136550
X24700Y142150
X26700Y146950
X29800Y143350
X31300Y147350
X36600Y147250
X34200Y143250
X39600Y143250
X42100Y147050
X45800Y149250
X46100Y145150
X24700Y138150
X21750Y132000
X20750Y126000
X22750Y92000
X25750Y89000
X25000Y23550
X24900Y19850
X27100Y16850
X29600Y20250
X31500Y16950
X34700Y19550
X37000Y16950
X40100Y18950
X42500Y15850
X46200Y13750
X45600Y17650
X74400Y13750
X75000Y17750
X78200Y15850
X79500Y18950
X83200Y16650
X84800Y19950
X88300Y16950
X90100Y20550
X93100Y16950
X95000Y19750
X95000Y23750
X98900Y24350
X101850Y28000
X98250Y30000
X101250Y33000
X98250Y36000
X103250Y40000
X106250Y37000
X106250Y43000
X103250Y46000
X106250Y50000
X106250Y56000
X103250Y53000
X103250Y59000
X106250Y63000
X106250Y69000
X103250Y66000
X103250Y72000
X97250Y76000
X94250Y73000
X97250Y70000
X94250Y79000
X94250Y83000
X97250Y86000
X94250Y89000
X97250Y92000
X103250Y90000
X106250Y93000
X106250Y99000
X103250Y96000
X103250Y103000
X106250Y106000
X106250Y112000
X103250Y109000
X103250Y116000
X106250Y119000
X106250Y125000
X101250Y129000
X98250Y126000
X98250Y132000
X99400Y136750
X96300Y141950
X95100Y138550
X90600Y142950
X89000Y147250
X83400Y147250
X86000Y143250
X80200Y143450
X77900Y147550
X75000Y145350
X74100Y149550
X94100Y146350
X102850Y133400
X103250Y122000
T03
X108000Y81000
X12000Y81000
T04
X21000Y21100
X99400Y20200
X105500Y33000
X109000Y40000
X109000Y53000
X109000Y66000
X101000Y77000
X101000Y84000
X109000Y96000
X109000Y109000
X109000Y122000
X105500Y129000
X100400Y140400
X86100Y150800
X80100Y150800
X40200Y150500
X33900Y150600
X20800Y140800
X13500Y130000
X11000Y123000
X11000Y110000
X11000Y97000
X19000Y85000
X19000Y77000
X11000Y67000
X11000Y54000
X11200Y41100
X14500Y33000
X34000Y12500
X39600Y12500
X80400Y12700
X86100Y12600
T05
X74000Y81000
X46000Y81000
M30
