G75*
%MOIN*%
%OFA0B0*%
%FSLAX25Y25*%
%IPPOS*%
%LPD*%
%AMOC8*
5,1,8,0,0,1.08239X$1,22.5*
%
%ADD10C,0.00000*%
%ADD11C,0.00500*%
D10*
X0007000Y0008000D02*
X0007000Y0155701D01*
X0112921Y0155701D01*
X0112921Y0008000D01*
X0007000Y0008000D01*
X0019819Y0021100D02*
X0019821Y0021169D01*
X0019827Y0021237D01*
X0019837Y0021305D01*
X0019851Y0021372D01*
X0019869Y0021439D01*
X0019890Y0021504D01*
X0019916Y0021568D01*
X0019945Y0021630D01*
X0019977Y0021690D01*
X0020013Y0021749D01*
X0020053Y0021805D01*
X0020095Y0021859D01*
X0020141Y0021910D01*
X0020190Y0021959D01*
X0020241Y0022005D01*
X0020295Y0022047D01*
X0020351Y0022087D01*
X0020409Y0022123D01*
X0020470Y0022155D01*
X0020532Y0022184D01*
X0020596Y0022210D01*
X0020661Y0022231D01*
X0020728Y0022249D01*
X0020795Y0022263D01*
X0020863Y0022273D01*
X0020931Y0022279D01*
X0021000Y0022281D01*
X0021069Y0022279D01*
X0021137Y0022273D01*
X0021205Y0022263D01*
X0021272Y0022249D01*
X0021339Y0022231D01*
X0021404Y0022210D01*
X0021468Y0022184D01*
X0021530Y0022155D01*
X0021590Y0022123D01*
X0021649Y0022087D01*
X0021705Y0022047D01*
X0021759Y0022005D01*
X0021810Y0021959D01*
X0021859Y0021910D01*
X0021905Y0021859D01*
X0021947Y0021805D01*
X0021987Y0021749D01*
X0022023Y0021690D01*
X0022055Y0021630D01*
X0022084Y0021568D01*
X0022110Y0021504D01*
X0022131Y0021439D01*
X0022149Y0021372D01*
X0022163Y0021305D01*
X0022173Y0021237D01*
X0022179Y0021169D01*
X0022181Y0021100D01*
X0022179Y0021031D01*
X0022173Y0020963D01*
X0022163Y0020895D01*
X0022149Y0020828D01*
X0022131Y0020761D01*
X0022110Y0020696D01*
X0022084Y0020632D01*
X0022055Y0020570D01*
X0022023Y0020509D01*
X0021987Y0020451D01*
X0021947Y0020395D01*
X0021905Y0020341D01*
X0021859Y0020290D01*
X0021810Y0020241D01*
X0021759Y0020195D01*
X0021705Y0020153D01*
X0021649Y0020113D01*
X0021591Y0020077D01*
X0021530Y0020045D01*
X0021468Y0020016D01*
X0021404Y0019990D01*
X0021339Y0019969D01*
X0021272Y0019951D01*
X0021205Y0019937D01*
X0021137Y0019927D01*
X0021069Y0019921D01*
X0021000Y0019919D01*
X0020931Y0019921D01*
X0020863Y0019927D01*
X0020795Y0019937D01*
X0020728Y0019951D01*
X0020661Y0019969D01*
X0020596Y0019990D01*
X0020532Y0020016D01*
X0020470Y0020045D01*
X0020409Y0020077D01*
X0020351Y0020113D01*
X0020295Y0020153D01*
X0020241Y0020195D01*
X0020190Y0020241D01*
X0020141Y0020290D01*
X0020095Y0020341D01*
X0020053Y0020395D01*
X0020013Y0020451D01*
X0019977Y0020509D01*
X0019945Y0020570D01*
X0019916Y0020632D01*
X0019890Y0020696D01*
X0019869Y0020761D01*
X0019851Y0020828D01*
X0019837Y0020895D01*
X0019827Y0020963D01*
X0019821Y0021031D01*
X0019819Y0021100D01*
X0013319Y0033000D02*
X0013321Y0033069D01*
X0013327Y0033137D01*
X0013337Y0033205D01*
X0013351Y0033272D01*
X0013369Y0033339D01*
X0013390Y0033404D01*
X0013416Y0033468D01*
X0013445Y0033530D01*
X0013477Y0033590D01*
X0013513Y0033649D01*
X0013553Y0033705D01*
X0013595Y0033759D01*
X0013641Y0033810D01*
X0013690Y0033859D01*
X0013741Y0033905D01*
X0013795Y0033947D01*
X0013851Y0033987D01*
X0013909Y0034023D01*
X0013970Y0034055D01*
X0014032Y0034084D01*
X0014096Y0034110D01*
X0014161Y0034131D01*
X0014228Y0034149D01*
X0014295Y0034163D01*
X0014363Y0034173D01*
X0014431Y0034179D01*
X0014500Y0034181D01*
X0014569Y0034179D01*
X0014637Y0034173D01*
X0014705Y0034163D01*
X0014772Y0034149D01*
X0014839Y0034131D01*
X0014904Y0034110D01*
X0014968Y0034084D01*
X0015030Y0034055D01*
X0015090Y0034023D01*
X0015149Y0033987D01*
X0015205Y0033947D01*
X0015259Y0033905D01*
X0015310Y0033859D01*
X0015359Y0033810D01*
X0015405Y0033759D01*
X0015447Y0033705D01*
X0015487Y0033649D01*
X0015523Y0033590D01*
X0015555Y0033530D01*
X0015584Y0033468D01*
X0015610Y0033404D01*
X0015631Y0033339D01*
X0015649Y0033272D01*
X0015663Y0033205D01*
X0015673Y0033137D01*
X0015679Y0033069D01*
X0015681Y0033000D01*
X0015679Y0032931D01*
X0015673Y0032863D01*
X0015663Y0032795D01*
X0015649Y0032728D01*
X0015631Y0032661D01*
X0015610Y0032596D01*
X0015584Y0032532D01*
X0015555Y0032470D01*
X0015523Y0032409D01*
X0015487Y0032351D01*
X0015447Y0032295D01*
X0015405Y0032241D01*
X0015359Y0032190D01*
X0015310Y0032141D01*
X0015259Y0032095D01*
X0015205Y0032053D01*
X0015149Y0032013D01*
X0015091Y0031977D01*
X0015030Y0031945D01*
X0014968Y0031916D01*
X0014904Y0031890D01*
X0014839Y0031869D01*
X0014772Y0031851D01*
X0014705Y0031837D01*
X0014637Y0031827D01*
X0014569Y0031821D01*
X0014500Y0031819D01*
X0014431Y0031821D01*
X0014363Y0031827D01*
X0014295Y0031837D01*
X0014228Y0031851D01*
X0014161Y0031869D01*
X0014096Y0031890D01*
X0014032Y0031916D01*
X0013970Y0031945D01*
X0013909Y0031977D01*
X0013851Y0032013D01*
X0013795Y0032053D01*
X0013741Y0032095D01*
X0013690Y0032141D01*
X0013641Y0032190D01*
X0013595Y0032241D01*
X0013553Y0032295D01*
X0013513Y0032351D01*
X0013477Y0032409D01*
X0013445Y0032470D01*
X0013416Y0032532D01*
X0013390Y0032596D01*
X0013369Y0032661D01*
X0013351Y0032728D01*
X0013337Y0032795D01*
X0013327Y0032863D01*
X0013321Y0032931D01*
X0013319Y0033000D01*
X0010019Y0041100D02*
X0010021Y0041169D01*
X0010027Y0041237D01*
X0010037Y0041305D01*
X0010051Y0041372D01*
X0010069Y0041439D01*
X0010090Y0041504D01*
X0010116Y0041568D01*
X0010145Y0041630D01*
X0010177Y0041690D01*
X0010213Y0041749D01*
X0010253Y0041805D01*
X0010295Y0041859D01*
X0010341Y0041910D01*
X0010390Y0041959D01*
X0010441Y0042005D01*
X0010495Y0042047D01*
X0010551Y0042087D01*
X0010609Y0042123D01*
X0010670Y0042155D01*
X0010732Y0042184D01*
X0010796Y0042210D01*
X0010861Y0042231D01*
X0010928Y0042249D01*
X0010995Y0042263D01*
X0011063Y0042273D01*
X0011131Y0042279D01*
X0011200Y0042281D01*
X0011269Y0042279D01*
X0011337Y0042273D01*
X0011405Y0042263D01*
X0011472Y0042249D01*
X0011539Y0042231D01*
X0011604Y0042210D01*
X0011668Y0042184D01*
X0011730Y0042155D01*
X0011790Y0042123D01*
X0011849Y0042087D01*
X0011905Y0042047D01*
X0011959Y0042005D01*
X0012010Y0041959D01*
X0012059Y0041910D01*
X0012105Y0041859D01*
X0012147Y0041805D01*
X0012187Y0041749D01*
X0012223Y0041690D01*
X0012255Y0041630D01*
X0012284Y0041568D01*
X0012310Y0041504D01*
X0012331Y0041439D01*
X0012349Y0041372D01*
X0012363Y0041305D01*
X0012373Y0041237D01*
X0012379Y0041169D01*
X0012381Y0041100D01*
X0012379Y0041031D01*
X0012373Y0040963D01*
X0012363Y0040895D01*
X0012349Y0040828D01*
X0012331Y0040761D01*
X0012310Y0040696D01*
X0012284Y0040632D01*
X0012255Y0040570D01*
X0012223Y0040509D01*
X0012187Y0040451D01*
X0012147Y0040395D01*
X0012105Y0040341D01*
X0012059Y0040290D01*
X0012010Y0040241D01*
X0011959Y0040195D01*
X0011905Y0040153D01*
X0011849Y0040113D01*
X0011791Y0040077D01*
X0011730Y0040045D01*
X0011668Y0040016D01*
X0011604Y0039990D01*
X0011539Y0039969D01*
X0011472Y0039951D01*
X0011405Y0039937D01*
X0011337Y0039927D01*
X0011269Y0039921D01*
X0011200Y0039919D01*
X0011131Y0039921D01*
X0011063Y0039927D01*
X0010995Y0039937D01*
X0010928Y0039951D01*
X0010861Y0039969D01*
X0010796Y0039990D01*
X0010732Y0040016D01*
X0010670Y0040045D01*
X0010609Y0040077D01*
X0010551Y0040113D01*
X0010495Y0040153D01*
X0010441Y0040195D01*
X0010390Y0040241D01*
X0010341Y0040290D01*
X0010295Y0040341D01*
X0010253Y0040395D01*
X0010213Y0040451D01*
X0010177Y0040509D01*
X0010145Y0040570D01*
X0010116Y0040632D01*
X0010090Y0040696D01*
X0010069Y0040761D01*
X0010051Y0040828D01*
X0010037Y0040895D01*
X0010027Y0040963D01*
X0010021Y0041031D01*
X0010019Y0041100D01*
X0009819Y0054000D02*
X0009821Y0054069D01*
X0009827Y0054137D01*
X0009837Y0054205D01*
X0009851Y0054272D01*
X0009869Y0054339D01*
X0009890Y0054404D01*
X0009916Y0054468D01*
X0009945Y0054530D01*
X0009977Y0054590D01*
X0010013Y0054649D01*
X0010053Y0054705D01*
X0010095Y0054759D01*
X0010141Y0054810D01*
X0010190Y0054859D01*
X0010241Y0054905D01*
X0010295Y0054947D01*
X0010351Y0054987D01*
X0010409Y0055023D01*
X0010470Y0055055D01*
X0010532Y0055084D01*
X0010596Y0055110D01*
X0010661Y0055131D01*
X0010728Y0055149D01*
X0010795Y0055163D01*
X0010863Y0055173D01*
X0010931Y0055179D01*
X0011000Y0055181D01*
X0011069Y0055179D01*
X0011137Y0055173D01*
X0011205Y0055163D01*
X0011272Y0055149D01*
X0011339Y0055131D01*
X0011404Y0055110D01*
X0011468Y0055084D01*
X0011530Y0055055D01*
X0011590Y0055023D01*
X0011649Y0054987D01*
X0011705Y0054947D01*
X0011759Y0054905D01*
X0011810Y0054859D01*
X0011859Y0054810D01*
X0011905Y0054759D01*
X0011947Y0054705D01*
X0011987Y0054649D01*
X0012023Y0054590D01*
X0012055Y0054530D01*
X0012084Y0054468D01*
X0012110Y0054404D01*
X0012131Y0054339D01*
X0012149Y0054272D01*
X0012163Y0054205D01*
X0012173Y0054137D01*
X0012179Y0054069D01*
X0012181Y0054000D01*
X0012179Y0053931D01*
X0012173Y0053863D01*
X0012163Y0053795D01*
X0012149Y0053728D01*
X0012131Y0053661D01*
X0012110Y0053596D01*
X0012084Y0053532D01*
X0012055Y0053470D01*
X0012023Y0053409D01*
X0011987Y0053351D01*
X0011947Y0053295D01*
X0011905Y0053241D01*
X0011859Y0053190D01*
X0011810Y0053141D01*
X0011759Y0053095D01*
X0011705Y0053053D01*
X0011649Y0053013D01*
X0011591Y0052977D01*
X0011530Y0052945D01*
X0011468Y0052916D01*
X0011404Y0052890D01*
X0011339Y0052869D01*
X0011272Y0052851D01*
X0011205Y0052837D01*
X0011137Y0052827D01*
X0011069Y0052821D01*
X0011000Y0052819D01*
X0010931Y0052821D01*
X0010863Y0052827D01*
X0010795Y0052837D01*
X0010728Y0052851D01*
X0010661Y0052869D01*
X0010596Y0052890D01*
X0010532Y0052916D01*
X0010470Y0052945D01*
X0010409Y0052977D01*
X0010351Y0053013D01*
X0010295Y0053053D01*
X0010241Y0053095D01*
X0010190Y0053141D01*
X0010141Y0053190D01*
X0010095Y0053241D01*
X0010053Y0053295D01*
X0010013Y0053351D01*
X0009977Y0053409D01*
X0009945Y0053470D01*
X0009916Y0053532D01*
X0009890Y0053596D01*
X0009869Y0053661D01*
X0009851Y0053728D01*
X0009837Y0053795D01*
X0009827Y0053863D01*
X0009821Y0053931D01*
X0009819Y0054000D01*
X0009819Y0067000D02*
X0009821Y0067069D01*
X0009827Y0067137D01*
X0009837Y0067205D01*
X0009851Y0067272D01*
X0009869Y0067339D01*
X0009890Y0067404D01*
X0009916Y0067468D01*
X0009945Y0067530D01*
X0009977Y0067590D01*
X0010013Y0067649D01*
X0010053Y0067705D01*
X0010095Y0067759D01*
X0010141Y0067810D01*
X0010190Y0067859D01*
X0010241Y0067905D01*
X0010295Y0067947D01*
X0010351Y0067987D01*
X0010409Y0068023D01*
X0010470Y0068055D01*
X0010532Y0068084D01*
X0010596Y0068110D01*
X0010661Y0068131D01*
X0010728Y0068149D01*
X0010795Y0068163D01*
X0010863Y0068173D01*
X0010931Y0068179D01*
X0011000Y0068181D01*
X0011069Y0068179D01*
X0011137Y0068173D01*
X0011205Y0068163D01*
X0011272Y0068149D01*
X0011339Y0068131D01*
X0011404Y0068110D01*
X0011468Y0068084D01*
X0011530Y0068055D01*
X0011590Y0068023D01*
X0011649Y0067987D01*
X0011705Y0067947D01*
X0011759Y0067905D01*
X0011810Y0067859D01*
X0011859Y0067810D01*
X0011905Y0067759D01*
X0011947Y0067705D01*
X0011987Y0067649D01*
X0012023Y0067590D01*
X0012055Y0067530D01*
X0012084Y0067468D01*
X0012110Y0067404D01*
X0012131Y0067339D01*
X0012149Y0067272D01*
X0012163Y0067205D01*
X0012173Y0067137D01*
X0012179Y0067069D01*
X0012181Y0067000D01*
X0012179Y0066931D01*
X0012173Y0066863D01*
X0012163Y0066795D01*
X0012149Y0066728D01*
X0012131Y0066661D01*
X0012110Y0066596D01*
X0012084Y0066532D01*
X0012055Y0066470D01*
X0012023Y0066409D01*
X0011987Y0066351D01*
X0011947Y0066295D01*
X0011905Y0066241D01*
X0011859Y0066190D01*
X0011810Y0066141D01*
X0011759Y0066095D01*
X0011705Y0066053D01*
X0011649Y0066013D01*
X0011591Y0065977D01*
X0011530Y0065945D01*
X0011468Y0065916D01*
X0011404Y0065890D01*
X0011339Y0065869D01*
X0011272Y0065851D01*
X0011205Y0065837D01*
X0011137Y0065827D01*
X0011069Y0065821D01*
X0011000Y0065819D01*
X0010931Y0065821D01*
X0010863Y0065827D01*
X0010795Y0065837D01*
X0010728Y0065851D01*
X0010661Y0065869D01*
X0010596Y0065890D01*
X0010532Y0065916D01*
X0010470Y0065945D01*
X0010409Y0065977D01*
X0010351Y0066013D01*
X0010295Y0066053D01*
X0010241Y0066095D01*
X0010190Y0066141D01*
X0010141Y0066190D01*
X0010095Y0066241D01*
X0010053Y0066295D01*
X0010013Y0066351D01*
X0009977Y0066409D01*
X0009945Y0066470D01*
X0009916Y0066532D01*
X0009890Y0066596D01*
X0009869Y0066661D01*
X0009851Y0066728D01*
X0009837Y0066795D01*
X0009827Y0066863D01*
X0009821Y0066931D01*
X0009819Y0067000D01*
X0017819Y0077000D02*
X0017821Y0077069D01*
X0017827Y0077137D01*
X0017837Y0077205D01*
X0017851Y0077272D01*
X0017869Y0077339D01*
X0017890Y0077404D01*
X0017916Y0077468D01*
X0017945Y0077530D01*
X0017977Y0077590D01*
X0018013Y0077649D01*
X0018053Y0077705D01*
X0018095Y0077759D01*
X0018141Y0077810D01*
X0018190Y0077859D01*
X0018241Y0077905D01*
X0018295Y0077947D01*
X0018351Y0077987D01*
X0018409Y0078023D01*
X0018470Y0078055D01*
X0018532Y0078084D01*
X0018596Y0078110D01*
X0018661Y0078131D01*
X0018728Y0078149D01*
X0018795Y0078163D01*
X0018863Y0078173D01*
X0018931Y0078179D01*
X0019000Y0078181D01*
X0019069Y0078179D01*
X0019137Y0078173D01*
X0019205Y0078163D01*
X0019272Y0078149D01*
X0019339Y0078131D01*
X0019404Y0078110D01*
X0019468Y0078084D01*
X0019530Y0078055D01*
X0019590Y0078023D01*
X0019649Y0077987D01*
X0019705Y0077947D01*
X0019759Y0077905D01*
X0019810Y0077859D01*
X0019859Y0077810D01*
X0019905Y0077759D01*
X0019947Y0077705D01*
X0019987Y0077649D01*
X0020023Y0077590D01*
X0020055Y0077530D01*
X0020084Y0077468D01*
X0020110Y0077404D01*
X0020131Y0077339D01*
X0020149Y0077272D01*
X0020163Y0077205D01*
X0020173Y0077137D01*
X0020179Y0077069D01*
X0020181Y0077000D01*
X0020179Y0076931D01*
X0020173Y0076863D01*
X0020163Y0076795D01*
X0020149Y0076728D01*
X0020131Y0076661D01*
X0020110Y0076596D01*
X0020084Y0076532D01*
X0020055Y0076470D01*
X0020023Y0076409D01*
X0019987Y0076351D01*
X0019947Y0076295D01*
X0019905Y0076241D01*
X0019859Y0076190D01*
X0019810Y0076141D01*
X0019759Y0076095D01*
X0019705Y0076053D01*
X0019649Y0076013D01*
X0019591Y0075977D01*
X0019530Y0075945D01*
X0019468Y0075916D01*
X0019404Y0075890D01*
X0019339Y0075869D01*
X0019272Y0075851D01*
X0019205Y0075837D01*
X0019137Y0075827D01*
X0019069Y0075821D01*
X0019000Y0075819D01*
X0018931Y0075821D01*
X0018863Y0075827D01*
X0018795Y0075837D01*
X0018728Y0075851D01*
X0018661Y0075869D01*
X0018596Y0075890D01*
X0018532Y0075916D01*
X0018470Y0075945D01*
X0018409Y0075977D01*
X0018351Y0076013D01*
X0018295Y0076053D01*
X0018241Y0076095D01*
X0018190Y0076141D01*
X0018141Y0076190D01*
X0018095Y0076241D01*
X0018053Y0076295D01*
X0018013Y0076351D01*
X0017977Y0076409D01*
X0017945Y0076470D01*
X0017916Y0076532D01*
X0017890Y0076596D01*
X0017869Y0076661D01*
X0017851Y0076728D01*
X0017837Y0076795D01*
X0017827Y0076863D01*
X0017821Y0076931D01*
X0017819Y0077000D01*
X0017819Y0085000D02*
X0017821Y0085069D01*
X0017827Y0085137D01*
X0017837Y0085205D01*
X0017851Y0085272D01*
X0017869Y0085339D01*
X0017890Y0085404D01*
X0017916Y0085468D01*
X0017945Y0085530D01*
X0017977Y0085590D01*
X0018013Y0085649D01*
X0018053Y0085705D01*
X0018095Y0085759D01*
X0018141Y0085810D01*
X0018190Y0085859D01*
X0018241Y0085905D01*
X0018295Y0085947D01*
X0018351Y0085987D01*
X0018409Y0086023D01*
X0018470Y0086055D01*
X0018532Y0086084D01*
X0018596Y0086110D01*
X0018661Y0086131D01*
X0018728Y0086149D01*
X0018795Y0086163D01*
X0018863Y0086173D01*
X0018931Y0086179D01*
X0019000Y0086181D01*
X0019069Y0086179D01*
X0019137Y0086173D01*
X0019205Y0086163D01*
X0019272Y0086149D01*
X0019339Y0086131D01*
X0019404Y0086110D01*
X0019468Y0086084D01*
X0019530Y0086055D01*
X0019590Y0086023D01*
X0019649Y0085987D01*
X0019705Y0085947D01*
X0019759Y0085905D01*
X0019810Y0085859D01*
X0019859Y0085810D01*
X0019905Y0085759D01*
X0019947Y0085705D01*
X0019987Y0085649D01*
X0020023Y0085590D01*
X0020055Y0085530D01*
X0020084Y0085468D01*
X0020110Y0085404D01*
X0020131Y0085339D01*
X0020149Y0085272D01*
X0020163Y0085205D01*
X0020173Y0085137D01*
X0020179Y0085069D01*
X0020181Y0085000D01*
X0020179Y0084931D01*
X0020173Y0084863D01*
X0020163Y0084795D01*
X0020149Y0084728D01*
X0020131Y0084661D01*
X0020110Y0084596D01*
X0020084Y0084532D01*
X0020055Y0084470D01*
X0020023Y0084409D01*
X0019987Y0084351D01*
X0019947Y0084295D01*
X0019905Y0084241D01*
X0019859Y0084190D01*
X0019810Y0084141D01*
X0019759Y0084095D01*
X0019705Y0084053D01*
X0019649Y0084013D01*
X0019591Y0083977D01*
X0019530Y0083945D01*
X0019468Y0083916D01*
X0019404Y0083890D01*
X0019339Y0083869D01*
X0019272Y0083851D01*
X0019205Y0083837D01*
X0019137Y0083827D01*
X0019069Y0083821D01*
X0019000Y0083819D01*
X0018931Y0083821D01*
X0018863Y0083827D01*
X0018795Y0083837D01*
X0018728Y0083851D01*
X0018661Y0083869D01*
X0018596Y0083890D01*
X0018532Y0083916D01*
X0018470Y0083945D01*
X0018409Y0083977D01*
X0018351Y0084013D01*
X0018295Y0084053D01*
X0018241Y0084095D01*
X0018190Y0084141D01*
X0018141Y0084190D01*
X0018095Y0084241D01*
X0018053Y0084295D01*
X0018013Y0084351D01*
X0017977Y0084409D01*
X0017945Y0084470D01*
X0017916Y0084532D01*
X0017890Y0084596D01*
X0017869Y0084661D01*
X0017851Y0084728D01*
X0017837Y0084795D01*
X0017827Y0084863D01*
X0017821Y0084931D01*
X0017819Y0085000D01*
X0009819Y0097000D02*
X0009821Y0097069D01*
X0009827Y0097137D01*
X0009837Y0097205D01*
X0009851Y0097272D01*
X0009869Y0097339D01*
X0009890Y0097404D01*
X0009916Y0097468D01*
X0009945Y0097530D01*
X0009977Y0097590D01*
X0010013Y0097649D01*
X0010053Y0097705D01*
X0010095Y0097759D01*
X0010141Y0097810D01*
X0010190Y0097859D01*
X0010241Y0097905D01*
X0010295Y0097947D01*
X0010351Y0097987D01*
X0010409Y0098023D01*
X0010470Y0098055D01*
X0010532Y0098084D01*
X0010596Y0098110D01*
X0010661Y0098131D01*
X0010728Y0098149D01*
X0010795Y0098163D01*
X0010863Y0098173D01*
X0010931Y0098179D01*
X0011000Y0098181D01*
X0011069Y0098179D01*
X0011137Y0098173D01*
X0011205Y0098163D01*
X0011272Y0098149D01*
X0011339Y0098131D01*
X0011404Y0098110D01*
X0011468Y0098084D01*
X0011530Y0098055D01*
X0011590Y0098023D01*
X0011649Y0097987D01*
X0011705Y0097947D01*
X0011759Y0097905D01*
X0011810Y0097859D01*
X0011859Y0097810D01*
X0011905Y0097759D01*
X0011947Y0097705D01*
X0011987Y0097649D01*
X0012023Y0097590D01*
X0012055Y0097530D01*
X0012084Y0097468D01*
X0012110Y0097404D01*
X0012131Y0097339D01*
X0012149Y0097272D01*
X0012163Y0097205D01*
X0012173Y0097137D01*
X0012179Y0097069D01*
X0012181Y0097000D01*
X0012179Y0096931D01*
X0012173Y0096863D01*
X0012163Y0096795D01*
X0012149Y0096728D01*
X0012131Y0096661D01*
X0012110Y0096596D01*
X0012084Y0096532D01*
X0012055Y0096470D01*
X0012023Y0096409D01*
X0011987Y0096351D01*
X0011947Y0096295D01*
X0011905Y0096241D01*
X0011859Y0096190D01*
X0011810Y0096141D01*
X0011759Y0096095D01*
X0011705Y0096053D01*
X0011649Y0096013D01*
X0011591Y0095977D01*
X0011530Y0095945D01*
X0011468Y0095916D01*
X0011404Y0095890D01*
X0011339Y0095869D01*
X0011272Y0095851D01*
X0011205Y0095837D01*
X0011137Y0095827D01*
X0011069Y0095821D01*
X0011000Y0095819D01*
X0010931Y0095821D01*
X0010863Y0095827D01*
X0010795Y0095837D01*
X0010728Y0095851D01*
X0010661Y0095869D01*
X0010596Y0095890D01*
X0010532Y0095916D01*
X0010470Y0095945D01*
X0010409Y0095977D01*
X0010351Y0096013D01*
X0010295Y0096053D01*
X0010241Y0096095D01*
X0010190Y0096141D01*
X0010141Y0096190D01*
X0010095Y0096241D01*
X0010053Y0096295D01*
X0010013Y0096351D01*
X0009977Y0096409D01*
X0009945Y0096470D01*
X0009916Y0096532D01*
X0009890Y0096596D01*
X0009869Y0096661D01*
X0009851Y0096728D01*
X0009837Y0096795D01*
X0009827Y0096863D01*
X0009821Y0096931D01*
X0009819Y0097000D01*
X0009819Y0110000D02*
X0009821Y0110069D01*
X0009827Y0110137D01*
X0009837Y0110205D01*
X0009851Y0110272D01*
X0009869Y0110339D01*
X0009890Y0110404D01*
X0009916Y0110468D01*
X0009945Y0110530D01*
X0009977Y0110590D01*
X0010013Y0110649D01*
X0010053Y0110705D01*
X0010095Y0110759D01*
X0010141Y0110810D01*
X0010190Y0110859D01*
X0010241Y0110905D01*
X0010295Y0110947D01*
X0010351Y0110987D01*
X0010409Y0111023D01*
X0010470Y0111055D01*
X0010532Y0111084D01*
X0010596Y0111110D01*
X0010661Y0111131D01*
X0010728Y0111149D01*
X0010795Y0111163D01*
X0010863Y0111173D01*
X0010931Y0111179D01*
X0011000Y0111181D01*
X0011069Y0111179D01*
X0011137Y0111173D01*
X0011205Y0111163D01*
X0011272Y0111149D01*
X0011339Y0111131D01*
X0011404Y0111110D01*
X0011468Y0111084D01*
X0011530Y0111055D01*
X0011590Y0111023D01*
X0011649Y0110987D01*
X0011705Y0110947D01*
X0011759Y0110905D01*
X0011810Y0110859D01*
X0011859Y0110810D01*
X0011905Y0110759D01*
X0011947Y0110705D01*
X0011987Y0110649D01*
X0012023Y0110590D01*
X0012055Y0110530D01*
X0012084Y0110468D01*
X0012110Y0110404D01*
X0012131Y0110339D01*
X0012149Y0110272D01*
X0012163Y0110205D01*
X0012173Y0110137D01*
X0012179Y0110069D01*
X0012181Y0110000D01*
X0012179Y0109931D01*
X0012173Y0109863D01*
X0012163Y0109795D01*
X0012149Y0109728D01*
X0012131Y0109661D01*
X0012110Y0109596D01*
X0012084Y0109532D01*
X0012055Y0109470D01*
X0012023Y0109409D01*
X0011987Y0109351D01*
X0011947Y0109295D01*
X0011905Y0109241D01*
X0011859Y0109190D01*
X0011810Y0109141D01*
X0011759Y0109095D01*
X0011705Y0109053D01*
X0011649Y0109013D01*
X0011591Y0108977D01*
X0011530Y0108945D01*
X0011468Y0108916D01*
X0011404Y0108890D01*
X0011339Y0108869D01*
X0011272Y0108851D01*
X0011205Y0108837D01*
X0011137Y0108827D01*
X0011069Y0108821D01*
X0011000Y0108819D01*
X0010931Y0108821D01*
X0010863Y0108827D01*
X0010795Y0108837D01*
X0010728Y0108851D01*
X0010661Y0108869D01*
X0010596Y0108890D01*
X0010532Y0108916D01*
X0010470Y0108945D01*
X0010409Y0108977D01*
X0010351Y0109013D01*
X0010295Y0109053D01*
X0010241Y0109095D01*
X0010190Y0109141D01*
X0010141Y0109190D01*
X0010095Y0109241D01*
X0010053Y0109295D01*
X0010013Y0109351D01*
X0009977Y0109409D01*
X0009945Y0109470D01*
X0009916Y0109532D01*
X0009890Y0109596D01*
X0009869Y0109661D01*
X0009851Y0109728D01*
X0009837Y0109795D01*
X0009827Y0109863D01*
X0009821Y0109931D01*
X0009819Y0110000D01*
X0009819Y0123000D02*
X0009821Y0123069D01*
X0009827Y0123137D01*
X0009837Y0123205D01*
X0009851Y0123272D01*
X0009869Y0123339D01*
X0009890Y0123404D01*
X0009916Y0123468D01*
X0009945Y0123530D01*
X0009977Y0123590D01*
X0010013Y0123649D01*
X0010053Y0123705D01*
X0010095Y0123759D01*
X0010141Y0123810D01*
X0010190Y0123859D01*
X0010241Y0123905D01*
X0010295Y0123947D01*
X0010351Y0123987D01*
X0010409Y0124023D01*
X0010470Y0124055D01*
X0010532Y0124084D01*
X0010596Y0124110D01*
X0010661Y0124131D01*
X0010728Y0124149D01*
X0010795Y0124163D01*
X0010863Y0124173D01*
X0010931Y0124179D01*
X0011000Y0124181D01*
X0011069Y0124179D01*
X0011137Y0124173D01*
X0011205Y0124163D01*
X0011272Y0124149D01*
X0011339Y0124131D01*
X0011404Y0124110D01*
X0011468Y0124084D01*
X0011530Y0124055D01*
X0011590Y0124023D01*
X0011649Y0123987D01*
X0011705Y0123947D01*
X0011759Y0123905D01*
X0011810Y0123859D01*
X0011859Y0123810D01*
X0011905Y0123759D01*
X0011947Y0123705D01*
X0011987Y0123649D01*
X0012023Y0123590D01*
X0012055Y0123530D01*
X0012084Y0123468D01*
X0012110Y0123404D01*
X0012131Y0123339D01*
X0012149Y0123272D01*
X0012163Y0123205D01*
X0012173Y0123137D01*
X0012179Y0123069D01*
X0012181Y0123000D01*
X0012179Y0122931D01*
X0012173Y0122863D01*
X0012163Y0122795D01*
X0012149Y0122728D01*
X0012131Y0122661D01*
X0012110Y0122596D01*
X0012084Y0122532D01*
X0012055Y0122470D01*
X0012023Y0122409D01*
X0011987Y0122351D01*
X0011947Y0122295D01*
X0011905Y0122241D01*
X0011859Y0122190D01*
X0011810Y0122141D01*
X0011759Y0122095D01*
X0011705Y0122053D01*
X0011649Y0122013D01*
X0011591Y0121977D01*
X0011530Y0121945D01*
X0011468Y0121916D01*
X0011404Y0121890D01*
X0011339Y0121869D01*
X0011272Y0121851D01*
X0011205Y0121837D01*
X0011137Y0121827D01*
X0011069Y0121821D01*
X0011000Y0121819D01*
X0010931Y0121821D01*
X0010863Y0121827D01*
X0010795Y0121837D01*
X0010728Y0121851D01*
X0010661Y0121869D01*
X0010596Y0121890D01*
X0010532Y0121916D01*
X0010470Y0121945D01*
X0010409Y0121977D01*
X0010351Y0122013D01*
X0010295Y0122053D01*
X0010241Y0122095D01*
X0010190Y0122141D01*
X0010141Y0122190D01*
X0010095Y0122241D01*
X0010053Y0122295D01*
X0010013Y0122351D01*
X0009977Y0122409D01*
X0009945Y0122470D01*
X0009916Y0122532D01*
X0009890Y0122596D01*
X0009869Y0122661D01*
X0009851Y0122728D01*
X0009837Y0122795D01*
X0009827Y0122863D01*
X0009821Y0122931D01*
X0009819Y0123000D01*
X0012319Y0130000D02*
X0012321Y0130069D01*
X0012327Y0130137D01*
X0012337Y0130205D01*
X0012351Y0130272D01*
X0012369Y0130339D01*
X0012390Y0130404D01*
X0012416Y0130468D01*
X0012445Y0130530D01*
X0012477Y0130590D01*
X0012513Y0130649D01*
X0012553Y0130705D01*
X0012595Y0130759D01*
X0012641Y0130810D01*
X0012690Y0130859D01*
X0012741Y0130905D01*
X0012795Y0130947D01*
X0012851Y0130987D01*
X0012909Y0131023D01*
X0012970Y0131055D01*
X0013032Y0131084D01*
X0013096Y0131110D01*
X0013161Y0131131D01*
X0013228Y0131149D01*
X0013295Y0131163D01*
X0013363Y0131173D01*
X0013431Y0131179D01*
X0013500Y0131181D01*
X0013569Y0131179D01*
X0013637Y0131173D01*
X0013705Y0131163D01*
X0013772Y0131149D01*
X0013839Y0131131D01*
X0013904Y0131110D01*
X0013968Y0131084D01*
X0014030Y0131055D01*
X0014090Y0131023D01*
X0014149Y0130987D01*
X0014205Y0130947D01*
X0014259Y0130905D01*
X0014310Y0130859D01*
X0014359Y0130810D01*
X0014405Y0130759D01*
X0014447Y0130705D01*
X0014487Y0130649D01*
X0014523Y0130590D01*
X0014555Y0130530D01*
X0014584Y0130468D01*
X0014610Y0130404D01*
X0014631Y0130339D01*
X0014649Y0130272D01*
X0014663Y0130205D01*
X0014673Y0130137D01*
X0014679Y0130069D01*
X0014681Y0130000D01*
X0014679Y0129931D01*
X0014673Y0129863D01*
X0014663Y0129795D01*
X0014649Y0129728D01*
X0014631Y0129661D01*
X0014610Y0129596D01*
X0014584Y0129532D01*
X0014555Y0129470D01*
X0014523Y0129409D01*
X0014487Y0129351D01*
X0014447Y0129295D01*
X0014405Y0129241D01*
X0014359Y0129190D01*
X0014310Y0129141D01*
X0014259Y0129095D01*
X0014205Y0129053D01*
X0014149Y0129013D01*
X0014091Y0128977D01*
X0014030Y0128945D01*
X0013968Y0128916D01*
X0013904Y0128890D01*
X0013839Y0128869D01*
X0013772Y0128851D01*
X0013705Y0128837D01*
X0013637Y0128827D01*
X0013569Y0128821D01*
X0013500Y0128819D01*
X0013431Y0128821D01*
X0013363Y0128827D01*
X0013295Y0128837D01*
X0013228Y0128851D01*
X0013161Y0128869D01*
X0013096Y0128890D01*
X0013032Y0128916D01*
X0012970Y0128945D01*
X0012909Y0128977D01*
X0012851Y0129013D01*
X0012795Y0129053D01*
X0012741Y0129095D01*
X0012690Y0129141D01*
X0012641Y0129190D01*
X0012595Y0129241D01*
X0012553Y0129295D01*
X0012513Y0129351D01*
X0012477Y0129409D01*
X0012445Y0129470D01*
X0012416Y0129532D01*
X0012390Y0129596D01*
X0012369Y0129661D01*
X0012351Y0129728D01*
X0012337Y0129795D01*
X0012327Y0129863D01*
X0012321Y0129931D01*
X0012319Y0130000D01*
X0019619Y0140800D02*
X0019621Y0140869D01*
X0019627Y0140937D01*
X0019637Y0141005D01*
X0019651Y0141072D01*
X0019669Y0141139D01*
X0019690Y0141204D01*
X0019716Y0141268D01*
X0019745Y0141330D01*
X0019777Y0141390D01*
X0019813Y0141449D01*
X0019853Y0141505D01*
X0019895Y0141559D01*
X0019941Y0141610D01*
X0019990Y0141659D01*
X0020041Y0141705D01*
X0020095Y0141747D01*
X0020151Y0141787D01*
X0020209Y0141823D01*
X0020270Y0141855D01*
X0020332Y0141884D01*
X0020396Y0141910D01*
X0020461Y0141931D01*
X0020528Y0141949D01*
X0020595Y0141963D01*
X0020663Y0141973D01*
X0020731Y0141979D01*
X0020800Y0141981D01*
X0020869Y0141979D01*
X0020937Y0141973D01*
X0021005Y0141963D01*
X0021072Y0141949D01*
X0021139Y0141931D01*
X0021204Y0141910D01*
X0021268Y0141884D01*
X0021330Y0141855D01*
X0021390Y0141823D01*
X0021449Y0141787D01*
X0021505Y0141747D01*
X0021559Y0141705D01*
X0021610Y0141659D01*
X0021659Y0141610D01*
X0021705Y0141559D01*
X0021747Y0141505D01*
X0021787Y0141449D01*
X0021823Y0141390D01*
X0021855Y0141330D01*
X0021884Y0141268D01*
X0021910Y0141204D01*
X0021931Y0141139D01*
X0021949Y0141072D01*
X0021963Y0141005D01*
X0021973Y0140937D01*
X0021979Y0140869D01*
X0021981Y0140800D01*
X0021979Y0140731D01*
X0021973Y0140663D01*
X0021963Y0140595D01*
X0021949Y0140528D01*
X0021931Y0140461D01*
X0021910Y0140396D01*
X0021884Y0140332D01*
X0021855Y0140270D01*
X0021823Y0140209D01*
X0021787Y0140151D01*
X0021747Y0140095D01*
X0021705Y0140041D01*
X0021659Y0139990D01*
X0021610Y0139941D01*
X0021559Y0139895D01*
X0021505Y0139853D01*
X0021449Y0139813D01*
X0021391Y0139777D01*
X0021330Y0139745D01*
X0021268Y0139716D01*
X0021204Y0139690D01*
X0021139Y0139669D01*
X0021072Y0139651D01*
X0021005Y0139637D01*
X0020937Y0139627D01*
X0020869Y0139621D01*
X0020800Y0139619D01*
X0020731Y0139621D01*
X0020663Y0139627D01*
X0020595Y0139637D01*
X0020528Y0139651D01*
X0020461Y0139669D01*
X0020396Y0139690D01*
X0020332Y0139716D01*
X0020270Y0139745D01*
X0020209Y0139777D01*
X0020151Y0139813D01*
X0020095Y0139853D01*
X0020041Y0139895D01*
X0019990Y0139941D01*
X0019941Y0139990D01*
X0019895Y0140041D01*
X0019853Y0140095D01*
X0019813Y0140151D01*
X0019777Y0140209D01*
X0019745Y0140270D01*
X0019716Y0140332D01*
X0019690Y0140396D01*
X0019669Y0140461D01*
X0019651Y0140528D01*
X0019637Y0140595D01*
X0019627Y0140663D01*
X0019621Y0140731D01*
X0019619Y0140800D01*
X0032719Y0150600D02*
X0032721Y0150669D01*
X0032727Y0150737D01*
X0032737Y0150805D01*
X0032751Y0150872D01*
X0032769Y0150939D01*
X0032790Y0151004D01*
X0032816Y0151068D01*
X0032845Y0151130D01*
X0032877Y0151190D01*
X0032913Y0151249D01*
X0032953Y0151305D01*
X0032995Y0151359D01*
X0033041Y0151410D01*
X0033090Y0151459D01*
X0033141Y0151505D01*
X0033195Y0151547D01*
X0033251Y0151587D01*
X0033309Y0151623D01*
X0033370Y0151655D01*
X0033432Y0151684D01*
X0033496Y0151710D01*
X0033561Y0151731D01*
X0033628Y0151749D01*
X0033695Y0151763D01*
X0033763Y0151773D01*
X0033831Y0151779D01*
X0033900Y0151781D01*
X0033969Y0151779D01*
X0034037Y0151773D01*
X0034105Y0151763D01*
X0034172Y0151749D01*
X0034239Y0151731D01*
X0034304Y0151710D01*
X0034368Y0151684D01*
X0034430Y0151655D01*
X0034490Y0151623D01*
X0034549Y0151587D01*
X0034605Y0151547D01*
X0034659Y0151505D01*
X0034710Y0151459D01*
X0034759Y0151410D01*
X0034805Y0151359D01*
X0034847Y0151305D01*
X0034887Y0151249D01*
X0034923Y0151190D01*
X0034955Y0151130D01*
X0034984Y0151068D01*
X0035010Y0151004D01*
X0035031Y0150939D01*
X0035049Y0150872D01*
X0035063Y0150805D01*
X0035073Y0150737D01*
X0035079Y0150669D01*
X0035081Y0150600D01*
X0035079Y0150531D01*
X0035073Y0150463D01*
X0035063Y0150395D01*
X0035049Y0150328D01*
X0035031Y0150261D01*
X0035010Y0150196D01*
X0034984Y0150132D01*
X0034955Y0150070D01*
X0034923Y0150009D01*
X0034887Y0149951D01*
X0034847Y0149895D01*
X0034805Y0149841D01*
X0034759Y0149790D01*
X0034710Y0149741D01*
X0034659Y0149695D01*
X0034605Y0149653D01*
X0034549Y0149613D01*
X0034491Y0149577D01*
X0034430Y0149545D01*
X0034368Y0149516D01*
X0034304Y0149490D01*
X0034239Y0149469D01*
X0034172Y0149451D01*
X0034105Y0149437D01*
X0034037Y0149427D01*
X0033969Y0149421D01*
X0033900Y0149419D01*
X0033831Y0149421D01*
X0033763Y0149427D01*
X0033695Y0149437D01*
X0033628Y0149451D01*
X0033561Y0149469D01*
X0033496Y0149490D01*
X0033432Y0149516D01*
X0033370Y0149545D01*
X0033309Y0149577D01*
X0033251Y0149613D01*
X0033195Y0149653D01*
X0033141Y0149695D01*
X0033090Y0149741D01*
X0033041Y0149790D01*
X0032995Y0149841D01*
X0032953Y0149895D01*
X0032913Y0149951D01*
X0032877Y0150009D01*
X0032845Y0150070D01*
X0032816Y0150132D01*
X0032790Y0150196D01*
X0032769Y0150261D01*
X0032751Y0150328D01*
X0032737Y0150395D01*
X0032727Y0150463D01*
X0032721Y0150531D01*
X0032719Y0150600D01*
X0039019Y0150500D02*
X0039021Y0150569D01*
X0039027Y0150637D01*
X0039037Y0150705D01*
X0039051Y0150772D01*
X0039069Y0150839D01*
X0039090Y0150904D01*
X0039116Y0150968D01*
X0039145Y0151030D01*
X0039177Y0151090D01*
X0039213Y0151149D01*
X0039253Y0151205D01*
X0039295Y0151259D01*
X0039341Y0151310D01*
X0039390Y0151359D01*
X0039441Y0151405D01*
X0039495Y0151447D01*
X0039551Y0151487D01*
X0039609Y0151523D01*
X0039670Y0151555D01*
X0039732Y0151584D01*
X0039796Y0151610D01*
X0039861Y0151631D01*
X0039928Y0151649D01*
X0039995Y0151663D01*
X0040063Y0151673D01*
X0040131Y0151679D01*
X0040200Y0151681D01*
X0040269Y0151679D01*
X0040337Y0151673D01*
X0040405Y0151663D01*
X0040472Y0151649D01*
X0040539Y0151631D01*
X0040604Y0151610D01*
X0040668Y0151584D01*
X0040730Y0151555D01*
X0040790Y0151523D01*
X0040849Y0151487D01*
X0040905Y0151447D01*
X0040959Y0151405D01*
X0041010Y0151359D01*
X0041059Y0151310D01*
X0041105Y0151259D01*
X0041147Y0151205D01*
X0041187Y0151149D01*
X0041223Y0151090D01*
X0041255Y0151030D01*
X0041284Y0150968D01*
X0041310Y0150904D01*
X0041331Y0150839D01*
X0041349Y0150772D01*
X0041363Y0150705D01*
X0041373Y0150637D01*
X0041379Y0150569D01*
X0041381Y0150500D01*
X0041379Y0150431D01*
X0041373Y0150363D01*
X0041363Y0150295D01*
X0041349Y0150228D01*
X0041331Y0150161D01*
X0041310Y0150096D01*
X0041284Y0150032D01*
X0041255Y0149970D01*
X0041223Y0149909D01*
X0041187Y0149851D01*
X0041147Y0149795D01*
X0041105Y0149741D01*
X0041059Y0149690D01*
X0041010Y0149641D01*
X0040959Y0149595D01*
X0040905Y0149553D01*
X0040849Y0149513D01*
X0040791Y0149477D01*
X0040730Y0149445D01*
X0040668Y0149416D01*
X0040604Y0149390D01*
X0040539Y0149369D01*
X0040472Y0149351D01*
X0040405Y0149337D01*
X0040337Y0149327D01*
X0040269Y0149321D01*
X0040200Y0149319D01*
X0040131Y0149321D01*
X0040063Y0149327D01*
X0039995Y0149337D01*
X0039928Y0149351D01*
X0039861Y0149369D01*
X0039796Y0149390D01*
X0039732Y0149416D01*
X0039670Y0149445D01*
X0039609Y0149477D01*
X0039551Y0149513D01*
X0039495Y0149553D01*
X0039441Y0149595D01*
X0039390Y0149641D01*
X0039341Y0149690D01*
X0039295Y0149741D01*
X0039253Y0149795D01*
X0039213Y0149851D01*
X0039177Y0149909D01*
X0039145Y0149970D01*
X0039116Y0150032D01*
X0039090Y0150096D01*
X0039069Y0150161D01*
X0039051Y0150228D01*
X0039037Y0150295D01*
X0039027Y0150363D01*
X0039021Y0150431D01*
X0039019Y0150500D01*
X0078919Y0150800D02*
X0078921Y0150869D01*
X0078927Y0150937D01*
X0078937Y0151005D01*
X0078951Y0151072D01*
X0078969Y0151139D01*
X0078990Y0151204D01*
X0079016Y0151268D01*
X0079045Y0151330D01*
X0079077Y0151390D01*
X0079113Y0151449D01*
X0079153Y0151505D01*
X0079195Y0151559D01*
X0079241Y0151610D01*
X0079290Y0151659D01*
X0079341Y0151705D01*
X0079395Y0151747D01*
X0079451Y0151787D01*
X0079509Y0151823D01*
X0079570Y0151855D01*
X0079632Y0151884D01*
X0079696Y0151910D01*
X0079761Y0151931D01*
X0079828Y0151949D01*
X0079895Y0151963D01*
X0079963Y0151973D01*
X0080031Y0151979D01*
X0080100Y0151981D01*
X0080169Y0151979D01*
X0080237Y0151973D01*
X0080305Y0151963D01*
X0080372Y0151949D01*
X0080439Y0151931D01*
X0080504Y0151910D01*
X0080568Y0151884D01*
X0080630Y0151855D01*
X0080690Y0151823D01*
X0080749Y0151787D01*
X0080805Y0151747D01*
X0080859Y0151705D01*
X0080910Y0151659D01*
X0080959Y0151610D01*
X0081005Y0151559D01*
X0081047Y0151505D01*
X0081087Y0151449D01*
X0081123Y0151390D01*
X0081155Y0151330D01*
X0081184Y0151268D01*
X0081210Y0151204D01*
X0081231Y0151139D01*
X0081249Y0151072D01*
X0081263Y0151005D01*
X0081273Y0150937D01*
X0081279Y0150869D01*
X0081281Y0150800D01*
X0081279Y0150731D01*
X0081273Y0150663D01*
X0081263Y0150595D01*
X0081249Y0150528D01*
X0081231Y0150461D01*
X0081210Y0150396D01*
X0081184Y0150332D01*
X0081155Y0150270D01*
X0081123Y0150209D01*
X0081087Y0150151D01*
X0081047Y0150095D01*
X0081005Y0150041D01*
X0080959Y0149990D01*
X0080910Y0149941D01*
X0080859Y0149895D01*
X0080805Y0149853D01*
X0080749Y0149813D01*
X0080691Y0149777D01*
X0080630Y0149745D01*
X0080568Y0149716D01*
X0080504Y0149690D01*
X0080439Y0149669D01*
X0080372Y0149651D01*
X0080305Y0149637D01*
X0080237Y0149627D01*
X0080169Y0149621D01*
X0080100Y0149619D01*
X0080031Y0149621D01*
X0079963Y0149627D01*
X0079895Y0149637D01*
X0079828Y0149651D01*
X0079761Y0149669D01*
X0079696Y0149690D01*
X0079632Y0149716D01*
X0079570Y0149745D01*
X0079509Y0149777D01*
X0079451Y0149813D01*
X0079395Y0149853D01*
X0079341Y0149895D01*
X0079290Y0149941D01*
X0079241Y0149990D01*
X0079195Y0150041D01*
X0079153Y0150095D01*
X0079113Y0150151D01*
X0079077Y0150209D01*
X0079045Y0150270D01*
X0079016Y0150332D01*
X0078990Y0150396D01*
X0078969Y0150461D01*
X0078951Y0150528D01*
X0078937Y0150595D01*
X0078927Y0150663D01*
X0078921Y0150731D01*
X0078919Y0150800D01*
X0084919Y0150800D02*
X0084921Y0150869D01*
X0084927Y0150937D01*
X0084937Y0151005D01*
X0084951Y0151072D01*
X0084969Y0151139D01*
X0084990Y0151204D01*
X0085016Y0151268D01*
X0085045Y0151330D01*
X0085077Y0151390D01*
X0085113Y0151449D01*
X0085153Y0151505D01*
X0085195Y0151559D01*
X0085241Y0151610D01*
X0085290Y0151659D01*
X0085341Y0151705D01*
X0085395Y0151747D01*
X0085451Y0151787D01*
X0085509Y0151823D01*
X0085570Y0151855D01*
X0085632Y0151884D01*
X0085696Y0151910D01*
X0085761Y0151931D01*
X0085828Y0151949D01*
X0085895Y0151963D01*
X0085963Y0151973D01*
X0086031Y0151979D01*
X0086100Y0151981D01*
X0086169Y0151979D01*
X0086237Y0151973D01*
X0086305Y0151963D01*
X0086372Y0151949D01*
X0086439Y0151931D01*
X0086504Y0151910D01*
X0086568Y0151884D01*
X0086630Y0151855D01*
X0086690Y0151823D01*
X0086749Y0151787D01*
X0086805Y0151747D01*
X0086859Y0151705D01*
X0086910Y0151659D01*
X0086959Y0151610D01*
X0087005Y0151559D01*
X0087047Y0151505D01*
X0087087Y0151449D01*
X0087123Y0151390D01*
X0087155Y0151330D01*
X0087184Y0151268D01*
X0087210Y0151204D01*
X0087231Y0151139D01*
X0087249Y0151072D01*
X0087263Y0151005D01*
X0087273Y0150937D01*
X0087279Y0150869D01*
X0087281Y0150800D01*
X0087279Y0150731D01*
X0087273Y0150663D01*
X0087263Y0150595D01*
X0087249Y0150528D01*
X0087231Y0150461D01*
X0087210Y0150396D01*
X0087184Y0150332D01*
X0087155Y0150270D01*
X0087123Y0150209D01*
X0087087Y0150151D01*
X0087047Y0150095D01*
X0087005Y0150041D01*
X0086959Y0149990D01*
X0086910Y0149941D01*
X0086859Y0149895D01*
X0086805Y0149853D01*
X0086749Y0149813D01*
X0086691Y0149777D01*
X0086630Y0149745D01*
X0086568Y0149716D01*
X0086504Y0149690D01*
X0086439Y0149669D01*
X0086372Y0149651D01*
X0086305Y0149637D01*
X0086237Y0149627D01*
X0086169Y0149621D01*
X0086100Y0149619D01*
X0086031Y0149621D01*
X0085963Y0149627D01*
X0085895Y0149637D01*
X0085828Y0149651D01*
X0085761Y0149669D01*
X0085696Y0149690D01*
X0085632Y0149716D01*
X0085570Y0149745D01*
X0085509Y0149777D01*
X0085451Y0149813D01*
X0085395Y0149853D01*
X0085341Y0149895D01*
X0085290Y0149941D01*
X0085241Y0149990D01*
X0085195Y0150041D01*
X0085153Y0150095D01*
X0085113Y0150151D01*
X0085077Y0150209D01*
X0085045Y0150270D01*
X0085016Y0150332D01*
X0084990Y0150396D01*
X0084969Y0150461D01*
X0084951Y0150528D01*
X0084937Y0150595D01*
X0084927Y0150663D01*
X0084921Y0150731D01*
X0084919Y0150800D01*
X0099219Y0140400D02*
X0099221Y0140469D01*
X0099227Y0140537D01*
X0099237Y0140605D01*
X0099251Y0140672D01*
X0099269Y0140739D01*
X0099290Y0140804D01*
X0099316Y0140868D01*
X0099345Y0140930D01*
X0099377Y0140990D01*
X0099413Y0141049D01*
X0099453Y0141105D01*
X0099495Y0141159D01*
X0099541Y0141210D01*
X0099590Y0141259D01*
X0099641Y0141305D01*
X0099695Y0141347D01*
X0099751Y0141387D01*
X0099809Y0141423D01*
X0099870Y0141455D01*
X0099932Y0141484D01*
X0099996Y0141510D01*
X0100061Y0141531D01*
X0100128Y0141549D01*
X0100195Y0141563D01*
X0100263Y0141573D01*
X0100331Y0141579D01*
X0100400Y0141581D01*
X0100469Y0141579D01*
X0100537Y0141573D01*
X0100605Y0141563D01*
X0100672Y0141549D01*
X0100739Y0141531D01*
X0100804Y0141510D01*
X0100868Y0141484D01*
X0100930Y0141455D01*
X0100990Y0141423D01*
X0101049Y0141387D01*
X0101105Y0141347D01*
X0101159Y0141305D01*
X0101210Y0141259D01*
X0101259Y0141210D01*
X0101305Y0141159D01*
X0101347Y0141105D01*
X0101387Y0141049D01*
X0101423Y0140990D01*
X0101455Y0140930D01*
X0101484Y0140868D01*
X0101510Y0140804D01*
X0101531Y0140739D01*
X0101549Y0140672D01*
X0101563Y0140605D01*
X0101573Y0140537D01*
X0101579Y0140469D01*
X0101581Y0140400D01*
X0101579Y0140331D01*
X0101573Y0140263D01*
X0101563Y0140195D01*
X0101549Y0140128D01*
X0101531Y0140061D01*
X0101510Y0139996D01*
X0101484Y0139932D01*
X0101455Y0139870D01*
X0101423Y0139809D01*
X0101387Y0139751D01*
X0101347Y0139695D01*
X0101305Y0139641D01*
X0101259Y0139590D01*
X0101210Y0139541D01*
X0101159Y0139495D01*
X0101105Y0139453D01*
X0101049Y0139413D01*
X0100991Y0139377D01*
X0100930Y0139345D01*
X0100868Y0139316D01*
X0100804Y0139290D01*
X0100739Y0139269D01*
X0100672Y0139251D01*
X0100605Y0139237D01*
X0100537Y0139227D01*
X0100469Y0139221D01*
X0100400Y0139219D01*
X0100331Y0139221D01*
X0100263Y0139227D01*
X0100195Y0139237D01*
X0100128Y0139251D01*
X0100061Y0139269D01*
X0099996Y0139290D01*
X0099932Y0139316D01*
X0099870Y0139345D01*
X0099809Y0139377D01*
X0099751Y0139413D01*
X0099695Y0139453D01*
X0099641Y0139495D01*
X0099590Y0139541D01*
X0099541Y0139590D01*
X0099495Y0139641D01*
X0099453Y0139695D01*
X0099413Y0139751D01*
X0099377Y0139809D01*
X0099345Y0139870D01*
X0099316Y0139932D01*
X0099290Y0139996D01*
X0099269Y0140061D01*
X0099251Y0140128D01*
X0099237Y0140195D01*
X0099227Y0140263D01*
X0099221Y0140331D01*
X0099219Y0140400D01*
X0104319Y0129000D02*
X0104321Y0129069D01*
X0104327Y0129137D01*
X0104337Y0129205D01*
X0104351Y0129272D01*
X0104369Y0129339D01*
X0104390Y0129404D01*
X0104416Y0129468D01*
X0104445Y0129530D01*
X0104477Y0129590D01*
X0104513Y0129649D01*
X0104553Y0129705D01*
X0104595Y0129759D01*
X0104641Y0129810D01*
X0104690Y0129859D01*
X0104741Y0129905D01*
X0104795Y0129947D01*
X0104851Y0129987D01*
X0104909Y0130023D01*
X0104970Y0130055D01*
X0105032Y0130084D01*
X0105096Y0130110D01*
X0105161Y0130131D01*
X0105228Y0130149D01*
X0105295Y0130163D01*
X0105363Y0130173D01*
X0105431Y0130179D01*
X0105500Y0130181D01*
X0105569Y0130179D01*
X0105637Y0130173D01*
X0105705Y0130163D01*
X0105772Y0130149D01*
X0105839Y0130131D01*
X0105904Y0130110D01*
X0105968Y0130084D01*
X0106030Y0130055D01*
X0106090Y0130023D01*
X0106149Y0129987D01*
X0106205Y0129947D01*
X0106259Y0129905D01*
X0106310Y0129859D01*
X0106359Y0129810D01*
X0106405Y0129759D01*
X0106447Y0129705D01*
X0106487Y0129649D01*
X0106523Y0129590D01*
X0106555Y0129530D01*
X0106584Y0129468D01*
X0106610Y0129404D01*
X0106631Y0129339D01*
X0106649Y0129272D01*
X0106663Y0129205D01*
X0106673Y0129137D01*
X0106679Y0129069D01*
X0106681Y0129000D01*
X0106679Y0128931D01*
X0106673Y0128863D01*
X0106663Y0128795D01*
X0106649Y0128728D01*
X0106631Y0128661D01*
X0106610Y0128596D01*
X0106584Y0128532D01*
X0106555Y0128470D01*
X0106523Y0128409D01*
X0106487Y0128351D01*
X0106447Y0128295D01*
X0106405Y0128241D01*
X0106359Y0128190D01*
X0106310Y0128141D01*
X0106259Y0128095D01*
X0106205Y0128053D01*
X0106149Y0128013D01*
X0106091Y0127977D01*
X0106030Y0127945D01*
X0105968Y0127916D01*
X0105904Y0127890D01*
X0105839Y0127869D01*
X0105772Y0127851D01*
X0105705Y0127837D01*
X0105637Y0127827D01*
X0105569Y0127821D01*
X0105500Y0127819D01*
X0105431Y0127821D01*
X0105363Y0127827D01*
X0105295Y0127837D01*
X0105228Y0127851D01*
X0105161Y0127869D01*
X0105096Y0127890D01*
X0105032Y0127916D01*
X0104970Y0127945D01*
X0104909Y0127977D01*
X0104851Y0128013D01*
X0104795Y0128053D01*
X0104741Y0128095D01*
X0104690Y0128141D01*
X0104641Y0128190D01*
X0104595Y0128241D01*
X0104553Y0128295D01*
X0104513Y0128351D01*
X0104477Y0128409D01*
X0104445Y0128470D01*
X0104416Y0128532D01*
X0104390Y0128596D01*
X0104369Y0128661D01*
X0104351Y0128728D01*
X0104337Y0128795D01*
X0104327Y0128863D01*
X0104321Y0128931D01*
X0104319Y0129000D01*
X0107819Y0122000D02*
X0107821Y0122069D01*
X0107827Y0122137D01*
X0107837Y0122205D01*
X0107851Y0122272D01*
X0107869Y0122339D01*
X0107890Y0122404D01*
X0107916Y0122468D01*
X0107945Y0122530D01*
X0107977Y0122590D01*
X0108013Y0122649D01*
X0108053Y0122705D01*
X0108095Y0122759D01*
X0108141Y0122810D01*
X0108190Y0122859D01*
X0108241Y0122905D01*
X0108295Y0122947D01*
X0108351Y0122987D01*
X0108409Y0123023D01*
X0108470Y0123055D01*
X0108532Y0123084D01*
X0108596Y0123110D01*
X0108661Y0123131D01*
X0108728Y0123149D01*
X0108795Y0123163D01*
X0108863Y0123173D01*
X0108931Y0123179D01*
X0109000Y0123181D01*
X0109069Y0123179D01*
X0109137Y0123173D01*
X0109205Y0123163D01*
X0109272Y0123149D01*
X0109339Y0123131D01*
X0109404Y0123110D01*
X0109468Y0123084D01*
X0109530Y0123055D01*
X0109590Y0123023D01*
X0109649Y0122987D01*
X0109705Y0122947D01*
X0109759Y0122905D01*
X0109810Y0122859D01*
X0109859Y0122810D01*
X0109905Y0122759D01*
X0109947Y0122705D01*
X0109987Y0122649D01*
X0110023Y0122590D01*
X0110055Y0122530D01*
X0110084Y0122468D01*
X0110110Y0122404D01*
X0110131Y0122339D01*
X0110149Y0122272D01*
X0110163Y0122205D01*
X0110173Y0122137D01*
X0110179Y0122069D01*
X0110181Y0122000D01*
X0110179Y0121931D01*
X0110173Y0121863D01*
X0110163Y0121795D01*
X0110149Y0121728D01*
X0110131Y0121661D01*
X0110110Y0121596D01*
X0110084Y0121532D01*
X0110055Y0121470D01*
X0110023Y0121409D01*
X0109987Y0121351D01*
X0109947Y0121295D01*
X0109905Y0121241D01*
X0109859Y0121190D01*
X0109810Y0121141D01*
X0109759Y0121095D01*
X0109705Y0121053D01*
X0109649Y0121013D01*
X0109591Y0120977D01*
X0109530Y0120945D01*
X0109468Y0120916D01*
X0109404Y0120890D01*
X0109339Y0120869D01*
X0109272Y0120851D01*
X0109205Y0120837D01*
X0109137Y0120827D01*
X0109069Y0120821D01*
X0109000Y0120819D01*
X0108931Y0120821D01*
X0108863Y0120827D01*
X0108795Y0120837D01*
X0108728Y0120851D01*
X0108661Y0120869D01*
X0108596Y0120890D01*
X0108532Y0120916D01*
X0108470Y0120945D01*
X0108409Y0120977D01*
X0108351Y0121013D01*
X0108295Y0121053D01*
X0108241Y0121095D01*
X0108190Y0121141D01*
X0108141Y0121190D01*
X0108095Y0121241D01*
X0108053Y0121295D01*
X0108013Y0121351D01*
X0107977Y0121409D01*
X0107945Y0121470D01*
X0107916Y0121532D01*
X0107890Y0121596D01*
X0107869Y0121661D01*
X0107851Y0121728D01*
X0107837Y0121795D01*
X0107827Y0121863D01*
X0107821Y0121931D01*
X0107819Y0122000D01*
X0107819Y0109000D02*
X0107821Y0109069D01*
X0107827Y0109137D01*
X0107837Y0109205D01*
X0107851Y0109272D01*
X0107869Y0109339D01*
X0107890Y0109404D01*
X0107916Y0109468D01*
X0107945Y0109530D01*
X0107977Y0109590D01*
X0108013Y0109649D01*
X0108053Y0109705D01*
X0108095Y0109759D01*
X0108141Y0109810D01*
X0108190Y0109859D01*
X0108241Y0109905D01*
X0108295Y0109947D01*
X0108351Y0109987D01*
X0108409Y0110023D01*
X0108470Y0110055D01*
X0108532Y0110084D01*
X0108596Y0110110D01*
X0108661Y0110131D01*
X0108728Y0110149D01*
X0108795Y0110163D01*
X0108863Y0110173D01*
X0108931Y0110179D01*
X0109000Y0110181D01*
X0109069Y0110179D01*
X0109137Y0110173D01*
X0109205Y0110163D01*
X0109272Y0110149D01*
X0109339Y0110131D01*
X0109404Y0110110D01*
X0109468Y0110084D01*
X0109530Y0110055D01*
X0109590Y0110023D01*
X0109649Y0109987D01*
X0109705Y0109947D01*
X0109759Y0109905D01*
X0109810Y0109859D01*
X0109859Y0109810D01*
X0109905Y0109759D01*
X0109947Y0109705D01*
X0109987Y0109649D01*
X0110023Y0109590D01*
X0110055Y0109530D01*
X0110084Y0109468D01*
X0110110Y0109404D01*
X0110131Y0109339D01*
X0110149Y0109272D01*
X0110163Y0109205D01*
X0110173Y0109137D01*
X0110179Y0109069D01*
X0110181Y0109000D01*
X0110179Y0108931D01*
X0110173Y0108863D01*
X0110163Y0108795D01*
X0110149Y0108728D01*
X0110131Y0108661D01*
X0110110Y0108596D01*
X0110084Y0108532D01*
X0110055Y0108470D01*
X0110023Y0108409D01*
X0109987Y0108351D01*
X0109947Y0108295D01*
X0109905Y0108241D01*
X0109859Y0108190D01*
X0109810Y0108141D01*
X0109759Y0108095D01*
X0109705Y0108053D01*
X0109649Y0108013D01*
X0109591Y0107977D01*
X0109530Y0107945D01*
X0109468Y0107916D01*
X0109404Y0107890D01*
X0109339Y0107869D01*
X0109272Y0107851D01*
X0109205Y0107837D01*
X0109137Y0107827D01*
X0109069Y0107821D01*
X0109000Y0107819D01*
X0108931Y0107821D01*
X0108863Y0107827D01*
X0108795Y0107837D01*
X0108728Y0107851D01*
X0108661Y0107869D01*
X0108596Y0107890D01*
X0108532Y0107916D01*
X0108470Y0107945D01*
X0108409Y0107977D01*
X0108351Y0108013D01*
X0108295Y0108053D01*
X0108241Y0108095D01*
X0108190Y0108141D01*
X0108141Y0108190D01*
X0108095Y0108241D01*
X0108053Y0108295D01*
X0108013Y0108351D01*
X0107977Y0108409D01*
X0107945Y0108470D01*
X0107916Y0108532D01*
X0107890Y0108596D01*
X0107869Y0108661D01*
X0107851Y0108728D01*
X0107837Y0108795D01*
X0107827Y0108863D01*
X0107821Y0108931D01*
X0107819Y0109000D01*
X0107819Y0096000D02*
X0107821Y0096069D01*
X0107827Y0096137D01*
X0107837Y0096205D01*
X0107851Y0096272D01*
X0107869Y0096339D01*
X0107890Y0096404D01*
X0107916Y0096468D01*
X0107945Y0096530D01*
X0107977Y0096590D01*
X0108013Y0096649D01*
X0108053Y0096705D01*
X0108095Y0096759D01*
X0108141Y0096810D01*
X0108190Y0096859D01*
X0108241Y0096905D01*
X0108295Y0096947D01*
X0108351Y0096987D01*
X0108409Y0097023D01*
X0108470Y0097055D01*
X0108532Y0097084D01*
X0108596Y0097110D01*
X0108661Y0097131D01*
X0108728Y0097149D01*
X0108795Y0097163D01*
X0108863Y0097173D01*
X0108931Y0097179D01*
X0109000Y0097181D01*
X0109069Y0097179D01*
X0109137Y0097173D01*
X0109205Y0097163D01*
X0109272Y0097149D01*
X0109339Y0097131D01*
X0109404Y0097110D01*
X0109468Y0097084D01*
X0109530Y0097055D01*
X0109590Y0097023D01*
X0109649Y0096987D01*
X0109705Y0096947D01*
X0109759Y0096905D01*
X0109810Y0096859D01*
X0109859Y0096810D01*
X0109905Y0096759D01*
X0109947Y0096705D01*
X0109987Y0096649D01*
X0110023Y0096590D01*
X0110055Y0096530D01*
X0110084Y0096468D01*
X0110110Y0096404D01*
X0110131Y0096339D01*
X0110149Y0096272D01*
X0110163Y0096205D01*
X0110173Y0096137D01*
X0110179Y0096069D01*
X0110181Y0096000D01*
X0110179Y0095931D01*
X0110173Y0095863D01*
X0110163Y0095795D01*
X0110149Y0095728D01*
X0110131Y0095661D01*
X0110110Y0095596D01*
X0110084Y0095532D01*
X0110055Y0095470D01*
X0110023Y0095409D01*
X0109987Y0095351D01*
X0109947Y0095295D01*
X0109905Y0095241D01*
X0109859Y0095190D01*
X0109810Y0095141D01*
X0109759Y0095095D01*
X0109705Y0095053D01*
X0109649Y0095013D01*
X0109591Y0094977D01*
X0109530Y0094945D01*
X0109468Y0094916D01*
X0109404Y0094890D01*
X0109339Y0094869D01*
X0109272Y0094851D01*
X0109205Y0094837D01*
X0109137Y0094827D01*
X0109069Y0094821D01*
X0109000Y0094819D01*
X0108931Y0094821D01*
X0108863Y0094827D01*
X0108795Y0094837D01*
X0108728Y0094851D01*
X0108661Y0094869D01*
X0108596Y0094890D01*
X0108532Y0094916D01*
X0108470Y0094945D01*
X0108409Y0094977D01*
X0108351Y0095013D01*
X0108295Y0095053D01*
X0108241Y0095095D01*
X0108190Y0095141D01*
X0108141Y0095190D01*
X0108095Y0095241D01*
X0108053Y0095295D01*
X0108013Y0095351D01*
X0107977Y0095409D01*
X0107945Y0095470D01*
X0107916Y0095532D01*
X0107890Y0095596D01*
X0107869Y0095661D01*
X0107851Y0095728D01*
X0107837Y0095795D01*
X0107827Y0095863D01*
X0107821Y0095931D01*
X0107819Y0096000D01*
X0099819Y0084000D02*
X0099821Y0084069D01*
X0099827Y0084137D01*
X0099837Y0084205D01*
X0099851Y0084272D01*
X0099869Y0084339D01*
X0099890Y0084404D01*
X0099916Y0084468D01*
X0099945Y0084530D01*
X0099977Y0084590D01*
X0100013Y0084649D01*
X0100053Y0084705D01*
X0100095Y0084759D01*
X0100141Y0084810D01*
X0100190Y0084859D01*
X0100241Y0084905D01*
X0100295Y0084947D01*
X0100351Y0084987D01*
X0100409Y0085023D01*
X0100470Y0085055D01*
X0100532Y0085084D01*
X0100596Y0085110D01*
X0100661Y0085131D01*
X0100728Y0085149D01*
X0100795Y0085163D01*
X0100863Y0085173D01*
X0100931Y0085179D01*
X0101000Y0085181D01*
X0101069Y0085179D01*
X0101137Y0085173D01*
X0101205Y0085163D01*
X0101272Y0085149D01*
X0101339Y0085131D01*
X0101404Y0085110D01*
X0101468Y0085084D01*
X0101530Y0085055D01*
X0101590Y0085023D01*
X0101649Y0084987D01*
X0101705Y0084947D01*
X0101759Y0084905D01*
X0101810Y0084859D01*
X0101859Y0084810D01*
X0101905Y0084759D01*
X0101947Y0084705D01*
X0101987Y0084649D01*
X0102023Y0084590D01*
X0102055Y0084530D01*
X0102084Y0084468D01*
X0102110Y0084404D01*
X0102131Y0084339D01*
X0102149Y0084272D01*
X0102163Y0084205D01*
X0102173Y0084137D01*
X0102179Y0084069D01*
X0102181Y0084000D01*
X0102179Y0083931D01*
X0102173Y0083863D01*
X0102163Y0083795D01*
X0102149Y0083728D01*
X0102131Y0083661D01*
X0102110Y0083596D01*
X0102084Y0083532D01*
X0102055Y0083470D01*
X0102023Y0083409D01*
X0101987Y0083351D01*
X0101947Y0083295D01*
X0101905Y0083241D01*
X0101859Y0083190D01*
X0101810Y0083141D01*
X0101759Y0083095D01*
X0101705Y0083053D01*
X0101649Y0083013D01*
X0101591Y0082977D01*
X0101530Y0082945D01*
X0101468Y0082916D01*
X0101404Y0082890D01*
X0101339Y0082869D01*
X0101272Y0082851D01*
X0101205Y0082837D01*
X0101137Y0082827D01*
X0101069Y0082821D01*
X0101000Y0082819D01*
X0100931Y0082821D01*
X0100863Y0082827D01*
X0100795Y0082837D01*
X0100728Y0082851D01*
X0100661Y0082869D01*
X0100596Y0082890D01*
X0100532Y0082916D01*
X0100470Y0082945D01*
X0100409Y0082977D01*
X0100351Y0083013D01*
X0100295Y0083053D01*
X0100241Y0083095D01*
X0100190Y0083141D01*
X0100141Y0083190D01*
X0100095Y0083241D01*
X0100053Y0083295D01*
X0100013Y0083351D01*
X0099977Y0083409D01*
X0099945Y0083470D01*
X0099916Y0083532D01*
X0099890Y0083596D01*
X0099869Y0083661D01*
X0099851Y0083728D01*
X0099837Y0083795D01*
X0099827Y0083863D01*
X0099821Y0083931D01*
X0099819Y0084000D01*
X0099819Y0077000D02*
X0099821Y0077069D01*
X0099827Y0077137D01*
X0099837Y0077205D01*
X0099851Y0077272D01*
X0099869Y0077339D01*
X0099890Y0077404D01*
X0099916Y0077468D01*
X0099945Y0077530D01*
X0099977Y0077590D01*
X0100013Y0077649D01*
X0100053Y0077705D01*
X0100095Y0077759D01*
X0100141Y0077810D01*
X0100190Y0077859D01*
X0100241Y0077905D01*
X0100295Y0077947D01*
X0100351Y0077987D01*
X0100409Y0078023D01*
X0100470Y0078055D01*
X0100532Y0078084D01*
X0100596Y0078110D01*
X0100661Y0078131D01*
X0100728Y0078149D01*
X0100795Y0078163D01*
X0100863Y0078173D01*
X0100931Y0078179D01*
X0101000Y0078181D01*
X0101069Y0078179D01*
X0101137Y0078173D01*
X0101205Y0078163D01*
X0101272Y0078149D01*
X0101339Y0078131D01*
X0101404Y0078110D01*
X0101468Y0078084D01*
X0101530Y0078055D01*
X0101590Y0078023D01*
X0101649Y0077987D01*
X0101705Y0077947D01*
X0101759Y0077905D01*
X0101810Y0077859D01*
X0101859Y0077810D01*
X0101905Y0077759D01*
X0101947Y0077705D01*
X0101987Y0077649D01*
X0102023Y0077590D01*
X0102055Y0077530D01*
X0102084Y0077468D01*
X0102110Y0077404D01*
X0102131Y0077339D01*
X0102149Y0077272D01*
X0102163Y0077205D01*
X0102173Y0077137D01*
X0102179Y0077069D01*
X0102181Y0077000D01*
X0102179Y0076931D01*
X0102173Y0076863D01*
X0102163Y0076795D01*
X0102149Y0076728D01*
X0102131Y0076661D01*
X0102110Y0076596D01*
X0102084Y0076532D01*
X0102055Y0076470D01*
X0102023Y0076409D01*
X0101987Y0076351D01*
X0101947Y0076295D01*
X0101905Y0076241D01*
X0101859Y0076190D01*
X0101810Y0076141D01*
X0101759Y0076095D01*
X0101705Y0076053D01*
X0101649Y0076013D01*
X0101591Y0075977D01*
X0101530Y0075945D01*
X0101468Y0075916D01*
X0101404Y0075890D01*
X0101339Y0075869D01*
X0101272Y0075851D01*
X0101205Y0075837D01*
X0101137Y0075827D01*
X0101069Y0075821D01*
X0101000Y0075819D01*
X0100931Y0075821D01*
X0100863Y0075827D01*
X0100795Y0075837D01*
X0100728Y0075851D01*
X0100661Y0075869D01*
X0100596Y0075890D01*
X0100532Y0075916D01*
X0100470Y0075945D01*
X0100409Y0075977D01*
X0100351Y0076013D01*
X0100295Y0076053D01*
X0100241Y0076095D01*
X0100190Y0076141D01*
X0100141Y0076190D01*
X0100095Y0076241D01*
X0100053Y0076295D01*
X0100013Y0076351D01*
X0099977Y0076409D01*
X0099945Y0076470D01*
X0099916Y0076532D01*
X0099890Y0076596D01*
X0099869Y0076661D01*
X0099851Y0076728D01*
X0099837Y0076795D01*
X0099827Y0076863D01*
X0099821Y0076931D01*
X0099819Y0077000D01*
X0107819Y0066000D02*
X0107821Y0066069D01*
X0107827Y0066137D01*
X0107837Y0066205D01*
X0107851Y0066272D01*
X0107869Y0066339D01*
X0107890Y0066404D01*
X0107916Y0066468D01*
X0107945Y0066530D01*
X0107977Y0066590D01*
X0108013Y0066649D01*
X0108053Y0066705D01*
X0108095Y0066759D01*
X0108141Y0066810D01*
X0108190Y0066859D01*
X0108241Y0066905D01*
X0108295Y0066947D01*
X0108351Y0066987D01*
X0108409Y0067023D01*
X0108470Y0067055D01*
X0108532Y0067084D01*
X0108596Y0067110D01*
X0108661Y0067131D01*
X0108728Y0067149D01*
X0108795Y0067163D01*
X0108863Y0067173D01*
X0108931Y0067179D01*
X0109000Y0067181D01*
X0109069Y0067179D01*
X0109137Y0067173D01*
X0109205Y0067163D01*
X0109272Y0067149D01*
X0109339Y0067131D01*
X0109404Y0067110D01*
X0109468Y0067084D01*
X0109530Y0067055D01*
X0109590Y0067023D01*
X0109649Y0066987D01*
X0109705Y0066947D01*
X0109759Y0066905D01*
X0109810Y0066859D01*
X0109859Y0066810D01*
X0109905Y0066759D01*
X0109947Y0066705D01*
X0109987Y0066649D01*
X0110023Y0066590D01*
X0110055Y0066530D01*
X0110084Y0066468D01*
X0110110Y0066404D01*
X0110131Y0066339D01*
X0110149Y0066272D01*
X0110163Y0066205D01*
X0110173Y0066137D01*
X0110179Y0066069D01*
X0110181Y0066000D01*
X0110179Y0065931D01*
X0110173Y0065863D01*
X0110163Y0065795D01*
X0110149Y0065728D01*
X0110131Y0065661D01*
X0110110Y0065596D01*
X0110084Y0065532D01*
X0110055Y0065470D01*
X0110023Y0065409D01*
X0109987Y0065351D01*
X0109947Y0065295D01*
X0109905Y0065241D01*
X0109859Y0065190D01*
X0109810Y0065141D01*
X0109759Y0065095D01*
X0109705Y0065053D01*
X0109649Y0065013D01*
X0109591Y0064977D01*
X0109530Y0064945D01*
X0109468Y0064916D01*
X0109404Y0064890D01*
X0109339Y0064869D01*
X0109272Y0064851D01*
X0109205Y0064837D01*
X0109137Y0064827D01*
X0109069Y0064821D01*
X0109000Y0064819D01*
X0108931Y0064821D01*
X0108863Y0064827D01*
X0108795Y0064837D01*
X0108728Y0064851D01*
X0108661Y0064869D01*
X0108596Y0064890D01*
X0108532Y0064916D01*
X0108470Y0064945D01*
X0108409Y0064977D01*
X0108351Y0065013D01*
X0108295Y0065053D01*
X0108241Y0065095D01*
X0108190Y0065141D01*
X0108141Y0065190D01*
X0108095Y0065241D01*
X0108053Y0065295D01*
X0108013Y0065351D01*
X0107977Y0065409D01*
X0107945Y0065470D01*
X0107916Y0065532D01*
X0107890Y0065596D01*
X0107869Y0065661D01*
X0107851Y0065728D01*
X0107837Y0065795D01*
X0107827Y0065863D01*
X0107821Y0065931D01*
X0107819Y0066000D01*
X0107819Y0053000D02*
X0107821Y0053069D01*
X0107827Y0053137D01*
X0107837Y0053205D01*
X0107851Y0053272D01*
X0107869Y0053339D01*
X0107890Y0053404D01*
X0107916Y0053468D01*
X0107945Y0053530D01*
X0107977Y0053590D01*
X0108013Y0053649D01*
X0108053Y0053705D01*
X0108095Y0053759D01*
X0108141Y0053810D01*
X0108190Y0053859D01*
X0108241Y0053905D01*
X0108295Y0053947D01*
X0108351Y0053987D01*
X0108409Y0054023D01*
X0108470Y0054055D01*
X0108532Y0054084D01*
X0108596Y0054110D01*
X0108661Y0054131D01*
X0108728Y0054149D01*
X0108795Y0054163D01*
X0108863Y0054173D01*
X0108931Y0054179D01*
X0109000Y0054181D01*
X0109069Y0054179D01*
X0109137Y0054173D01*
X0109205Y0054163D01*
X0109272Y0054149D01*
X0109339Y0054131D01*
X0109404Y0054110D01*
X0109468Y0054084D01*
X0109530Y0054055D01*
X0109590Y0054023D01*
X0109649Y0053987D01*
X0109705Y0053947D01*
X0109759Y0053905D01*
X0109810Y0053859D01*
X0109859Y0053810D01*
X0109905Y0053759D01*
X0109947Y0053705D01*
X0109987Y0053649D01*
X0110023Y0053590D01*
X0110055Y0053530D01*
X0110084Y0053468D01*
X0110110Y0053404D01*
X0110131Y0053339D01*
X0110149Y0053272D01*
X0110163Y0053205D01*
X0110173Y0053137D01*
X0110179Y0053069D01*
X0110181Y0053000D01*
X0110179Y0052931D01*
X0110173Y0052863D01*
X0110163Y0052795D01*
X0110149Y0052728D01*
X0110131Y0052661D01*
X0110110Y0052596D01*
X0110084Y0052532D01*
X0110055Y0052470D01*
X0110023Y0052409D01*
X0109987Y0052351D01*
X0109947Y0052295D01*
X0109905Y0052241D01*
X0109859Y0052190D01*
X0109810Y0052141D01*
X0109759Y0052095D01*
X0109705Y0052053D01*
X0109649Y0052013D01*
X0109591Y0051977D01*
X0109530Y0051945D01*
X0109468Y0051916D01*
X0109404Y0051890D01*
X0109339Y0051869D01*
X0109272Y0051851D01*
X0109205Y0051837D01*
X0109137Y0051827D01*
X0109069Y0051821D01*
X0109000Y0051819D01*
X0108931Y0051821D01*
X0108863Y0051827D01*
X0108795Y0051837D01*
X0108728Y0051851D01*
X0108661Y0051869D01*
X0108596Y0051890D01*
X0108532Y0051916D01*
X0108470Y0051945D01*
X0108409Y0051977D01*
X0108351Y0052013D01*
X0108295Y0052053D01*
X0108241Y0052095D01*
X0108190Y0052141D01*
X0108141Y0052190D01*
X0108095Y0052241D01*
X0108053Y0052295D01*
X0108013Y0052351D01*
X0107977Y0052409D01*
X0107945Y0052470D01*
X0107916Y0052532D01*
X0107890Y0052596D01*
X0107869Y0052661D01*
X0107851Y0052728D01*
X0107837Y0052795D01*
X0107827Y0052863D01*
X0107821Y0052931D01*
X0107819Y0053000D01*
X0107819Y0040000D02*
X0107821Y0040069D01*
X0107827Y0040137D01*
X0107837Y0040205D01*
X0107851Y0040272D01*
X0107869Y0040339D01*
X0107890Y0040404D01*
X0107916Y0040468D01*
X0107945Y0040530D01*
X0107977Y0040590D01*
X0108013Y0040649D01*
X0108053Y0040705D01*
X0108095Y0040759D01*
X0108141Y0040810D01*
X0108190Y0040859D01*
X0108241Y0040905D01*
X0108295Y0040947D01*
X0108351Y0040987D01*
X0108409Y0041023D01*
X0108470Y0041055D01*
X0108532Y0041084D01*
X0108596Y0041110D01*
X0108661Y0041131D01*
X0108728Y0041149D01*
X0108795Y0041163D01*
X0108863Y0041173D01*
X0108931Y0041179D01*
X0109000Y0041181D01*
X0109069Y0041179D01*
X0109137Y0041173D01*
X0109205Y0041163D01*
X0109272Y0041149D01*
X0109339Y0041131D01*
X0109404Y0041110D01*
X0109468Y0041084D01*
X0109530Y0041055D01*
X0109590Y0041023D01*
X0109649Y0040987D01*
X0109705Y0040947D01*
X0109759Y0040905D01*
X0109810Y0040859D01*
X0109859Y0040810D01*
X0109905Y0040759D01*
X0109947Y0040705D01*
X0109987Y0040649D01*
X0110023Y0040590D01*
X0110055Y0040530D01*
X0110084Y0040468D01*
X0110110Y0040404D01*
X0110131Y0040339D01*
X0110149Y0040272D01*
X0110163Y0040205D01*
X0110173Y0040137D01*
X0110179Y0040069D01*
X0110181Y0040000D01*
X0110179Y0039931D01*
X0110173Y0039863D01*
X0110163Y0039795D01*
X0110149Y0039728D01*
X0110131Y0039661D01*
X0110110Y0039596D01*
X0110084Y0039532D01*
X0110055Y0039470D01*
X0110023Y0039409D01*
X0109987Y0039351D01*
X0109947Y0039295D01*
X0109905Y0039241D01*
X0109859Y0039190D01*
X0109810Y0039141D01*
X0109759Y0039095D01*
X0109705Y0039053D01*
X0109649Y0039013D01*
X0109591Y0038977D01*
X0109530Y0038945D01*
X0109468Y0038916D01*
X0109404Y0038890D01*
X0109339Y0038869D01*
X0109272Y0038851D01*
X0109205Y0038837D01*
X0109137Y0038827D01*
X0109069Y0038821D01*
X0109000Y0038819D01*
X0108931Y0038821D01*
X0108863Y0038827D01*
X0108795Y0038837D01*
X0108728Y0038851D01*
X0108661Y0038869D01*
X0108596Y0038890D01*
X0108532Y0038916D01*
X0108470Y0038945D01*
X0108409Y0038977D01*
X0108351Y0039013D01*
X0108295Y0039053D01*
X0108241Y0039095D01*
X0108190Y0039141D01*
X0108141Y0039190D01*
X0108095Y0039241D01*
X0108053Y0039295D01*
X0108013Y0039351D01*
X0107977Y0039409D01*
X0107945Y0039470D01*
X0107916Y0039532D01*
X0107890Y0039596D01*
X0107869Y0039661D01*
X0107851Y0039728D01*
X0107837Y0039795D01*
X0107827Y0039863D01*
X0107821Y0039931D01*
X0107819Y0040000D01*
X0104319Y0033000D02*
X0104321Y0033069D01*
X0104327Y0033137D01*
X0104337Y0033205D01*
X0104351Y0033272D01*
X0104369Y0033339D01*
X0104390Y0033404D01*
X0104416Y0033468D01*
X0104445Y0033530D01*
X0104477Y0033590D01*
X0104513Y0033649D01*
X0104553Y0033705D01*
X0104595Y0033759D01*
X0104641Y0033810D01*
X0104690Y0033859D01*
X0104741Y0033905D01*
X0104795Y0033947D01*
X0104851Y0033987D01*
X0104909Y0034023D01*
X0104970Y0034055D01*
X0105032Y0034084D01*
X0105096Y0034110D01*
X0105161Y0034131D01*
X0105228Y0034149D01*
X0105295Y0034163D01*
X0105363Y0034173D01*
X0105431Y0034179D01*
X0105500Y0034181D01*
X0105569Y0034179D01*
X0105637Y0034173D01*
X0105705Y0034163D01*
X0105772Y0034149D01*
X0105839Y0034131D01*
X0105904Y0034110D01*
X0105968Y0034084D01*
X0106030Y0034055D01*
X0106090Y0034023D01*
X0106149Y0033987D01*
X0106205Y0033947D01*
X0106259Y0033905D01*
X0106310Y0033859D01*
X0106359Y0033810D01*
X0106405Y0033759D01*
X0106447Y0033705D01*
X0106487Y0033649D01*
X0106523Y0033590D01*
X0106555Y0033530D01*
X0106584Y0033468D01*
X0106610Y0033404D01*
X0106631Y0033339D01*
X0106649Y0033272D01*
X0106663Y0033205D01*
X0106673Y0033137D01*
X0106679Y0033069D01*
X0106681Y0033000D01*
X0106679Y0032931D01*
X0106673Y0032863D01*
X0106663Y0032795D01*
X0106649Y0032728D01*
X0106631Y0032661D01*
X0106610Y0032596D01*
X0106584Y0032532D01*
X0106555Y0032470D01*
X0106523Y0032409D01*
X0106487Y0032351D01*
X0106447Y0032295D01*
X0106405Y0032241D01*
X0106359Y0032190D01*
X0106310Y0032141D01*
X0106259Y0032095D01*
X0106205Y0032053D01*
X0106149Y0032013D01*
X0106091Y0031977D01*
X0106030Y0031945D01*
X0105968Y0031916D01*
X0105904Y0031890D01*
X0105839Y0031869D01*
X0105772Y0031851D01*
X0105705Y0031837D01*
X0105637Y0031827D01*
X0105569Y0031821D01*
X0105500Y0031819D01*
X0105431Y0031821D01*
X0105363Y0031827D01*
X0105295Y0031837D01*
X0105228Y0031851D01*
X0105161Y0031869D01*
X0105096Y0031890D01*
X0105032Y0031916D01*
X0104970Y0031945D01*
X0104909Y0031977D01*
X0104851Y0032013D01*
X0104795Y0032053D01*
X0104741Y0032095D01*
X0104690Y0032141D01*
X0104641Y0032190D01*
X0104595Y0032241D01*
X0104553Y0032295D01*
X0104513Y0032351D01*
X0104477Y0032409D01*
X0104445Y0032470D01*
X0104416Y0032532D01*
X0104390Y0032596D01*
X0104369Y0032661D01*
X0104351Y0032728D01*
X0104337Y0032795D01*
X0104327Y0032863D01*
X0104321Y0032931D01*
X0104319Y0033000D01*
X0098219Y0020200D02*
X0098221Y0020269D01*
X0098227Y0020337D01*
X0098237Y0020405D01*
X0098251Y0020472D01*
X0098269Y0020539D01*
X0098290Y0020604D01*
X0098316Y0020668D01*
X0098345Y0020730D01*
X0098377Y0020790D01*
X0098413Y0020849D01*
X0098453Y0020905D01*
X0098495Y0020959D01*
X0098541Y0021010D01*
X0098590Y0021059D01*
X0098641Y0021105D01*
X0098695Y0021147D01*
X0098751Y0021187D01*
X0098809Y0021223D01*
X0098870Y0021255D01*
X0098932Y0021284D01*
X0098996Y0021310D01*
X0099061Y0021331D01*
X0099128Y0021349D01*
X0099195Y0021363D01*
X0099263Y0021373D01*
X0099331Y0021379D01*
X0099400Y0021381D01*
X0099469Y0021379D01*
X0099537Y0021373D01*
X0099605Y0021363D01*
X0099672Y0021349D01*
X0099739Y0021331D01*
X0099804Y0021310D01*
X0099868Y0021284D01*
X0099930Y0021255D01*
X0099990Y0021223D01*
X0100049Y0021187D01*
X0100105Y0021147D01*
X0100159Y0021105D01*
X0100210Y0021059D01*
X0100259Y0021010D01*
X0100305Y0020959D01*
X0100347Y0020905D01*
X0100387Y0020849D01*
X0100423Y0020790D01*
X0100455Y0020730D01*
X0100484Y0020668D01*
X0100510Y0020604D01*
X0100531Y0020539D01*
X0100549Y0020472D01*
X0100563Y0020405D01*
X0100573Y0020337D01*
X0100579Y0020269D01*
X0100581Y0020200D01*
X0100579Y0020131D01*
X0100573Y0020063D01*
X0100563Y0019995D01*
X0100549Y0019928D01*
X0100531Y0019861D01*
X0100510Y0019796D01*
X0100484Y0019732D01*
X0100455Y0019670D01*
X0100423Y0019609D01*
X0100387Y0019551D01*
X0100347Y0019495D01*
X0100305Y0019441D01*
X0100259Y0019390D01*
X0100210Y0019341D01*
X0100159Y0019295D01*
X0100105Y0019253D01*
X0100049Y0019213D01*
X0099991Y0019177D01*
X0099930Y0019145D01*
X0099868Y0019116D01*
X0099804Y0019090D01*
X0099739Y0019069D01*
X0099672Y0019051D01*
X0099605Y0019037D01*
X0099537Y0019027D01*
X0099469Y0019021D01*
X0099400Y0019019D01*
X0099331Y0019021D01*
X0099263Y0019027D01*
X0099195Y0019037D01*
X0099128Y0019051D01*
X0099061Y0019069D01*
X0098996Y0019090D01*
X0098932Y0019116D01*
X0098870Y0019145D01*
X0098809Y0019177D01*
X0098751Y0019213D01*
X0098695Y0019253D01*
X0098641Y0019295D01*
X0098590Y0019341D01*
X0098541Y0019390D01*
X0098495Y0019441D01*
X0098453Y0019495D01*
X0098413Y0019551D01*
X0098377Y0019609D01*
X0098345Y0019670D01*
X0098316Y0019732D01*
X0098290Y0019796D01*
X0098269Y0019861D01*
X0098251Y0019928D01*
X0098237Y0019995D01*
X0098227Y0020063D01*
X0098221Y0020131D01*
X0098219Y0020200D01*
X0084919Y0012600D02*
X0084921Y0012669D01*
X0084927Y0012737D01*
X0084937Y0012805D01*
X0084951Y0012872D01*
X0084969Y0012939D01*
X0084990Y0013004D01*
X0085016Y0013068D01*
X0085045Y0013130D01*
X0085077Y0013190D01*
X0085113Y0013249D01*
X0085153Y0013305D01*
X0085195Y0013359D01*
X0085241Y0013410D01*
X0085290Y0013459D01*
X0085341Y0013505D01*
X0085395Y0013547D01*
X0085451Y0013587D01*
X0085509Y0013623D01*
X0085570Y0013655D01*
X0085632Y0013684D01*
X0085696Y0013710D01*
X0085761Y0013731D01*
X0085828Y0013749D01*
X0085895Y0013763D01*
X0085963Y0013773D01*
X0086031Y0013779D01*
X0086100Y0013781D01*
X0086169Y0013779D01*
X0086237Y0013773D01*
X0086305Y0013763D01*
X0086372Y0013749D01*
X0086439Y0013731D01*
X0086504Y0013710D01*
X0086568Y0013684D01*
X0086630Y0013655D01*
X0086690Y0013623D01*
X0086749Y0013587D01*
X0086805Y0013547D01*
X0086859Y0013505D01*
X0086910Y0013459D01*
X0086959Y0013410D01*
X0087005Y0013359D01*
X0087047Y0013305D01*
X0087087Y0013249D01*
X0087123Y0013190D01*
X0087155Y0013130D01*
X0087184Y0013068D01*
X0087210Y0013004D01*
X0087231Y0012939D01*
X0087249Y0012872D01*
X0087263Y0012805D01*
X0087273Y0012737D01*
X0087279Y0012669D01*
X0087281Y0012600D01*
X0087279Y0012531D01*
X0087273Y0012463D01*
X0087263Y0012395D01*
X0087249Y0012328D01*
X0087231Y0012261D01*
X0087210Y0012196D01*
X0087184Y0012132D01*
X0087155Y0012070D01*
X0087123Y0012009D01*
X0087087Y0011951D01*
X0087047Y0011895D01*
X0087005Y0011841D01*
X0086959Y0011790D01*
X0086910Y0011741D01*
X0086859Y0011695D01*
X0086805Y0011653D01*
X0086749Y0011613D01*
X0086691Y0011577D01*
X0086630Y0011545D01*
X0086568Y0011516D01*
X0086504Y0011490D01*
X0086439Y0011469D01*
X0086372Y0011451D01*
X0086305Y0011437D01*
X0086237Y0011427D01*
X0086169Y0011421D01*
X0086100Y0011419D01*
X0086031Y0011421D01*
X0085963Y0011427D01*
X0085895Y0011437D01*
X0085828Y0011451D01*
X0085761Y0011469D01*
X0085696Y0011490D01*
X0085632Y0011516D01*
X0085570Y0011545D01*
X0085509Y0011577D01*
X0085451Y0011613D01*
X0085395Y0011653D01*
X0085341Y0011695D01*
X0085290Y0011741D01*
X0085241Y0011790D01*
X0085195Y0011841D01*
X0085153Y0011895D01*
X0085113Y0011951D01*
X0085077Y0012009D01*
X0085045Y0012070D01*
X0085016Y0012132D01*
X0084990Y0012196D01*
X0084969Y0012261D01*
X0084951Y0012328D01*
X0084937Y0012395D01*
X0084927Y0012463D01*
X0084921Y0012531D01*
X0084919Y0012600D01*
X0079219Y0012700D02*
X0079221Y0012769D01*
X0079227Y0012837D01*
X0079237Y0012905D01*
X0079251Y0012972D01*
X0079269Y0013039D01*
X0079290Y0013104D01*
X0079316Y0013168D01*
X0079345Y0013230D01*
X0079377Y0013290D01*
X0079413Y0013349D01*
X0079453Y0013405D01*
X0079495Y0013459D01*
X0079541Y0013510D01*
X0079590Y0013559D01*
X0079641Y0013605D01*
X0079695Y0013647D01*
X0079751Y0013687D01*
X0079809Y0013723D01*
X0079870Y0013755D01*
X0079932Y0013784D01*
X0079996Y0013810D01*
X0080061Y0013831D01*
X0080128Y0013849D01*
X0080195Y0013863D01*
X0080263Y0013873D01*
X0080331Y0013879D01*
X0080400Y0013881D01*
X0080469Y0013879D01*
X0080537Y0013873D01*
X0080605Y0013863D01*
X0080672Y0013849D01*
X0080739Y0013831D01*
X0080804Y0013810D01*
X0080868Y0013784D01*
X0080930Y0013755D01*
X0080990Y0013723D01*
X0081049Y0013687D01*
X0081105Y0013647D01*
X0081159Y0013605D01*
X0081210Y0013559D01*
X0081259Y0013510D01*
X0081305Y0013459D01*
X0081347Y0013405D01*
X0081387Y0013349D01*
X0081423Y0013290D01*
X0081455Y0013230D01*
X0081484Y0013168D01*
X0081510Y0013104D01*
X0081531Y0013039D01*
X0081549Y0012972D01*
X0081563Y0012905D01*
X0081573Y0012837D01*
X0081579Y0012769D01*
X0081581Y0012700D01*
X0081579Y0012631D01*
X0081573Y0012563D01*
X0081563Y0012495D01*
X0081549Y0012428D01*
X0081531Y0012361D01*
X0081510Y0012296D01*
X0081484Y0012232D01*
X0081455Y0012170D01*
X0081423Y0012109D01*
X0081387Y0012051D01*
X0081347Y0011995D01*
X0081305Y0011941D01*
X0081259Y0011890D01*
X0081210Y0011841D01*
X0081159Y0011795D01*
X0081105Y0011753D01*
X0081049Y0011713D01*
X0080991Y0011677D01*
X0080930Y0011645D01*
X0080868Y0011616D01*
X0080804Y0011590D01*
X0080739Y0011569D01*
X0080672Y0011551D01*
X0080605Y0011537D01*
X0080537Y0011527D01*
X0080469Y0011521D01*
X0080400Y0011519D01*
X0080331Y0011521D01*
X0080263Y0011527D01*
X0080195Y0011537D01*
X0080128Y0011551D01*
X0080061Y0011569D01*
X0079996Y0011590D01*
X0079932Y0011616D01*
X0079870Y0011645D01*
X0079809Y0011677D01*
X0079751Y0011713D01*
X0079695Y0011753D01*
X0079641Y0011795D01*
X0079590Y0011841D01*
X0079541Y0011890D01*
X0079495Y0011941D01*
X0079453Y0011995D01*
X0079413Y0012051D01*
X0079377Y0012109D01*
X0079345Y0012170D01*
X0079316Y0012232D01*
X0079290Y0012296D01*
X0079269Y0012361D01*
X0079251Y0012428D01*
X0079237Y0012495D01*
X0079227Y0012563D01*
X0079221Y0012631D01*
X0079219Y0012700D01*
X0038419Y0012500D02*
X0038421Y0012569D01*
X0038427Y0012637D01*
X0038437Y0012705D01*
X0038451Y0012772D01*
X0038469Y0012839D01*
X0038490Y0012904D01*
X0038516Y0012968D01*
X0038545Y0013030D01*
X0038577Y0013090D01*
X0038613Y0013149D01*
X0038653Y0013205D01*
X0038695Y0013259D01*
X0038741Y0013310D01*
X0038790Y0013359D01*
X0038841Y0013405D01*
X0038895Y0013447D01*
X0038951Y0013487D01*
X0039009Y0013523D01*
X0039070Y0013555D01*
X0039132Y0013584D01*
X0039196Y0013610D01*
X0039261Y0013631D01*
X0039328Y0013649D01*
X0039395Y0013663D01*
X0039463Y0013673D01*
X0039531Y0013679D01*
X0039600Y0013681D01*
X0039669Y0013679D01*
X0039737Y0013673D01*
X0039805Y0013663D01*
X0039872Y0013649D01*
X0039939Y0013631D01*
X0040004Y0013610D01*
X0040068Y0013584D01*
X0040130Y0013555D01*
X0040190Y0013523D01*
X0040249Y0013487D01*
X0040305Y0013447D01*
X0040359Y0013405D01*
X0040410Y0013359D01*
X0040459Y0013310D01*
X0040505Y0013259D01*
X0040547Y0013205D01*
X0040587Y0013149D01*
X0040623Y0013090D01*
X0040655Y0013030D01*
X0040684Y0012968D01*
X0040710Y0012904D01*
X0040731Y0012839D01*
X0040749Y0012772D01*
X0040763Y0012705D01*
X0040773Y0012637D01*
X0040779Y0012569D01*
X0040781Y0012500D01*
X0040779Y0012431D01*
X0040773Y0012363D01*
X0040763Y0012295D01*
X0040749Y0012228D01*
X0040731Y0012161D01*
X0040710Y0012096D01*
X0040684Y0012032D01*
X0040655Y0011970D01*
X0040623Y0011909D01*
X0040587Y0011851D01*
X0040547Y0011795D01*
X0040505Y0011741D01*
X0040459Y0011690D01*
X0040410Y0011641D01*
X0040359Y0011595D01*
X0040305Y0011553D01*
X0040249Y0011513D01*
X0040191Y0011477D01*
X0040130Y0011445D01*
X0040068Y0011416D01*
X0040004Y0011390D01*
X0039939Y0011369D01*
X0039872Y0011351D01*
X0039805Y0011337D01*
X0039737Y0011327D01*
X0039669Y0011321D01*
X0039600Y0011319D01*
X0039531Y0011321D01*
X0039463Y0011327D01*
X0039395Y0011337D01*
X0039328Y0011351D01*
X0039261Y0011369D01*
X0039196Y0011390D01*
X0039132Y0011416D01*
X0039070Y0011445D01*
X0039009Y0011477D01*
X0038951Y0011513D01*
X0038895Y0011553D01*
X0038841Y0011595D01*
X0038790Y0011641D01*
X0038741Y0011690D01*
X0038695Y0011741D01*
X0038653Y0011795D01*
X0038613Y0011851D01*
X0038577Y0011909D01*
X0038545Y0011970D01*
X0038516Y0012032D01*
X0038490Y0012096D01*
X0038469Y0012161D01*
X0038451Y0012228D01*
X0038437Y0012295D01*
X0038427Y0012363D01*
X0038421Y0012431D01*
X0038419Y0012500D01*
X0032819Y0012500D02*
X0032821Y0012569D01*
X0032827Y0012637D01*
X0032837Y0012705D01*
X0032851Y0012772D01*
X0032869Y0012839D01*
X0032890Y0012904D01*
X0032916Y0012968D01*
X0032945Y0013030D01*
X0032977Y0013090D01*
X0033013Y0013149D01*
X0033053Y0013205D01*
X0033095Y0013259D01*
X0033141Y0013310D01*
X0033190Y0013359D01*
X0033241Y0013405D01*
X0033295Y0013447D01*
X0033351Y0013487D01*
X0033409Y0013523D01*
X0033470Y0013555D01*
X0033532Y0013584D01*
X0033596Y0013610D01*
X0033661Y0013631D01*
X0033728Y0013649D01*
X0033795Y0013663D01*
X0033863Y0013673D01*
X0033931Y0013679D01*
X0034000Y0013681D01*
X0034069Y0013679D01*
X0034137Y0013673D01*
X0034205Y0013663D01*
X0034272Y0013649D01*
X0034339Y0013631D01*
X0034404Y0013610D01*
X0034468Y0013584D01*
X0034530Y0013555D01*
X0034590Y0013523D01*
X0034649Y0013487D01*
X0034705Y0013447D01*
X0034759Y0013405D01*
X0034810Y0013359D01*
X0034859Y0013310D01*
X0034905Y0013259D01*
X0034947Y0013205D01*
X0034987Y0013149D01*
X0035023Y0013090D01*
X0035055Y0013030D01*
X0035084Y0012968D01*
X0035110Y0012904D01*
X0035131Y0012839D01*
X0035149Y0012772D01*
X0035163Y0012705D01*
X0035173Y0012637D01*
X0035179Y0012569D01*
X0035181Y0012500D01*
X0035179Y0012431D01*
X0035173Y0012363D01*
X0035163Y0012295D01*
X0035149Y0012228D01*
X0035131Y0012161D01*
X0035110Y0012096D01*
X0035084Y0012032D01*
X0035055Y0011970D01*
X0035023Y0011909D01*
X0034987Y0011851D01*
X0034947Y0011795D01*
X0034905Y0011741D01*
X0034859Y0011690D01*
X0034810Y0011641D01*
X0034759Y0011595D01*
X0034705Y0011553D01*
X0034649Y0011513D01*
X0034591Y0011477D01*
X0034530Y0011445D01*
X0034468Y0011416D01*
X0034404Y0011390D01*
X0034339Y0011369D01*
X0034272Y0011351D01*
X0034205Y0011337D01*
X0034137Y0011327D01*
X0034069Y0011321D01*
X0034000Y0011319D01*
X0033931Y0011321D01*
X0033863Y0011327D01*
X0033795Y0011337D01*
X0033728Y0011351D01*
X0033661Y0011369D01*
X0033596Y0011390D01*
X0033532Y0011416D01*
X0033470Y0011445D01*
X0033409Y0011477D01*
X0033351Y0011513D01*
X0033295Y0011553D01*
X0033241Y0011595D01*
X0033190Y0011641D01*
X0033141Y0011690D01*
X0033095Y0011741D01*
X0033053Y0011795D01*
X0033013Y0011851D01*
X0032977Y0011909D01*
X0032945Y0011970D01*
X0032916Y0012032D01*
X0032890Y0012096D01*
X0032869Y0012161D01*
X0032851Y0012228D01*
X0032837Y0012295D01*
X0032827Y0012363D01*
X0032821Y0012431D01*
X0032819Y0012500D01*
X0041000Y0081000D02*
X0041002Y0081141D01*
X0041008Y0081282D01*
X0041018Y0081422D01*
X0041032Y0081562D01*
X0041050Y0081702D01*
X0041071Y0081841D01*
X0041097Y0081980D01*
X0041126Y0082118D01*
X0041160Y0082254D01*
X0041197Y0082390D01*
X0041238Y0082525D01*
X0041283Y0082659D01*
X0041332Y0082791D01*
X0041384Y0082922D01*
X0041440Y0083051D01*
X0041500Y0083178D01*
X0041563Y0083304D01*
X0041629Y0083428D01*
X0041700Y0083551D01*
X0041773Y0083671D01*
X0041850Y0083789D01*
X0041930Y0083905D01*
X0042014Y0084018D01*
X0042100Y0084129D01*
X0042190Y0084238D01*
X0042283Y0084344D01*
X0042378Y0084447D01*
X0042477Y0084548D01*
X0042578Y0084646D01*
X0042682Y0084741D01*
X0042789Y0084833D01*
X0042898Y0084922D01*
X0043010Y0085007D01*
X0043124Y0085090D01*
X0043240Y0085170D01*
X0043359Y0085246D01*
X0043480Y0085318D01*
X0043602Y0085388D01*
X0043727Y0085453D01*
X0043853Y0085516D01*
X0043981Y0085574D01*
X0044111Y0085629D01*
X0044242Y0085681D01*
X0044375Y0085728D01*
X0044509Y0085772D01*
X0044644Y0085813D01*
X0044780Y0085849D01*
X0044917Y0085881D01*
X0045055Y0085910D01*
X0045193Y0085935D01*
X0045333Y0085955D01*
X0045473Y0085972D01*
X0045613Y0085985D01*
X0045754Y0085994D01*
X0045894Y0085999D01*
X0046035Y0086000D01*
X0046176Y0085997D01*
X0046317Y0085990D01*
X0046457Y0085979D01*
X0046597Y0085964D01*
X0046737Y0085945D01*
X0046876Y0085923D01*
X0047014Y0085896D01*
X0047152Y0085866D01*
X0047288Y0085831D01*
X0047424Y0085793D01*
X0047558Y0085751D01*
X0047692Y0085705D01*
X0047824Y0085656D01*
X0047954Y0085602D01*
X0048083Y0085545D01*
X0048210Y0085485D01*
X0048336Y0085421D01*
X0048459Y0085353D01*
X0048581Y0085282D01*
X0048701Y0085208D01*
X0048818Y0085130D01*
X0048933Y0085049D01*
X0049046Y0084965D01*
X0049157Y0084878D01*
X0049265Y0084787D01*
X0049370Y0084694D01*
X0049473Y0084597D01*
X0049573Y0084498D01*
X0049670Y0084396D01*
X0049764Y0084291D01*
X0049855Y0084184D01*
X0049943Y0084074D01*
X0050028Y0083962D01*
X0050110Y0083847D01*
X0050189Y0083730D01*
X0050264Y0083611D01*
X0050336Y0083490D01*
X0050404Y0083367D01*
X0050469Y0083242D01*
X0050531Y0083115D01*
X0050588Y0082986D01*
X0050643Y0082856D01*
X0050693Y0082725D01*
X0050740Y0082592D01*
X0050783Y0082458D01*
X0050822Y0082322D01*
X0050857Y0082186D01*
X0050889Y0082049D01*
X0050916Y0081911D01*
X0050940Y0081772D01*
X0050960Y0081632D01*
X0050976Y0081492D01*
X0050988Y0081352D01*
X0050996Y0081211D01*
X0051000Y0081070D01*
X0051000Y0080930D01*
X0050996Y0080789D01*
X0050988Y0080648D01*
X0050976Y0080508D01*
X0050960Y0080368D01*
X0050940Y0080228D01*
X0050916Y0080089D01*
X0050889Y0079951D01*
X0050857Y0079814D01*
X0050822Y0079678D01*
X0050783Y0079542D01*
X0050740Y0079408D01*
X0050693Y0079275D01*
X0050643Y0079144D01*
X0050588Y0079014D01*
X0050531Y0078885D01*
X0050469Y0078758D01*
X0050404Y0078633D01*
X0050336Y0078510D01*
X0050264Y0078389D01*
X0050189Y0078270D01*
X0050110Y0078153D01*
X0050028Y0078038D01*
X0049943Y0077926D01*
X0049855Y0077816D01*
X0049764Y0077709D01*
X0049670Y0077604D01*
X0049573Y0077502D01*
X0049473Y0077403D01*
X0049370Y0077306D01*
X0049265Y0077213D01*
X0049157Y0077122D01*
X0049046Y0077035D01*
X0048933Y0076951D01*
X0048818Y0076870D01*
X0048701Y0076792D01*
X0048581Y0076718D01*
X0048459Y0076647D01*
X0048336Y0076579D01*
X0048210Y0076515D01*
X0048083Y0076455D01*
X0047954Y0076398D01*
X0047824Y0076344D01*
X0047692Y0076295D01*
X0047558Y0076249D01*
X0047424Y0076207D01*
X0047288Y0076169D01*
X0047152Y0076134D01*
X0047014Y0076104D01*
X0046876Y0076077D01*
X0046737Y0076055D01*
X0046597Y0076036D01*
X0046457Y0076021D01*
X0046317Y0076010D01*
X0046176Y0076003D01*
X0046035Y0076000D01*
X0045894Y0076001D01*
X0045754Y0076006D01*
X0045613Y0076015D01*
X0045473Y0076028D01*
X0045333Y0076045D01*
X0045193Y0076065D01*
X0045055Y0076090D01*
X0044917Y0076119D01*
X0044780Y0076151D01*
X0044644Y0076187D01*
X0044509Y0076228D01*
X0044375Y0076272D01*
X0044242Y0076319D01*
X0044111Y0076371D01*
X0043981Y0076426D01*
X0043853Y0076484D01*
X0043727Y0076547D01*
X0043602Y0076612D01*
X0043480Y0076682D01*
X0043359Y0076754D01*
X0043240Y0076830D01*
X0043124Y0076910D01*
X0043010Y0076993D01*
X0042898Y0077078D01*
X0042789Y0077167D01*
X0042682Y0077259D01*
X0042578Y0077354D01*
X0042477Y0077452D01*
X0042378Y0077553D01*
X0042283Y0077656D01*
X0042190Y0077762D01*
X0042100Y0077871D01*
X0042014Y0077982D01*
X0041930Y0078095D01*
X0041850Y0078211D01*
X0041773Y0078329D01*
X0041700Y0078449D01*
X0041629Y0078572D01*
X0041563Y0078696D01*
X0041500Y0078822D01*
X0041440Y0078949D01*
X0041384Y0079078D01*
X0041332Y0079209D01*
X0041283Y0079341D01*
X0041238Y0079475D01*
X0041197Y0079610D01*
X0041160Y0079746D01*
X0041126Y0079882D01*
X0041097Y0080020D01*
X0041071Y0080159D01*
X0041050Y0080298D01*
X0041032Y0080438D01*
X0041018Y0080578D01*
X0041008Y0080718D01*
X0041002Y0080859D01*
X0041000Y0081000D01*
X0069000Y0081000D02*
X0069002Y0081141D01*
X0069008Y0081282D01*
X0069018Y0081422D01*
X0069032Y0081562D01*
X0069050Y0081702D01*
X0069071Y0081841D01*
X0069097Y0081980D01*
X0069126Y0082118D01*
X0069160Y0082254D01*
X0069197Y0082390D01*
X0069238Y0082525D01*
X0069283Y0082659D01*
X0069332Y0082791D01*
X0069384Y0082922D01*
X0069440Y0083051D01*
X0069500Y0083178D01*
X0069563Y0083304D01*
X0069629Y0083428D01*
X0069700Y0083551D01*
X0069773Y0083671D01*
X0069850Y0083789D01*
X0069930Y0083905D01*
X0070014Y0084018D01*
X0070100Y0084129D01*
X0070190Y0084238D01*
X0070283Y0084344D01*
X0070378Y0084447D01*
X0070477Y0084548D01*
X0070578Y0084646D01*
X0070682Y0084741D01*
X0070789Y0084833D01*
X0070898Y0084922D01*
X0071010Y0085007D01*
X0071124Y0085090D01*
X0071240Y0085170D01*
X0071359Y0085246D01*
X0071480Y0085318D01*
X0071602Y0085388D01*
X0071727Y0085453D01*
X0071853Y0085516D01*
X0071981Y0085574D01*
X0072111Y0085629D01*
X0072242Y0085681D01*
X0072375Y0085728D01*
X0072509Y0085772D01*
X0072644Y0085813D01*
X0072780Y0085849D01*
X0072917Y0085881D01*
X0073055Y0085910D01*
X0073193Y0085935D01*
X0073333Y0085955D01*
X0073473Y0085972D01*
X0073613Y0085985D01*
X0073754Y0085994D01*
X0073894Y0085999D01*
X0074035Y0086000D01*
X0074176Y0085997D01*
X0074317Y0085990D01*
X0074457Y0085979D01*
X0074597Y0085964D01*
X0074737Y0085945D01*
X0074876Y0085923D01*
X0075014Y0085896D01*
X0075152Y0085866D01*
X0075288Y0085831D01*
X0075424Y0085793D01*
X0075558Y0085751D01*
X0075692Y0085705D01*
X0075824Y0085656D01*
X0075954Y0085602D01*
X0076083Y0085545D01*
X0076210Y0085485D01*
X0076336Y0085421D01*
X0076459Y0085353D01*
X0076581Y0085282D01*
X0076701Y0085208D01*
X0076818Y0085130D01*
X0076933Y0085049D01*
X0077046Y0084965D01*
X0077157Y0084878D01*
X0077265Y0084787D01*
X0077370Y0084694D01*
X0077473Y0084597D01*
X0077573Y0084498D01*
X0077670Y0084396D01*
X0077764Y0084291D01*
X0077855Y0084184D01*
X0077943Y0084074D01*
X0078028Y0083962D01*
X0078110Y0083847D01*
X0078189Y0083730D01*
X0078264Y0083611D01*
X0078336Y0083490D01*
X0078404Y0083367D01*
X0078469Y0083242D01*
X0078531Y0083115D01*
X0078588Y0082986D01*
X0078643Y0082856D01*
X0078693Y0082725D01*
X0078740Y0082592D01*
X0078783Y0082458D01*
X0078822Y0082322D01*
X0078857Y0082186D01*
X0078889Y0082049D01*
X0078916Y0081911D01*
X0078940Y0081772D01*
X0078960Y0081632D01*
X0078976Y0081492D01*
X0078988Y0081352D01*
X0078996Y0081211D01*
X0079000Y0081070D01*
X0079000Y0080930D01*
X0078996Y0080789D01*
X0078988Y0080648D01*
X0078976Y0080508D01*
X0078960Y0080368D01*
X0078940Y0080228D01*
X0078916Y0080089D01*
X0078889Y0079951D01*
X0078857Y0079814D01*
X0078822Y0079678D01*
X0078783Y0079542D01*
X0078740Y0079408D01*
X0078693Y0079275D01*
X0078643Y0079144D01*
X0078588Y0079014D01*
X0078531Y0078885D01*
X0078469Y0078758D01*
X0078404Y0078633D01*
X0078336Y0078510D01*
X0078264Y0078389D01*
X0078189Y0078270D01*
X0078110Y0078153D01*
X0078028Y0078038D01*
X0077943Y0077926D01*
X0077855Y0077816D01*
X0077764Y0077709D01*
X0077670Y0077604D01*
X0077573Y0077502D01*
X0077473Y0077403D01*
X0077370Y0077306D01*
X0077265Y0077213D01*
X0077157Y0077122D01*
X0077046Y0077035D01*
X0076933Y0076951D01*
X0076818Y0076870D01*
X0076701Y0076792D01*
X0076581Y0076718D01*
X0076459Y0076647D01*
X0076336Y0076579D01*
X0076210Y0076515D01*
X0076083Y0076455D01*
X0075954Y0076398D01*
X0075824Y0076344D01*
X0075692Y0076295D01*
X0075558Y0076249D01*
X0075424Y0076207D01*
X0075288Y0076169D01*
X0075152Y0076134D01*
X0075014Y0076104D01*
X0074876Y0076077D01*
X0074737Y0076055D01*
X0074597Y0076036D01*
X0074457Y0076021D01*
X0074317Y0076010D01*
X0074176Y0076003D01*
X0074035Y0076000D01*
X0073894Y0076001D01*
X0073754Y0076006D01*
X0073613Y0076015D01*
X0073473Y0076028D01*
X0073333Y0076045D01*
X0073193Y0076065D01*
X0073055Y0076090D01*
X0072917Y0076119D01*
X0072780Y0076151D01*
X0072644Y0076187D01*
X0072509Y0076228D01*
X0072375Y0076272D01*
X0072242Y0076319D01*
X0072111Y0076371D01*
X0071981Y0076426D01*
X0071853Y0076484D01*
X0071727Y0076547D01*
X0071602Y0076612D01*
X0071480Y0076682D01*
X0071359Y0076754D01*
X0071240Y0076830D01*
X0071124Y0076910D01*
X0071010Y0076993D01*
X0070898Y0077078D01*
X0070789Y0077167D01*
X0070682Y0077259D01*
X0070578Y0077354D01*
X0070477Y0077452D01*
X0070378Y0077553D01*
X0070283Y0077656D01*
X0070190Y0077762D01*
X0070100Y0077871D01*
X0070014Y0077982D01*
X0069930Y0078095D01*
X0069850Y0078211D01*
X0069773Y0078329D01*
X0069700Y0078449D01*
X0069629Y0078572D01*
X0069563Y0078696D01*
X0069500Y0078822D01*
X0069440Y0078949D01*
X0069384Y0079078D01*
X0069332Y0079209D01*
X0069283Y0079341D01*
X0069238Y0079475D01*
X0069197Y0079610D01*
X0069160Y0079746D01*
X0069126Y0079882D01*
X0069097Y0080020D01*
X0069071Y0080159D01*
X0069050Y0080298D01*
X0069032Y0080438D01*
X0069018Y0080578D01*
X0069008Y0080718D01*
X0069002Y0080859D01*
X0069000Y0081000D01*
D11*
X0112000Y0035000D02*
X0112000Y0127000D01*
X0095000Y0154000D01*
X0025000Y0154000D01*
X0008000Y0127000D01*
X0008000Y0035000D01*
X0025000Y0009000D01*
X0096000Y0009000D01*
X0112000Y0035000D01*
M02*
