G75*
%MOIN*%
%OFA0B0*%
%FSLAX25Y25*%
%IPPOS*%
%LPD*%
%AMOC8*
5,1,8,0,0,1.08239X$1,22.5*
%
%ADD10C,0.00000*%
%ADD11C,0.00500*%
%ADD12R,0.00827X0.02756*%
%ADD13R,0.01299X0.02756*%
%ADD14C,0.02181*%
%ADD15C,0.01800*%
%ADD16C,0.03000*%
D10*
X0007000Y0008000D02*
X0007000Y0155701D01*
X0112921Y0155701D01*
X0112921Y0008000D01*
X0007000Y0008000D01*
X0019819Y0021100D02*
X0019821Y0021169D01*
X0019827Y0021237D01*
X0019837Y0021305D01*
X0019851Y0021372D01*
X0019869Y0021439D01*
X0019890Y0021504D01*
X0019916Y0021568D01*
X0019945Y0021630D01*
X0019977Y0021690D01*
X0020013Y0021749D01*
X0020053Y0021805D01*
X0020095Y0021859D01*
X0020141Y0021910D01*
X0020190Y0021959D01*
X0020241Y0022005D01*
X0020295Y0022047D01*
X0020351Y0022087D01*
X0020409Y0022123D01*
X0020470Y0022155D01*
X0020532Y0022184D01*
X0020596Y0022210D01*
X0020661Y0022231D01*
X0020728Y0022249D01*
X0020795Y0022263D01*
X0020863Y0022273D01*
X0020931Y0022279D01*
X0021000Y0022281D01*
X0021069Y0022279D01*
X0021137Y0022273D01*
X0021205Y0022263D01*
X0021272Y0022249D01*
X0021339Y0022231D01*
X0021404Y0022210D01*
X0021468Y0022184D01*
X0021530Y0022155D01*
X0021590Y0022123D01*
X0021649Y0022087D01*
X0021705Y0022047D01*
X0021759Y0022005D01*
X0021810Y0021959D01*
X0021859Y0021910D01*
X0021905Y0021859D01*
X0021947Y0021805D01*
X0021987Y0021749D01*
X0022023Y0021690D01*
X0022055Y0021630D01*
X0022084Y0021568D01*
X0022110Y0021504D01*
X0022131Y0021439D01*
X0022149Y0021372D01*
X0022163Y0021305D01*
X0022173Y0021237D01*
X0022179Y0021169D01*
X0022181Y0021100D01*
X0022179Y0021031D01*
X0022173Y0020963D01*
X0022163Y0020895D01*
X0022149Y0020828D01*
X0022131Y0020761D01*
X0022110Y0020696D01*
X0022084Y0020632D01*
X0022055Y0020570D01*
X0022023Y0020509D01*
X0021987Y0020451D01*
X0021947Y0020395D01*
X0021905Y0020341D01*
X0021859Y0020290D01*
X0021810Y0020241D01*
X0021759Y0020195D01*
X0021705Y0020153D01*
X0021649Y0020113D01*
X0021591Y0020077D01*
X0021530Y0020045D01*
X0021468Y0020016D01*
X0021404Y0019990D01*
X0021339Y0019969D01*
X0021272Y0019951D01*
X0021205Y0019937D01*
X0021137Y0019927D01*
X0021069Y0019921D01*
X0021000Y0019919D01*
X0020931Y0019921D01*
X0020863Y0019927D01*
X0020795Y0019937D01*
X0020728Y0019951D01*
X0020661Y0019969D01*
X0020596Y0019990D01*
X0020532Y0020016D01*
X0020470Y0020045D01*
X0020409Y0020077D01*
X0020351Y0020113D01*
X0020295Y0020153D01*
X0020241Y0020195D01*
X0020190Y0020241D01*
X0020141Y0020290D01*
X0020095Y0020341D01*
X0020053Y0020395D01*
X0020013Y0020451D01*
X0019977Y0020509D01*
X0019945Y0020570D01*
X0019916Y0020632D01*
X0019890Y0020696D01*
X0019869Y0020761D01*
X0019851Y0020828D01*
X0019837Y0020895D01*
X0019827Y0020963D01*
X0019821Y0021031D01*
X0019819Y0021100D01*
X0013319Y0033000D02*
X0013321Y0033069D01*
X0013327Y0033137D01*
X0013337Y0033205D01*
X0013351Y0033272D01*
X0013369Y0033339D01*
X0013390Y0033404D01*
X0013416Y0033468D01*
X0013445Y0033530D01*
X0013477Y0033590D01*
X0013513Y0033649D01*
X0013553Y0033705D01*
X0013595Y0033759D01*
X0013641Y0033810D01*
X0013690Y0033859D01*
X0013741Y0033905D01*
X0013795Y0033947D01*
X0013851Y0033987D01*
X0013909Y0034023D01*
X0013970Y0034055D01*
X0014032Y0034084D01*
X0014096Y0034110D01*
X0014161Y0034131D01*
X0014228Y0034149D01*
X0014295Y0034163D01*
X0014363Y0034173D01*
X0014431Y0034179D01*
X0014500Y0034181D01*
X0014569Y0034179D01*
X0014637Y0034173D01*
X0014705Y0034163D01*
X0014772Y0034149D01*
X0014839Y0034131D01*
X0014904Y0034110D01*
X0014968Y0034084D01*
X0015030Y0034055D01*
X0015090Y0034023D01*
X0015149Y0033987D01*
X0015205Y0033947D01*
X0015259Y0033905D01*
X0015310Y0033859D01*
X0015359Y0033810D01*
X0015405Y0033759D01*
X0015447Y0033705D01*
X0015487Y0033649D01*
X0015523Y0033590D01*
X0015555Y0033530D01*
X0015584Y0033468D01*
X0015610Y0033404D01*
X0015631Y0033339D01*
X0015649Y0033272D01*
X0015663Y0033205D01*
X0015673Y0033137D01*
X0015679Y0033069D01*
X0015681Y0033000D01*
X0015679Y0032931D01*
X0015673Y0032863D01*
X0015663Y0032795D01*
X0015649Y0032728D01*
X0015631Y0032661D01*
X0015610Y0032596D01*
X0015584Y0032532D01*
X0015555Y0032470D01*
X0015523Y0032409D01*
X0015487Y0032351D01*
X0015447Y0032295D01*
X0015405Y0032241D01*
X0015359Y0032190D01*
X0015310Y0032141D01*
X0015259Y0032095D01*
X0015205Y0032053D01*
X0015149Y0032013D01*
X0015091Y0031977D01*
X0015030Y0031945D01*
X0014968Y0031916D01*
X0014904Y0031890D01*
X0014839Y0031869D01*
X0014772Y0031851D01*
X0014705Y0031837D01*
X0014637Y0031827D01*
X0014569Y0031821D01*
X0014500Y0031819D01*
X0014431Y0031821D01*
X0014363Y0031827D01*
X0014295Y0031837D01*
X0014228Y0031851D01*
X0014161Y0031869D01*
X0014096Y0031890D01*
X0014032Y0031916D01*
X0013970Y0031945D01*
X0013909Y0031977D01*
X0013851Y0032013D01*
X0013795Y0032053D01*
X0013741Y0032095D01*
X0013690Y0032141D01*
X0013641Y0032190D01*
X0013595Y0032241D01*
X0013553Y0032295D01*
X0013513Y0032351D01*
X0013477Y0032409D01*
X0013445Y0032470D01*
X0013416Y0032532D01*
X0013390Y0032596D01*
X0013369Y0032661D01*
X0013351Y0032728D01*
X0013337Y0032795D01*
X0013327Y0032863D01*
X0013321Y0032931D01*
X0013319Y0033000D01*
X0010019Y0041100D02*
X0010021Y0041169D01*
X0010027Y0041237D01*
X0010037Y0041305D01*
X0010051Y0041372D01*
X0010069Y0041439D01*
X0010090Y0041504D01*
X0010116Y0041568D01*
X0010145Y0041630D01*
X0010177Y0041690D01*
X0010213Y0041749D01*
X0010253Y0041805D01*
X0010295Y0041859D01*
X0010341Y0041910D01*
X0010390Y0041959D01*
X0010441Y0042005D01*
X0010495Y0042047D01*
X0010551Y0042087D01*
X0010609Y0042123D01*
X0010670Y0042155D01*
X0010732Y0042184D01*
X0010796Y0042210D01*
X0010861Y0042231D01*
X0010928Y0042249D01*
X0010995Y0042263D01*
X0011063Y0042273D01*
X0011131Y0042279D01*
X0011200Y0042281D01*
X0011269Y0042279D01*
X0011337Y0042273D01*
X0011405Y0042263D01*
X0011472Y0042249D01*
X0011539Y0042231D01*
X0011604Y0042210D01*
X0011668Y0042184D01*
X0011730Y0042155D01*
X0011790Y0042123D01*
X0011849Y0042087D01*
X0011905Y0042047D01*
X0011959Y0042005D01*
X0012010Y0041959D01*
X0012059Y0041910D01*
X0012105Y0041859D01*
X0012147Y0041805D01*
X0012187Y0041749D01*
X0012223Y0041690D01*
X0012255Y0041630D01*
X0012284Y0041568D01*
X0012310Y0041504D01*
X0012331Y0041439D01*
X0012349Y0041372D01*
X0012363Y0041305D01*
X0012373Y0041237D01*
X0012379Y0041169D01*
X0012381Y0041100D01*
X0012379Y0041031D01*
X0012373Y0040963D01*
X0012363Y0040895D01*
X0012349Y0040828D01*
X0012331Y0040761D01*
X0012310Y0040696D01*
X0012284Y0040632D01*
X0012255Y0040570D01*
X0012223Y0040509D01*
X0012187Y0040451D01*
X0012147Y0040395D01*
X0012105Y0040341D01*
X0012059Y0040290D01*
X0012010Y0040241D01*
X0011959Y0040195D01*
X0011905Y0040153D01*
X0011849Y0040113D01*
X0011791Y0040077D01*
X0011730Y0040045D01*
X0011668Y0040016D01*
X0011604Y0039990D01*
X0011539Y0039969D01*
X0011472Y0039951D01*
X0011405Y0039937D01*
X0011337Y0039927D01*
X0011269Y0039921D01*
X0011200Y0039919D01*
X0011131Y0039921D01*
X0011063Y0039927D01*
X0010995Y0039937D01*
X0010928Y0039951D01*
X0010861Y0039969D01*
X0010796Y0039990D01*
X0010732Y0040016D01*
X0010670Y0040045D01*
X0010609Y0040077D01*
X0010551Y0040113D01*
X0010495Y0040153D01*
X0010441Y0040195D01*
X0010390Y0040241D01*
X0010341Y0040290D01*
X0010295Y0040341D01*
X0010253Y0040395D01*
X0010213Y0040451D01*
X0010177Y0040509D01*
X0010145Y0040570D01*
X0010116Y0040632D01*
X0010090Y0040696D01*
X0010069Y0040761D01*
X0010051Y0040828D01*
X0010037Y0040895D01*
X0010027Y0040963D01*
X0010021Y0041031D01*
X0010019Y0041100D01*
X0009819Y0054000D02*
X0009821Y0054069D01*
X0009827Y0054137D01*
X0009837Y0054205D01*
X0009851Y0054272D01*
X0009869Y0054339D01*
X0009890Y0054404D01*
X0009916Y0054468D01*
X0009945Y0054530D01*
X0009977Y0054590D01*
X0010013Y0054649D01*
X0010053Y0054705D01*
X0010095Y0054759D01*
X0010141Y0054810D01*
X0010190Y0054859D01*
X0010241Y0054905D01*
X0010295Y0054947D01*
X0010351Y0054987D01*
X0010409Y0055023D01*
X0010470Y0055055D01*
X0010532Y0055084D01*
X0010596Y0055110D01*
X0010661Y0055131D01*
X0010728Y0055149D01*
X0010795Y0055163D01*
X0010863Y0055173D01*
X0010931Y0055179D01*
X0011000Y0055181D01*
X0011069Y0055179D01*
X0011137Y0055173D01*
X0011205Y0055163D01*
X0011272Y0055149D01*
X0011339Y0055131D01*
X0011404Y0055110D01*
X0011468Y0055084D01*
X0011530Y0055055D01*
X0011590Y0055023D01*
X0011649Y0054987D01*
X0011705Y0054947D01*
X0011759Y0054905D01*
X0011810Y0054859D01*
X0011859Y0054810D01*
X0011905Y0054759D01*
X0011947Y0054705D01*
X0011987Y0054649D01*
X0012023Y0054590D01*
X0012055Y0054530D01*
X0012084Y0054468D01*
X0012110Y0054404D01*
X0012131Y0054339D01*
X0012149Y0054272D01*
X0012163Y0054205D01*
X0012173Y0054137D01*
X0012179Y0054069D01*
X0012181Y0054000D01*
X0012179Y0053931D01*
X0012173Y0053863D01*
X0012163Y0053795D01*
X0012149Y0053728D01*
X0012131Y0053661D01*
X0012110Y0053596D01*
X0012084Y0053532D01*
X0012055Y0053470D01*
X0012023Y0053409D01*
X0011987Y0053351D01*
X0011947Y0053295D01*
X0011905Y0053241D01*
X0011859Y0053190D01*
X0011810Y0053141D01*
X0011759Y0053095D01*
X0011705Y0053053D01*
X0011649Y0053013D01*
X0011591Y0052977D01*
X0011530Y0052945D01*
X0011468Y0052916D01*
X0011404Y0052890D01*
X0011339Y0052869D01*
X0011272Y0052851D01*
X0011205Y0052837D01*
X0011137Y0052827D01*
X0011069Y0052821D01*
X0011000Y0052819D01*
X0010931Y0052821D01*
X0010863Y0052827D01*
X0010795Y0052837D01*
X0010728Y0052851D01*
X0010661Y0052869D01*
X0010596Y0052890D01*
X0010532Y0052916D01*
X0010470Y0052945D01*
X0010409Y0052977D01*
X0010351Y0053013D01*
X0010295Y0053053D01*
X0010241Y0053095D01*
X0010190Y0053141D01*
X0010141Y0053190D01*
X0010095Y0053241D01*
X0010053Y0053295D01*
X0010013Y0053351D01*
X0009977Y0053409D01*
X0009945Y0053470D01*
X0009916Y0053532D01*
X0009890Y0053596D01*
X0009869Y0053661D01*
X0009851Y0053728D01*
X0009837Y0053795D01*
X0009827Y0053863D01*
X0009821Y0053931D01*
X0009819Y0054000D01*
X0009819Y0067000D02*
X0009821Y0067069D01*
X0009827Y0067137D01*
X0009837Y0067205D01*
X0009851Y0067272D01*
X0009869Y0067339D01*
X0009890Y0067404D01*
X0009916Y0067468D01*
X0009945Y0067530D01*
X0009977Y0067590D01*
X0010013Y0067649D01*
X0010053Y0067705D01*
X0010095Y0067759D01*
X0010141Y0067810D01*
X0010190Y0067859D01*
X0010241Y0067905D01*
X0010295Y0067947D01*
X0010351Y0067987D01*
X0010409Y0068023D01*
X0010470Y0068055D01*
X0010532Y0068084D01*
X0010596Y0068110D01*
X0010661Y0068131D01*
X0010728Y0068149D01*
X0010795Y0068163D01*
X0010863Y0068173D01*
X0010931Y0068179D01*
X0011000Y0068181D01*
X0011069Y0068179D01*
X0011137Y0068173D01*
X0011205Y0068163D01*
X0011272Y0068149D01*
X0011339Y0068131D01*
X0011404Y0068110D01*
X0011468Y0068084D01*
X0011530Y0068055D01*
X0011590Y0068023D01*
X0011649Y0067987D01*
X0011705Y0067947D01*
X0011759Y0067905D01*
X0011810Y0067859D01*
X0011859Y0067810D01*
X0011905Y0067759D01*
X0011947Y0067705D01*
X0011987Y0067649D01*
X0012023Y0067590D01*
X0012055Y0067530D01*
X0012084Y0067468D01*
X0012110Y0067404D01*
X0012131Y0067339D01*
X0012149Y0067272D01*
X0012163Y0067205D01*
X0012173Y0067137D01*
X0012179Y0067069D01*
X0012181Y0067000D01*
X0012179Y0066931D01*
X0012173Y0066863D01*
X0012163Y0066795D01*
X0012149Y0066728D01*
X0012131Y0066661D01*
X0012110Y0066596D01*
X0012084Y0066532D01*
X0012055Y0066470D01*
X0012023Y0066409D01*
X0011987Y0066351D01*
X0011947Y0066295D01*
X0011905Y0066241D01*
X0011859Y0066190D01*
X0011810Y0066141D01*
X0011759Y0066095D01*
X0011705Y0066053D01*
X0011649Y0066013D01*
X0011591Y0065977D01*
X0011530Y0065945D01*
X0011468Y0065916D01*
X0011404Y0065890D01*
X0011339Y0065869D01*
X0011272Y0065851D01*
X0011205Y0065837D01*
X0011137Y0065827D01*
X0011069Y0065821D01*
X0011000Y0065819D01*
X0010931Y0065821D01*
X0010863Y0065827D01*
X0010795Y0065837D01*
X0010728Y0065851D01*
X0010661Y0065869D01*
X0010596Y0065890D01*
X0010532Y0065916D01*
X0010470Y0065945D01*
X0010409Y0065977D01*
X0010351Y0066013D01*
X0010295Y0066053D01*
X0010241Y0066095D01*
X0010190Y0066141D01*
X0010141Y0066190D01*
X0010095Y0066241D01*
X0010053Y0066295D01*
X0010013Y0066351D01*
X0009977Y0066409D01*
X0009945Y0066470D01*
X0009916Y0066532D01*
X0009890Y0066596D01*
X0009869Y0066661D01*
X0009851Y0066728D01*
X0009837Y0066795D01*
X0009827Y0066863D01*
X0009821Y0066931D01*
X0009819Y0067000D01*
X0017819Y0077000D02*
X0017821Y0077069D01*
X0017827Y0077137D01*
X0017837Y0077205D01*
X0017851Y0077272D01*
X0017869Y0077339D01*
X0017890Y0077404D01*
X0017916Y0077468D01*
X0017945Y0077530D01*
X0017977Y0077590D01*
X0018013Y0077649D01*
X0018053Y0077705D01*
X0018095Y0077759D01*
X0018141Y0077810D01*
X0018190Y0077859D01*
X0018241Y0077905D01*
X0018295Y0077947D01*
X0018351Y0077987D01*
X0018409Y0078023D01*
X0018470Y0078055D01*
X0018532Y0078084D01*
X0018596Y0078110D01*
X0018661Y0078131D01*
X0018728Y0078149D01*
X0018795Y0078163D01*
X0018863Y0078173D01*
X0018931Y0078179D01*
X0019000Y0078181D01*
X0019069Y0078179D01*
X0019137Y0078173D01*
X0019205Y0078163D01*
X0019272Y0078149D01*
X0019339Y0078131D01*
X0019404Y0078110D01*
X0019468Y0078084D01*
X0019530Y0078055D01*
X0019590Y0078023D01*
X0019649Y0077987D01*
X0019705Y0077947D01*
X0019759Y0077905D01*
X0019810Y0077859D01*
X0019859Y0077810D01*
X0019905Y0077759D01*
X0019947Y0077705D01*
X0019987Y0077649D01*
X0020023Y0077590D01*
X0020055Y0077530D01*
X0020084Y0077468D01*
X0020110Y0077404D01*
X0020131Y0077339D01*
X0020149Y0077272D01*
X0020163Y0077205D01*
X0020173Y0077137D01*
X0020179Y0077069D01*
X0020181Y0077000D01*
X0020179Y0076931D01*
X0020173Y0076863D01*
X0020163Y0076795D01*
X0020149Y0076728D01*
X0020131Y0076661D01*
X0020110Y0076596D01*
X0020084Y0076532D01*
X0020055Y0076470D01*
X0020023Y0076409D01*
X0019987Y0076351D01*
X0019947Y0076295D01*
X0019905Y0076241D01*
X0019859Y0076190D01*
X0019810Y0076141D01*
X0019759Y0076095D01*
X0019705Y0076053D01*
X0019649Y0076013D01*
X0019591Y0075977D01*
X0019530Y0075945D01*
X0019468Y0075916D01*
X0019404Y0075890D01*
X0019339Y0075869D01*
X0019272Y0075851D01*
X0019205Y0075837D01*
X0019137Y0075827D01*
X0019069Y0075821D01*
X0019000Y0075819D01*
X0018931Y0075821D01*
X0018863Y0075827D01*
X0018795Y0075837D01*
X0018728Y0075851D01*
X0018661Y0075869D01*
X0018596Y0075890D01*
X0018532Y0075916D01*
X0018470Y0075945D01*
X0018409Y0075977D01*
X0018351Y0076013D01*
X0018295Y0076053D01*
X0018241Y0076095D01*
X0018190Y0076141D01*
X0018141Y0076190D01*
X0018095Y0076241D01*
X0018053Y0076295D01*
X0018013Y0076351D01*
X0017977Y0076409D01*
X0017945Y0076470D01*
X0017916Y0076532D01*
X0017890Y0076596D01*
X0017869Y0076661D01*
X0017851Y0076728D01*
X0017837Y0076795D01*
X0017827Y0076863D01*
X0017821Y0076931D01*
X0017819Y0077000D01*
X0017819Y0085000D02*
X0017821Y0085069D01*
X0017827Y0085137D01*
X0017837Y0085205D01*
X0017851Y0085272D01*
X0017869Y0085339D01*
X0017890Y0085404D01*
X0017916Y0085468D01*
X0017945Y0085530D01*
X0017977Y0085590D01*
X0018013Y0085649D01*
X0018053Y0085705D01*
X0018095Y0085759D01*
X0018141Y0085810D01*
X0018190Y0085859D01*
X0018241Y0085905D01*
X0018295Y0085947D01*
X0018351Y0085987D01*
X0018409Y0086023D01*
X0018470Y0086055D01*
X0018532Y0086084D01*
X0018596Y0086110D01*
X0018661Y0086131D01*
X0018728Y0086149D01*
X0018795Y0086163D01*
X0018863Y0086173D01*
X0018931Y0086179D01*
X0019000Y0086181D01*
X0019069Y0086179D01*
X0019137Y0086173D01*
X0019205Y0086163D01*
X0019272Y0086149D01*
X0019339Y0086131D01*
X0019404Y0086110D01*
X0019468Y0086084D01*
X0019530Y0086055D01*
X0019590Y0086023D01*
X0019649Y0085987D01*
X0019705Y0085947D01*
X0019759Y0085905D01*
X0019810Y0085859D01*
X0019859Y0085810D01*
X0019905Y0085759D01*
X0019947Y0085705D01*
X0019987Y0085649D01*
X0020023Y0085590D01*
X0020055Y0085530D01*
X0020084Y0085468D01*
X0020110Y0085404D01*
X0020131Y0085339D01*
X0020149Y0085272D01*
X0020163Y0085205D01*
X0020173Y0085137D01*
X0020179Y0085069D01*
X0020181Y0085000D01*
X0020179Y0084931D01*
X0020173Y0084863D01*
X0020163Y0084795D01*
X0020149Y0084728D01*
X0020131Y0084661D01*
X0020110Y0084596D01*
X0020084Y0084532D01*
X0020055Y0084470D01*
X0020023Y0084409D01*
X0019987Y0084351D01*
X0019947Y0084295D01*
X0019905Y0084241D01*
X0019859Y0084190D01*
X0019810Y0084141D01*
X0019759Y0084095D01*
X0019705Y0084053D01*
X0019649Y0084013D01*
X0019591Y0083977D01*
X0019530Y0083945D01*
X0019468Y0083916D01*
X0019404Y0083890D01*
X0019339Y0083869D01*
X0019272Y0083851D01*
X0019205Y0083837D01*
X0019137Y0083827D01*
X0019069Y0083821D01*
X0019000Y0083819D01*
X0018931Y0083821D01*
X0018863Y0083827D01*
X0018795Y0083837D01*
X0018728Y0083851D01*
X0018661Y0083869D01*
X0018596Y0083890D01*
X0018532Y0083916D01*
X0018470Y0083945D01*
X0018409Y0083977D01*
X0018351Y0084013D01*
X0018295Y0084053D01*
X0018241Y0084095D01*
X0018190Y0084141D01*
X0018141Y0084190D01*
X0018095Y0084241D01*
X0018053Y0084295D01*
X0018013Y0084351D01*
X0017977Y0084409D01*
X0017945Y0084470D01*
X0017916Y0084532D01*
X0017890Y0084596D01*
X0017869Y0084661D01*
X0017851Y0084728D01*
X0017837Y0084795D01*
X0017827Y0084863D01*
X0017821Y0084931D01*
X0017819Y0085000D01*
X0009819Y0097000D02*
X0009821Y0097069D01*
X0009827Y0097137D01*
X0009837Y0097205D01*
X0009851Y0097272D01*
X0009869Y0097339D01*
X0009890Y0097404D01*
X0009916Y0097468D01*
X0009945Y0097530D01*
X0009977Y0097590D01*
X0010013Y0097649D01*
X0010053Y0097705D01*
X0010095Y0097759D01*
X0010141Y0097810D01*
X0010190Y0097859D01*
X0010241Y0097905D01*
X0010295Y0097947D01*
X0010351Y0097987D01*
X0010409Y0098023D01*
X0010470Y0098055D01*
X0010532Y0098084D01*
X0010596Y0098110D01*
X0010661Y0098131D01*
X0010728Y0098149D01*
X0010795Y0098163D01*
X0010863Y0098173D01*
X0010931Y0098179D01*
X0011000Y0098181D01*
X0011069Y0098179D01*
X0011137Y0098173D01*
X0011205Y0098163D01*
X0011272Y0098149D01*
X0011339Y0098131D01*
X0011404Y0098110D01*
X0011468Y0098084D01*
X0011530Y0098055D01*
X0011590Y0098023D01*
X0011649Y0097987D01*
X0011705Y0097947D01*
X0011759Y0097905D01*
X0011810Y0097859D01*
X0011859Y0097810D01*
X0011905Y0097759D01*
X0011947Y0097705D01*
X0011987Y0097649D01*
X0012023Y0097590D01*
X0012055Y0097530D01*
X0012084Y0097468D01*
X0012110Y0097404D01*
X0012131Y0097339D01*
X0012149Y0097272D01*
X0012163Y0097205D01*
X0012173Y0097137D01*
X0012179Y0097069D01*
X0012181Y0097000D01*
X0012179Y0096931D01*
X0012173Y0096863D01*
X0012163Y0096795D01*
X0012149Y0096728D01*
X0012131Y0096661D01*
X0012110Y0096596D01*
X0012084Y0096532D01*
X0012055Y0096470D01*
X0012023Y0096409D01*
X0011987Y0096351D01*
X0011947Y0096295D01*
X0011905Y0096241D01*
X0011859Y0096190D01*
X0011810Y0096141D01*
X0011759Y0096095D01*
X0011705Y0096053D01*
X0011649Y0096013D01*
X0011591Y0095977D01*
X0011530Y0095945D01*
X0011468Y0095916D01*
X0011404Y0095890D01*
X0011339Y0095869D01*
X0011272Y0095851D01*
X0011205Y0095837D01*
X0011137Y0095827D01*
X0011069Y0095821D01*
X0011000Y0095819D01*
X0010931Y0095821D01*
X0010863Y0095827D01*
X0010795Y0095837D01*
X0010728Y0095851D01*
X0010661Y0095869D01*
X0010596Y0095890D01*
X0010532Y0095916D01*
X0010470Y0095945D01*
X0010409Y0095977D01*
X0010351Y0096013D01*
X0010295Y0096053D01*
X0010241Y0096095D01*
X0010190Y0096141D01*
X0010141Y0096190D01*
X0010095Y0096241D01*
X0010053Y0096295D01*
X0010013Y0096351D01*
X0009977Y0096409D01*
X0009945Y0096470D01*
X0009916Y0096532D01*
X0009890Y0096596D01*
X0009869Y0096661D01*
X0009851Y0096728D01*
X0009837Y0096795D01*
X0009827Y0096863D01*
X0009821Y0096931D01*
X0009819Y0097000D01*
X0009819Y0110000D02*
X0009821Y0110069D01*
X0009827Y0110137D01*
X0009837Y0110205D01*
X0009851Y0110272D01*
X0009869Y0110339D01*
X0009890Y0110404D01*
X0009916Y0110468D01*
X0009945Y0110530D01*
X0009977Y0110590D01*
X0010013Y0110649D01*
X0010053Y0110705D01*
X0010095Y0110759D01*
X0010141Y0110810D01*
X0010190Y0110859D01*
X0010241Y0110905D01*
X0010295Y0110947D01*
X0010351Y0110987D01*
X0010409Y0111023D01*
X0010470Y0111055D01*
X0010532Y0111084D01*
X0010596Y0111110D01*
X0010661Y0111131D01*
X0010728Y0111149D01*
X0010795Y0111163D01*
X0010863Y0111173D01*
X0010931Y0111179D01*
X0011000Y0111181D01*
X0011069Y0111179D01*
X0011137Y0111173D01*
X0011205Y0111163D01*
X0011272Y0111149D01*
X0011339Y0111131D01*
X0011404Y0111110D01*
X0011468Y0111084D01*
X0011530Y0111055D01*
X0011590Y0111023D01*
X0011649Y0110987D01*
X0011705Y0110947D01*
X0011759Y0110905D01*
X0011810Y0110859D01*
X0011859Y0110810D01*
X0011905Y0110759D01*
X0011947Y0110705D01*
X0011987Y0110649D01*
X0012023Y0110590D01*
X0012055Y0110530D01*
X0012084Y0110468D01*
X0012110Y0110404D01*
X0012131Y0110339D01*
X0012149Y0110272D01*
X0012163Y0110205D01*
X0012173Y0110137D01*
X0012179Y0110069D01*
X0012181Y0110000D01*
X0012179Y0109931D01*
X0012173Y0109863D01*
X0012163Y0109795D01*
X0012149Y0109728D01*
X0012131Y0109661D01*
X0012110Y0109596D01*
X0012084Y0109532D01*
X0012055Y0109470D01*
X0012023Y0109409D01*
X0011987Y0109351D01*
X0011947Y0109295D01*
X0011905Y0109241D01*
X0011859Y0109190D01*
X0011810Y0109141D01*
X0011759Y0109095D01*
X0011705Y0109053D01*
X0011649Y0109013D01*
X0011591Y0108977D01*
X0011530Y0108945D01*
X0011468Y0108916D01*
X0011404Y0108890D01*
X0011339Y0108869D01*
X0011272Y0108851D01*
X0011205Y0108837D01*
X0011137Y0108827D01*
X0011069Y0108821D01*
X0011000Y0108819D01*
X0010931Y0108821D01*
X0010863Y0108827D01*
X0010795Y0108837D01*
X0010728Y0108851D01*
X0010661Y0108869D01*
X0010596Y0108890D01*
X0010532Y0108916D01*
X0010470Y0108945D01*
X0010409Y0108977D01*
X0010351Y0109013D01*
X0010295Y0109053D01*
X0010241Y0109095D01*
X0010190Y0109141D01*
X0010141Y0109190D01*
X0010095Y0109241D01*
X0010053Y0109295D01*
X0010013Y0109351D01*
X0009977Y0109409D01*
X0009945Y0109470D01*
X0009916Y0109532D01*
X0009890Y0109596D01*
X0009869Y0109661D01*
X0009851Y0109728D01*
X0009837Y0109795D01*
X0009827Y0109863D01*
X0009821Y0109931D01*
X0009819Y0110000D01*
X0009819Y0123000D02*
X0009821Y0123069D01*
X0009827Y0123137D01*
X0009837Y0123205D01*
X0009851Y0123272D01*
X0009869Y0123339D01*
X0009890Y0123404D01*
X0009916Y0123468D01*
X0009945Y0123530D01*
X0009977Y0123590D01*
X0010013Y0123649D01*
X0010053Y0123705D01*
X0010095Y0123759D01*
X0010141Y0123810D01*
X0010190Y0123859D01*
X0010241Y0123905D01*
X0010295Y0123947D01*
X0010351Y0123987D01*
X0010409Y0124023D01*
X0010470Y0124055D01*
X0010532Y0124084D01*
X0010596Y0124110D01*
X0010661Y0124131D01*
X0010728Y0124149D01*
X0010795Y0124163D01*
X0010863Y0124173D01*
X0010931Y0124179D01*
X0011000Y0124181D01*
X0011069Y0124179D01*
X0011137Y0124173D01*
X0011205Y0124163D01*
X0011272Y0124149D01*
X0011339Y0124131D01*
X0011404Y0124110D01*
X0011468Y0124084D01*
X0011530Y0124055D01*
X0011590Y0124023D01*
X0011649Y0123987D01*
X0011705Y0123947D01*
X0011759Y0123905D01*
X0011810Y0123859D01*
X0011859Y0123810D01*
X0011905Y0123759D01*
X0011947Y0123705D01*
X0011987Y0123649D01*
X0012023Y0123590D01*
X0012055Y0123530D01*
X0012084Y0123468D01*
X0012110Y0123404D01*
X0012131Y0123339D01*
X0012149Y0123272D01*
X0012163Y0123205D01*
X0012173Y0123137D01*
X0012179Y0123069D01*
X0012181Y0123000D01*
X0012179Y0122931D01*
X0012173Y0122863D01*
X0012163Y0122795D01*
X0012149Y0122728D01*
X0012131Y0122661D01*
X0012110Y0122596D01*
X0012084Y0122532D01*
X0012055Y0122470D01*
X0012023Y0122409D01*
X0011987Y0122351D01*
X0011947Y0122295D01*
X0011905Y0122241D01*
X0011859Y0122190D01*
X0011810Y0122141D01*
X0011759Y0122095D01*
X0011705Y0122053D01*
X0011649Y0122013D01*
X0011591Y0121977D01*
X0011530Y0121945D01*
X0011468Y0121916D01*
X0011404Y0121890D01*
X0011339Y0121869D01*
X0011272Y0121851D01*
X0011205Y0121837D01*
X0011137Y0121827D01*
X0011069Y0121821D01*
X0011000Y0121819D01*
X0010931Y0121821D01*
X0010863Y0121827D01*
X0010795Y0121837D01*
X0010728Y0121851D01*
X0010661Y0121869D01*
X0010596Y0121890D01*
X0010532Y0121916D01*
X0010470Y0121945D01*
X0010409Y0121977D01*
X0010351Y0122013D01*
X0010295Y0122053D01*
X0010241Y0122095D01*
X0010190Y0122141D01*
X0010141Y0122190D01*
X0010095Y0122241D01*
X0010053Y0122295D01*
X0010013Y0122351D01*
X0009977Y0122409D01*
X0009945Y0122470D01*
X0009916Y0122532D01*
X0009890Y0122596D01*
X0009869Y0122661D01*
X0009851Y0122728D01*
X0009837Y0122795D01*
X0009827Y0122863D01*
X0009821Y0122931D01*
X0009819Y0123000D01*
X0012319Y0130000D02*
X0012321Y0130069D01*
X0012327Y0130137D01*
X0012337Y0130205D01*
X0012351Y0130272D01*
X0012369Y0130339D01*
X0012390Y0130404D01*
X0012416Y0130468D01*
X0012445Y0130530D01*
X0012477Y0130590D01*
X0012513Y0130649D01*
X0012553Y0130705D01*
X0012595Y0130759D01*
X0012641Y0130810D01*
X0012690Y0130859D01*
X0012741Y0130905D01*
X0012795Y0130947D01*
X0012851Y0130987D01*
X0012909Y0131023D01*
X0012970Y0131055D01*
X0013032Y0131084D01*
X0013096Y0131110D01*
X0013161Y0131131D01*
X0013228Y0131149D01*
X0013295Y0131163D01*
X0013363Y0131173D01*
X0013431Y0131179D01*
X0013500Y0131181D01*
X0013569Y0131179D01*
X0013637Y0131173D01*
X0013705Y0131163D01*
X0013772Y0131149D01*
X0013839Y0131131D01*
X0013904Y0131110D01*
X0013968Y0131084D01*
X0014030Y0131055D01*
X0014090Y0131023D01*
X0014149Y0130987D01*
X0014205Y0130947D01*
X0014259Y0130905D01*
X0014310Y0130859D01*
X0014359Y0130810D01*
X0014405Y0130759D01*
X0014447Y0130705D01*
X0014487Y0130649D01*
X0014523Y0130590D01*
X0014555Y0130530D01*
X0014584Y0130468D01*
X0014610Y0130404D01*
X0014631Y0130339D01*
X0014649Y0130272D01*
X0014663Y0130205D01*
X0014673Y0130137D01*
X0014679Y0130069D01*
X0014681Y0130000D01*
X0014679Y0129931D01*
X0014673Y0129863D01*
X0014663Y0129795D01*
X0014649Y0129728D01*
X0014631Y0129661D01*
X0014610Y0129596D01*
X0014584Y0129532D01*
X0014555Y0129470D01*
X0014523Y0129409D01*
X0014487Y0129351D01*
X0014447Y0129295D01*
X0014405Y0129241D01*
X0014359Y0129190D01*
X0014310Y0129141D01*
X0014259Y0129095D01*
X0014205Y0129053D01*
X0014149Y0129013D01*
X0014091Y0128977D01*
X0014030Y0128945D01*
X0013968Y0128916D01*
X0013904Y0128890D01*
X0013839Y0128869D01*
X0013772Y0128851D01*
X0013705Y0128837D01*
X0013637Y0128827D01*
X0013569Y0128821D01*
X0013500Y0128819D01*
X0013431Y0128821D01*
X0013363Y0128827D01*
X0013295Y0128837D01*
X0013228Y0128851D01*
X0013161Y0128869D01*
X0013096Y0128890D01*
X0013032Y0128916D01*
X0012970Y0128945D01*
X0012909Y0128977D01*
X0012851Y0129013D01*
X0012795Y0129053D01*
X0012741Y0129095D01*
X0012690Y0129141D01*
X0012641Y0129190D01*
X0012595Y0129241D01*
X0012553Y0129295D01*
X0012513Y0129351D01*
X0012477Y0129409D01*
X0012445Y0129470D01*
X0012416Y0129532D01*
X0012390Y0129596D01*
X0012369Y0129661D01*
X0012351Y0129728D01*
X0012337Y0129795D01*
X0012327Y0129863D01*
X0012321Y0129931D01*
X0012319Y0130000D01*
X0019619Y0140800D02*
X0019621Y0140869D01*
X0019627Y0140937D01*
X0019637Y0141005D01*
X0019651Y0141072D01*
X0019669Y0141139D01*
X0019690Y0141204D01*
X0019716Y0141268D01*
X0019745Y0141330D01*
X0019777Y0141390D01*
X0019813Y0141449D01*
X0019853Y0141505D01*
X0019895Y0141559D01*
X0019941Y0141610D01*
X0019990Y0141659D01*
X0020041Y0141705D01*
X0020095Y0141747D01*
X0020151Y0141787D01*
X0020209Y0141823D01*
X0020270Y0141855D01*
X0020332Y0141884D01*
X0020396Y0141910D01*
X0020461Y0141931D01*
X0020528Y0141949D01*
X0020595Y0141963D01*
X0020663Y0141973D01*
X0020731Y0141979D01*
X0020800Y0141981D01*
X0020869Y0141979D01*
X0020937Y0141973D01*
X0021005Y0141963D01*
X0021072Y0141949D01*
X0021139Y0141931D01*
X0021204Y0141910D01*
X0021268Y0141884D01*
X0021330Y0141855D01*
X0021390Y0141823D01*
X0021449Y0141787D01*
X0021505Y0141747D01*
X0021559Y0141705D01*
X0021610Y0141659D01*
X0021659Y0141610D01*
X0021705Y0141559D01*
X0021747Y0141505D01*
X0021787Y0141449D01*
X0021823Y0141390D01*
X0021855Y0141330D01*
X0021884Y0141268D01*
X0021910Y0141204D01*
X0021931Y0141139D01*
X0021949Y0141072D01*
X0021963Y0141005D01*
X0021973Y0140937D01*
X0021979Y0140869D01*
X0021981Y0140800D01*
X0021979Y0140731D01*
X0021973Y0140663D01*
X0021963Y0140595D01*
X0021949Y0140528D01*
X0021931Y0140461D01*
X0021910Y0140396D01*
X0021884Y0140332D01*
X0021855Y0140270D01*
X0021823Y0140209D01*
X0021787Y0140151D01*
X0021747Y0140095D01*
X0021705Y0140041D01*
X0021659Y0139990D01*
X0021610Y0139941D01*
X0021559Y0139895D01*
X0021505Y0139853D01*
X0021449Y0139813D01*
X0021391Y0139777D01*
X0021330Y0139745D01*
X0021268Y0139716D01*
X0021204Y0139690D01*
X0021139Y0139669D01*
X0021072Y0139651D01*
X0021005Y0139637D01*
X0020937Y0139627D01*
X0020869Y0139621D01*
X0020800Y0139619D01*
X0020731Y0139621D01*
X0020663Y0139627D01*
X0020595Y0139637D01*
X0020528Y0139651D01*
X0020461Y0139669D01*
X0020396Y0139690D01*
X0020332Y0139716D01*
X0020270Y0139745D01*
X0020209Y0139777D01*
X0020151Y0139813D01*
X0020095Y0139853D01*
X0020041Y0139895D01*
X0019990Y0139941D01*
X0019941Y0139990D01*
X0019895Y0140041D01*
X0019853Y0140095D01*
X0019813Y0140151D01*
X0019777Y0140209D01*
X0019745Y0140270D01*
X0019716Y0140332D01*
X0019690Y0140396D01*
X0019669Y0140461D01*
X0019651Y0140528D01*
X0019637Y0140595D01*
X0019627Y0140663D01*
X0019621Y0140731D01*
X0019619Y0140800D01*
X0032719Y0150600D02*
X0032721Y0150669D01*
X0032727Y0150737D01*
X0032737Y0150805D01*
X0032751Y0150872D01*
X0032769Y0150939D01*
X0032790Y0151004D01*
X0032816Y0151068D01*
X0032845Y0151130D01*
X0032877Y0151190D01*
X0032913Y0151249D01*
X0032953Y0151305D01*
X0032995Y0151359D01*
X0033041Y0151410D01*
X0033090Y0151459D01*
X0033141Y0151505D01*
X0033195Y0151547D01*
X0033251Y0151587D01*
X0033309Y0151623D01*
X0033370Y0151655D01*
X0033432Y0151684D01*
X0033496Y0151710D01*
X0033561Y0151731D01*
X0033628Y0151749D01*
X0033695Y0151763D01*
X0033763Y0151773D01*
X0033831Y0151779D01*
X0033900Y0151781D01*
X0033969Y0151779D01*
X0034037Y0151773D01*
X0034105Y0151763D01*
X0034172Y0151749D01*
X0034239Y0151731D01*
X0034304Y0151710D01*
X0034368Y0151684D01*
X0034430Y0151655D01*
X0034490Y0151623D01*
X0034549Y0151587D01*
X0034605Y0151547D01*
X0034659Y0151505D01*
X0034710Y0151459D01*
X0034759Y0151410D01*
X0034805Y0151359D01*
X0034847Y0151305D01*
X0034887Y0151249D01*
X0034923Y0151190D01*
X0034955Y0151130D01*
X0034984Y0151068D01*
X0035010Y0151004D01*
X0035031Y0150939D01*
X0035049Y0150872D01*
X0035063Y0150805D01*
X0035073Y0150737D01*
X0035079Y0150669D01*
X0035081Y0150600D01*
X0035079Y0150531D01*
X0035073Y0150463D01*
X0035063Y0150395D01*
X0035049Y0150328D01*
X0035031Y0150261D01*
X0035010Y0150196D01*
X0034984Y0150132D01*
X0034955Y0150070D01*
X0034923Y0150009D01*
X0034887Y0149951D01*
X0034847Y0149895D01*
X0034805Y0149841D01*
X0034759Y0149790D01*
X0034710Y0149741D01*
X0034659Y0149695D01*
X0034605Y0149653D01*
X0034549Y0149613D01*
X0034491Y0149577D01*
X0034430Y0149545D01*
X0034368Y0149516D01*
X0034304Y0149490D01*
X0034239Y0149469D01*
X0034172Y0149451D01*
X0034105Y0149437D01*
X0034037Y0149427D01*
X0033969Y0149421D01*
X0033900Y0149419D01*
X0033831Y0149421D01*
X0033763Y0149427D01*
X0033695Y0149437D01*
X0033628Y0149451D01*
X0033561Y0149469D01*
X0033496Y0149490D01*
X0033432Y0149516D01*
X0033370Y0149545D01*
X0033309Y0149577D01*
X0033251Y0149613D01*
X0033195Y0149653D01*
X0033141Y0149695D01*
X0033090Y0149741D01*
X0033041Y0149790D01*
X0032995Y0149841D01*
X0032953Y0149895D01*
X0032913Y0149951D01*
X0032877Y0150009D01*
X0032845Y0150070D01*
X0032816Y0150132D01*
X0032790Y0150196D01*
X0032769Y0150261D01*
X0032751Y0150328D01*
X0032737Y0150395D01*
X0032727Y0150463D01*
X0032721Y0150531D01*
X0032719Y0150600D01*
X0039019Y0150500D02*
X0039021Y0150569D01*
X0039027Y0150637D01*
X0039037Y0150705D01*
X0039051Y0150772D01*
X0039069Y0150839D01*
X0039090Y0150904D01*
X0039116Y0150968D01*
X0039145Y0151030D01*
X0039177Y0151090D01*
X0039213Y0151149D01*
X0039253Y0151205D01*
X0039295Y0151259D01*
X0039341Y0151310D01*
X0039390Y0151359D01*
X0039441Y0151405D01*
X0039495Y0151447D01*
X0039551Y0151487D01*
X0039609Y0151523D01*
X0039670Y0151555D01*
X0039732Y0151584D01*
X0039796Y0151610D01*
X0039861Y0151631D01*
X0039928Y0151649D01*
X0039995Y0151663D01*
X0040063Y0151673D01*
X0040131Y0151679D01*
X0040200Y0151681D01*
X0040269Y0151679D01*
X0040337Y0151673D01*
X0040405Y0151663D01*
X0040472Y0151649D01*
X0040539Y0151631D01*
X0040604Y0151610D01*
X0040668Y0151584D01*
X0040730Y0151555D01*
X0040790Y0151523D01*
X0040849Y0151487D01*
X0040905Y0151447D01*
X0040959Y0151405D01*
X0041010Y0151359D01*
X0041059Y0151310D01*
X0041105Y0151259D01*
X0041147Y0151205D01*
X0041187Y0151149D01*
X0041223Y0151090D01*
X0041255Y0151030D01*
X0041284Y0150968D01*
X0041310Y0150904D01*
X0041331Y0150839D01*
X0041349Y0150772D01*
X0041363Y0150705D01*
X0041373Y0150637D01*
X0041379Y0150569D01*
X0041381Y0150500D01*
X0041379Y0150431D01*
X0041373Y0150363D01*
X0041363Y0150295D01*
X0041349Y0150228D01*
X0041331Y0150161D01*
X0041310Y0150096D01*
X0041284Y0150032D01*
X0041255Y0149970D01*
X0041223Y0149909D01*
X0041187Y0149851D01*
X0041147Y0149795D01*
X0041105Y0149741D01*
X0041059Y0149690D01*
X0041010Y0149641D01*
X0040959Y0149595D01*
X0040905Y0149553D01*
X0040849Y0149513D01*
X0040791Y0149477D01*
X0040730Y0149445D01*
X0040668Y0149416D01*
X0040604Y0149390D01*
X0040539Y0149369D01*
X0040472Y0149351D01*
X0040405Y0149337D01*
X0040337Y0149327D01*
X0040269Y0149321D01*
X0040200Y0149319D01*
X0040131Y0149321D01*
X0040063Y0149327D01*
X0039995Y0149337D01*
X0039928Y0149351D01*
X0039861Y0149369D01*
X0039796Y0149390D01*
X0039732Y0149416D01*
X0039670Y0149445D01*
X0039609Y0149477D01*
X0039551Y0149513D01*
X0039495Y0149553D01*
X0039441Y0149595D01*
X0039390Y0149641D01*
X0039341Y0149690D01*
X0039295Y0149741D01*
X0039253Y0149795D01*
X0039213Y0149851D01*
X0039177Y0149909D01*
X0039145Y0149970D01*
X0039116Y0150032D01*
X0039090Y0150096D01*
X0039069Y0150161D01*
X0039051Y0150228D01*
X0039037Y0150295D01*
X0039027Y0150363D01*
X0039021Y0150431D01*
X0039019Y0150500D01*
X0078919Y0150800D02*
X0078921Y0150869D01*
X0078927Y0150937D01*
X0078937Y0151005D01*
X0078951Y0151072D01*
X0078969Y0151139D01*
X0078990Y0151204D01*
X0079016Y0151268D01*
X0079045Y0151330D01*
X0079077Y0151390D01*
X0079113Y0151449D01*
X0079153Y0151505D01*
X0079195Y0151559D01*
X0079241Y0151610D01*
X0079290Y0151659D01*
X0079341Y0151705D01*
X0079395Y0151747D01*
X0079451Y0151787D01*
X0079509Y0151823D01*
X0079570Y0151855D01*
X0079632Y0151884D01*
X0079696Y0151910D01*
X0079761Y0151931D01*
X0079828Y0151949D01*
X0079895Y0151963D01*
X0079963Y0151973D01*
X0080031Y0151979D01*
X0080100Y0151981D01*
X0080169Y0151979D01*
X0080237Y0151973D01*
X0080305Y0151963D01*
X0080372Y0151949D01*
X0080439Y0151931D01*
X0080504Y0151910D01*
X0080568Y0151884D01*
X0080630Y0151855D01*
X0080690Y0151823D01*
X0080749Y0151787D01*
X0080805Y0151747D01*
X0080859Y0151705D01*
X0080910Y0151659D01*
X0080959Y0151610D01*
X0081005Y0151559D01*
X0081047Y0151505D01*
X0081087Y0151449D01*
X0081123Y0151390D01*
X0081155Y0151330D01*
X0081184Y0151268D01*
X0081210Y0151204D01*
X0081231Y0151139D01*
X0081249Y0151072D01*
X0081263Y0151005D01*
X0081273Y0150937D01*
X0081279Y0150869D01*
X0081281Y0150800D01*
X0081279Y0150731D01*
X0081273Y0150663D01*
X0081263Y0150595D01*
X0081249Y0150528D01*
X0081231Y0150461D01*
X0081210Y0150396D01*
X0081184Y0150332D01*
X0081155Y0150270D01*
X0081123Y0150209D01*
X0081087Y0150151D01*
X0081047Y0150095D01*
X0081005Y0150041D01*
X0080959Y0149990D01*
X0080910Y0149941D01*
X0080859Y0149895D01*
X0080805Y0149853D01*
X0080749Y0149813D01*
X0080691Y0149777D01*
X0080630Y0149745D01*
X0080568Y0149716D01*
X0080504Y0149690D01*
X0080439Y0149669D01*
X0080372Y0149651D01*
X0080305Y0149637D01*
X0080237Y0149627D01*
X0080169Y0149621D01*
X0080100Y0149619D01*
X0080031Y0149621D01*
X0079963Y0149627D01*
X0079895Y0149637D01*
X0079828Y0149651D01*
X0079761Y0149669D01*
X0079696Y0149690D01*
X0079632Y0149716D01*
X0079570Y0149745D01*
X0079509Y0149777D01*
X0079451Y0149813D01*
X0079395Y0149853D01*
X0079341Y0149895D01*
X0079290Y0149941D01*
X0079241Y0149990D01*
X0079195Y0150041D01*
X0079153Y0150095D01*
X0079113Y0150151D01*
X0079077Y0150209D01*
X0079045Y0150270D01*
X0079016Y0150332D01*
X0078990Y0150396D01*
X0078969Y0150461D01*
X0078951Y0150528D01*
X0078937Y0150595D01*
X0078927Y0150663D01*
X0078921Y0150731D01*
X0078919Y0150800D01*
X0084919Y0150800D02*
X0084921Y0150869D01*
X0084927Y0150937D01*
X0084937Y0151005D01*
X0084951Y0151072D01*
X0084969Y0151139D01*
X0084990Y0151204D01*
X0085016Y0151268D01*
X0085045Y0151330D01*
X0085077Y0151390D01*
X0085113Y0151449D01*
X0085153Y0151505D01*
X0085195Y0151559D01*
X0085241Y0151610D01*
X0085290Y0151659D01*
X0085341Y0151705D01*
X0085395Y0151747D01*
X0085451Y0151787D01*
X0085509Y0151823D01*
X0085570Y0151855D01*
X0085632Y0151884D01*
X0085696Y0151910D01*
X0085761Y0151931D01*
X0085828Y0151949D01*
X0085895Y0151963D01*
X0085963Y0151973D01*
X0086031Y0151979D01*
X0086100Y0151981D01*
X0086169Y0151979D01*
X0086237Y0151973D01*
X0086305Y0151963D01*
X0086372Y0151949D01*
X0086439Y0151931D01*
X0086504Y0151910D01*
X0086568Y0151884D01*
X0086630Y0151855D01*
X0086690Y0151823D01*
X0086749Y0151787D01*
X0086805Y0151747D01*
X0086859Y0151705D01*
X0086910Y0151659D01*
X0086959Y0151610D01*
X0087005Y0151559D01*
X0087047Y0151505D01*
X0087087Y0151449D01*
X0087123Y0151390D01*
X0087155Y0151330D01*
X0087184Y0151268D01*
X0087210Y0151204D01*
X0087231Y0151139D01*
X0087249Y0151072D01*
X0087263Y0151005D01*
X0087273Y0150937D01*
X0087279Y0150869D01*
X0087281Y0150800D01*
X0087279Y0150731D01*
X0087273Y0150663D01*
X0087263Y0150595D01*
X0087249Y0150528D01*
X0087231Y0150461D01*
X0087210Y0150396D01*
X0087184Y0150332D01*
X0087155Y0150270D01*
X0087123Y0150209D01*
X0087087Y0150151D01*
X0087047Y0150095D01*
X0087005Y0150041D01*
X0086959Y0149990D01*
X0086910Y0149941D01*
X0086859Y0149895D01*
X0086805Y0149853D01*
X0086749Y0149813D01*
X0086691Y0149777D01*
X0086630Y0149745D01*
X0086568Y0149716D01*
X0086504Y0149690D01*
X0086439Y0149669D01*
X0086372Y0149651D01*
X0086305Y0149637D01*
X0086237Y0149627D01*
X0086169Y0149621D01*
X0086100Y0149619D01*
X0086031Y0149621D01*
X0085963Y0149627D01*
X0085895Y0149637D01*
X0085828Y0149651D01*
X0085761Y0149669D01*
X0085696Y0149690D01*
X0085632Y0149716D01*
X0085570Y0149745D01*
X0085509Y0149777D01*
X0085451Y0149813D01*
X0085395Y0149853D01*
X0085341Y0149895D01*
X0085290Y0149941D01*
X0085241Y0149990D01*
X0085195Y0150041D01*
X0085153Y0150095D01*
X0085113Y0150151D01*
X0085077Y0150209D01*
X0085045Y0150270D01*
X0085016Y0150332D01*
X0084990Y0150396D01*
X0084969Y0150461D01*
X0084951Y0150528D01*
X0084937Y0150595D01*
X0084927Y0150663D01*
X0084921Y0150731D01*
X0084919Y0150800D01*
X0099219Y0140400D02*
X0099221Y0140469D01*
X0099227Y0140537D01*
X0099237Y0140605D01*
X0099251Y0140672D01*
X0099269Y0140739D01*
X0099290Y0140804D01*
X0099316Y0140868D01*
X0099345Y0140930D01*
X0099377Y0140990D01*
X0099413Y0141049D01*
X0099453Y0141105D01*
X0099495Y0141159D01*
X0099541Y0141210D01*
X0099590Y0141259D01*
X0099641Y0141305D01*
X0099695Y0141347D01*
X0099751Y0141387D01*
X0099809Y0141423D01*
X0099870Y0141455D01*
X0099932Y0141484D01*
X0099996Y0141510D01*
X0100061Y0141531D01*
X0100128Y0141549D01*
X0100195Y0141563D01*
X0100263Y0141573D01*
X0100331Y0141579D01*
X0100400Y0141581D01*
X0100469Y0141579D01*
X0100537Y0141573D01*
X0100605Y0141563D01*
X0100672Y0141549D01*
X0100739Y0141531D01*
X0100804Y0141510D01*
X0100868Y0141484D01*
X0100930Y0141455D01*
X0100990Y0141423D01*
X0101049Y0141387D01*
X0101105Y0141347D01*
X0101159Y0141305D01*
X0101210Y0141259D01*
X0101259Y0141210D01*
X0101305Y0141159D01*
X0101347Y0141105D01*
X0101387Y0141049D01*
X0101423Y0140990D01*
X0101455Y0140930D01*
X0101484Y0140868D01*
X0101510Y0140804D01*
X0101531Y0140739D01*
X0101549Y0140672D01*
X0101563Y0140605D01*
X0101573Y0140537D01*
X0101579Y0140469D01*
X0101581Y0140400D01*
X0101579Y0140331D01*
X0101573Y0140263D01*
X0101563Y0140195D01*
X0101549Y0140128D01*
X0101531Y0140061D01*
X0101510Y0139996D01*
X0101484Y0139932D01*
X0101455Y0139870D01*
X0101423Y0139809D01*
X0101387Y0139751D01*
X0101347Y0139695D01*
X0101305Y0139641D01*
X0101259Y0139590D01*
X0101210Y0139541D01*
X0101159Y0139495D01*
X0101105Y0139453D01*
X0101049Y0139413D01*
X0100991Y0139377D01*
X0100930Y0139345D01*
X0100868Y0139316D01*
X0100804Y0139290D01*
X0100739Y0139269D01*
X0100672Y0139251D01*
X0100605Y0139237D01*
X0100537Y0139227D01*
X0100469Y0139221D01*
X0100400Y0139219D01*
X0100331Y0139221D01*
X0100263Y0139227D01*
X0100195Y0139237D01*
X0100128Y0139251D01*
X0100061Y0139269D01*
X0099996Y0139290D01*
X0099932Y0139316D01*
X0099870Y0139345D01*
X0099809Y0139377D01*
X0099751Y0139413D01*
X0099695Y0139453D01*
X0099641Y0139495D01*
X0099590Y0139541D01*
X0099541Y0139590D01*
X0099495Y0139641D01*
X0099453Y0139695D01*
X0099413Y0139751D01*
X0099377Y0139809D01*
X0099345Y0139870D01*
X0099316Y0139932D01*
X0099290Y0139996D01*
X0099269Y0140061D01*
X0099251Y0140128D01*
X0099237Y0140195D01*
X0099227Y0140263D01*
X0099221Y0140331D01*
X0099219Y0140400D01*
X0104319Y0129000D02*
X0104321Y0129069D01*
X0104327Y0129137D01*
X0104337Y0129205D01*
X0104351Y0129272D01*
X0104369Y0129339D01*
X0104390Y0129404D01*
X0104416Y0129468D01*
X0104445Y0129530D01*
X0104477Y0129590D01*
X0104513Y0129649D01*
X0104553Y0129705D01*
X0104595Y0129759D01*
X0104641Y0129810D01*
X0104690Y0129859D01*
X0104741Y0129905D01*
X0104795Y0129947D01*
X0104851Y0129987D01*
X0104909Y0130023D01*
X0104970Y0130055D01*
X0105032Y0130084D01*
X0105096Y0130110D01*
X0105161Y0130131D01*
X0105228Y0130149D01*
X0105295Y0130163D01*
X0105363Y0130173D01*
X0105431Y0130179D01*
X0105500Y0130181D01*
X0105569Y0130179D01*
X0105637Y0130173D01*
X0105705Y0130163D01*
X0105772Y0130149D01*
X0105839Y0130131D01*
X0105904Y0130110D01*
X0105968Y0130084D01*
X0106030Y0130055D01*
X0106090Y0130023D01*
X0106149Y0129987D01*
X0106205Y0129947D01*
X0106259Y0129905D01*
X0106310Y0129859D01*
X0106359Y0129810D01*
X0106405Y0129759D01*
X0106447Y0129705D01*
X0106487Y0129649D01*
X0106523Y0129590D01*
X0106555Y0129530D01*
X0106584Y0129468D01*
X0106610Y0129404D01*
X0106631Y0129339D01*
X0106649Y0129272D01*
X0106663Y0129205D01*
X0106673Y0129137D01*
X0106679Y0129069D01*
X0106681Y0129000D01*
X0106679Y0128931D01*
X0106673Y0128863D01*
X0106663Y0128795D01*
X0106649Y0128728D01*
X0106631Y0128661D01*
X0106610Y0128596D01*
X0106584Y0128532D01*
X0106555Y0128470D01*
X0106523Y0128409D01*
X0106487Y0128351D01*
X0106447Y0128295D01*
X0106405Y0128241D01*
X0106359Y0128190D01*
X0106310Y0128141D01*
X0106259Y0128095D01*
X0106205Y0128053D01*
X0106149Y0128013D01*
X0106091Y0127977D01*
X0106030Y0127945D01*
X0105968Y0127916D01*
X0105904Y0127890D01*
X0105839Y0127869D01*
X0105772Y0127851D01*
X0105705Y0127837D01*
X0105637Y0127827D01*
X0105569Y0127821D01*
X0105500Y0127819D01*
X0105431Y0127821D01*
X0105363Y0127827D01*
X0105295Y0127837D01*
X0105228Y0127851D01*
X0105161Y0127869D01*
X0105096Y0127890D01*
X0105032Y0127916D01*
X0104970Y0127945D01*
X0104909Y0127977D01*
X0104851Y0128013D01*
X0104795Y0128053D01*
X0104741Y0128095D01*
X0104690Y0128141D01*
X0104641Y0128190D01*
X0104595Y0128241D01*
X0104553Y0128295D01*
X0104513Y0128351D01*
X0104477Y0128409D01*
X0104445Y0128470D01*
X0104416Y0128532D01*
X0104390Y0128596D01*
X0104369Y0128661D01*
X0104351Y0128728D01*
X0104337Y0128795D01*
X0104327Y0128863D01*
X0104321Y0128931D01*
X0104319Y0129000D01*
X0107819Y0122000D02*
X0107821Y0122069D01*
X0107827Y0122137D01*
X0107837Y0122205D01*
X0107851Y0122272D01*
X0107869Y0122339D01*
X0107890Y0122404D01*
X0107916Y0122468D01*
X0107945Y0122530D01*
X0107977Y0122590D01*
X0108013Y0122649D01*
X0108053Y0122705D01*
X0108095Y0122759D01*
X0108141Y0122810D01*
X0108190Y0122859D01*
X0108241Y0122905D01*
X0108295Y0122947D01*
X0108351Y0122987D01*
X0108409Y0123023D01*
X0108470Y0123055D01*
X0108532Y0123084D01*
X0108596Y0123110D01*
X0108661Y0123131D01*
X0108728Y0123149D01*
X0108795Y0123163D01*
X0108863Y0123173D01*
X0108931Y0123179D01*
X0109000Y0123181D01*
X0109069Y0123179D01*
X0109137Y0123173D01*
X0109205Y0123163D01*
X0109272Y0123149D01*
X0109339Y0123131D01*
X0109404Y0123110D01*
X0109468Y0123084D01*
X0109530Y0123055D01*
X0109590Y0123023D01*
X0109649Y0122987D01*
X0109705Y0122947D01*
X0109759Y0122905D01*
X0109810Y0122859D01*
X0109859Y0122810D01*
X0109905Y0122759D01*
X0109947Y0122705D01*
X0109987Y0122649D01*
X0110023Y0122590D01*
X0110055Y0122530D01*
X0110084Y0122468D01*
X0110110Y0122404D01*
X0110131Y0122339D01*
X0110149Y0122272D01*
X0110163Y0122205D01*
X0110173Y0122137D01*
X0110179Y0122069D01*
X0110181Y0122000D01*
X0110179Y0121931D01*
X0110173Y0121863D01*
X0110163Y0121795D01*
X0110149Y0121728D01*
X0110131Y0121661D01*
X0110110Y0121596D01*
X0110084Y0121532D01*
X0110055Y0121470D01*
X0110023Y0121409D01*
X0109987Y0121351D01*
X0109947Y0121295D01*
X0109905Y0121241D01*
X0109859Y0121190D01*
X0109810Y0121141D01*
X0109759Y0121095D01*
X0109705Y0121053D01*
X0109649Y0121013D01*
X0109591Y0120977D01*
X0109530Y0120945D01*
X0109468Y0120916D01*
X0109404Y0120890D01*
X0109339Y0120869D01*
X0109272Y0120851D01*
X0109205Y0120837D01*
X0109137Y0120827D01*
X0109069Y0120821D01*
X0109000Y0120819D01*
X0108931Y0120821D01*
X0108863Y0120827D01*
X0108795Y0120837D01*
X0108728Y0120851D01*
X0108661Y0120869D01*
X0108596Y0120890D01*
X0108532Y0120916D01*
X0108470Y0120945D01*
X0108409Y0120977D01*
X0108351Y0121013D01*
X0108295Y0121053D01*
X0108241Y0121095D01*
X0108190Y0121141D01*
X0108141Y0121190D01*
X0108095Y0121241D01*
X0108053Y0121295D01*
X0108013Y0121351D01*
X0107977Y0121409D01*
X0107945Y0121470D01*
X0107916Y0121532D01*
X0107890Y0121596D01*
X0107869Y0121661D01*
X0107851Y0121728D01*
X0107837Y0121795D01*
X0107827Y0121863D01*
X0107821Y0121931D01*
X0107819Y0122000D01*
X0107819Y0109000D02*
X0107821Y0109069D01*
X0107827Y0109137D01*
X0107837Y0109205D01*
X0107851Y0109272D01*
X0107869Y0109339D01*
X0107890Y0109404D01*
X0107916Y0109468D01*
X0107945Y0109530D01*
X0107977Y0109590D01*
X0108013Y0109649D01*
X0108053Y0109705D01*
X0108095Y0109759D01*
X0108141Y0109810D01*
X0108190Y0109859D01*
X0108241Y0109905D01*
X0108295Y0109947D01*
X0108351Y0109987D01*
X0108409Y0110023D01*
X0108470Y0110055D01*
X0108532Y0110084D01*
X0108596Y0110110D01*
X0108661Y0110131D01*
X0108728Y0110149D01*
X0108795Y0110163D01*
X0108863Y0110173D01*
X0108931Y0110179D01*
X0109000Y0110181D01*
X0109069Y0110179D01*
X0109137Y0110173D01*
X0109205Y0110163D01*
X0109272Y0110149D01*
X0109339Y0110131D01*
X0109404Y0110110D01*
X0109468Y0110084D01*
X0109530Y0110055D01*
X0109590Y0110023D01*
X0109649Y0109987D01*
X0109705Y0109947D01*
X0109759Y0109905D01*
X0109810Y0109859D01*
X0109859Y0109810D01*
X0109905Y0109759D01*
X0109947Y0109705D01*
X0109987Y0109649D01*
X0110023Y0109590D01*
X0110055Y0109530D01*
X0110084Y0109468D01*
X0110110Y0109404D01*
X0110131Y0109339D01*
X0110149Y0109272D01*
X0110163Y0109205D01*
X0110173Y0109137D01*
X0110179Y0109069D01*
X0110181Y0109000D01*
X0110179Y0108931D01*
X0110173Y0108863D01*
X0110163Y0108795D01*
X0110149Y0108728D01*
X0110131Y0108661D01*
X0110110Y0108596D01*
X0110084Y0108532D01*
X0110055Y0108470D01*
X0110023Y0108409D01*
X0109987Y0108351D01*
X0109947Y0108295D01*
X0109905Y0108241D01*
X0109859Y0108190D01*
X0109810Y0108141D01*
X0109759Y0108095D01*
X0109705Y0108053D01*
X0109649Y0108013D01*
X0109591Y0107977D01*
X0109530Y0107945D01*
X0109468Y0107916D01*
X0109404Y0107890D01*
X0109339Y0107869D01*
X0109272Y0107851D01*
X0109205Y0107837D01*
X0109137Y0107827D01*
X0109069Y0107821D01*
X0109000Y0107819D01*
X0108931Y0107821D01*
X0108863Y0107827D01*
X0108795Y0107837D01*
X0108728Y0107851D01*
X0108661Y0107869D01*
X0108596Y0107890D01*
X0108532Y0107916D01*
X0108470Y0107945D01*
X0108409Y0107977D01*
X0108351Y0108013D01*
X0108295Y0108053D01*
X0108241Y0108095D01*
X0108190Y0108141D01*
X0108141Y0108190D01*
X0108095Y0108241D01*
X0108053Y0108295D01*
X0108013Y0108351D01*
X0107977Y0108409D01*
X0107945Y0108470D01*
X0107916Y0108532D01*
X0107890Y0108596D01*
X0107869Y0108661D01*
X0107851Y0108728D01*
X0107837Y0108795D01*
X0107827Y0108863D01*
X0107821Y0108931D01*
X0107819Y0109000D01*
X0107819Y0096000D02*
X0107821Y0096069D01*
X0107827Y0096137D01*
X0107837Y0096205D01*
X0107851Y0096272D01*
X0107869Y0096339D01*
X0107890Y0096404D01*
X0107916Y0096468D01*
X0107945Y0096530D01*
X0107977Y0096590D01*
X0108013Y0096649D01*
X0108053Y0096705D01*
X0108095Y0096759D01*
X0108141Y0096810D01*
X0108190Y0096859D01*
X0108241Y0096905D01*
X0108295Y0096947D01*
X0108351Y0096987D01*
X0108409Y0097023D01*
X0108470Y0097055D01*
X0108532Y0097084D01*
X0108596Y0097110D01*
X0108661Y0097131D01*
X0108728Y0097149D01*
X0108795Y0097163D01*
X0108863Y0097173D01*
X0108931Y0097179D01*
X0109000Y0097181D01*
X0109069Y0097179D01*
X0109137Y0097173D01*
X0109205Y0097163D01*
X0109272Y0097149D01*
X0109339Y0097131D01*
X0109404Y0097110D01*
X0109468Y0097084D01*
X0109530Y0097055D01*
X0109590Y0097023D01*
X0109649Y0096987D01*
X0109705Y0096947D01*
X0109759Y0096905D01*
X0109810Y0096859D01*
X0109859Y0096810D01*
X0109905Y0096759D01*
X0109947Y0096705D01*
X0109987Y0096649D01*
X0110023Y0096590D01*
X0110055Y0096530D01*
X0110084Y0096468D01*
X0110110Y0096404D01*
X0110131Y0096339D01*
X0110149Y0096272D01*
X0110163Y0096205D01*
X0110173Y0096137D01*
X0110179Y0096069D01*
X0110181Y0096000D01*
X0110179Y0095931D01*
X0110173Y0095863D01*
X0110163Y0095795D01*
X0110149Y0095728D01*
X0110131Y0095661D01*
X0110110Y0095596D01*
X0110084Y0095532D01*
X0110055Y0095470D01*
X0110023Y0095409D01*
X0109987Y0095351D01*
X0109947Y0095295D01*
X0109905Y0095241D01*
X0109859Y0095190D01*
X0109810Y0095141D01*
X0109759Y0095095D01*
X0109705Y0095053D01*
X0109649Y0095013D01*
X0109591Y0094977D01*
X0109530Y0094945D01*
X0109468Y0094916D01*
X0109404Y0094890D01*
X0109339Y0094869D01*
X0109272Y0094851D01*
X0109205Y0094837D01*
X0109137Y0094827D01*
X0109069Y0094821D01*
X0109000Y0094819D01*
X0108931Y0094821D01*
X0108863Y0094827D01*
X0108795Y0094837D01*
X0108728Y0094851D01*
X0108661Y0094869D01*
X0108596Y0094890D01*
X0108532Y0094916D01*
X0108470Y0094945D01*
X0108409Y0094977D01*
X0108351Y0095013D01*
X0108295Y0095053D01*
X0108241Y0095095D01*
X0108190Y0095141D01*
X0108141Y0095190D01*
X0108095Y0095241D01*
X0108053Y0095295D01*
X0108013Y0095351D01*
X0107977Y0095409D01*
X0107945Y0095470D01*
X0107916Y0095532D01*
X0107890Y0095596D01*
X0107869Y0095661D01*
X0107851Y0095728D01*
X0107837Y0095795D01*
X0107827Y0095863D01*
X0107821Y0095931D01*
X0107819Y0096000D01*
X0099819Y0084000D02*
X0099821Y0084069D01*
X0099827Y0084137D01*
X0099837Y0084205D01*
X0099851Y0084272D01*
X0099869Y0084339D01*
X0099890Y0084404D01*
X0099916Y0084468D01*
X0099945Y0084530D01*
X0099977Y0084590D01*
X0100013Y0084649D01*
X0100053Y0084705D01*
X0100095Y0084759D01*
X0100141Y0084810D01*
X0100190Y0084859D01*
X0100241Y0084905D01*
X0100295Y0084947D01*
X0100351Y0084987D01*
X0100409Y0085023D01*
X0100470Y0085055D01*
X0100532Y0085084D01*
X0100596Y0085110D01*
X0100661Y0085131D01*
X0100728Y0085149D01*
X0100795Y0085163D01*
X0100863Y0085173D01*
X0100931Y0085179D01*
X0101000Y0085181D01*
X0101069Y0085179D01*
X0101137Y0085173D01*
X0101205Y0085163D01*
X0101272Y0085149D01*
X0101339Y0085131D01*
X0101404Y0085110D01*
X0101468Y0085084D01*
X0101530Y0085055D01*
X0101590Y0085023D01*
X0101649Y0084987D01*
X0101705Y0084947D01*
X0101759Y0084905D01*
X0101810Y0084859D01*
X0101859Y0084810D01*
X0101905Y0084759D01*
X0101947Y0084705D01*
X0101987Y0084649D01*
X0102023Y0084590D01*
X0102055Y0084530D01*
X0102084Y0084468D01*
X0102110Y0084404D01*
X0102131Y0084339D01*
X0102149Y0084272D01*
X0102163Y0084205D01*
X0102173Y0084137D01*
X0102179Y0084069D01*
X0102181Y0084000D01*
X0102179Y0083931D01*
X0102173Y0083863D01*
X0102163Y0083795D01*
X0102149Y0083728D01*
X0102131Y0083661D01*
X0102110Y0083596D01*
X0102084Y0083532D01*
X0102055Y0083470D01*
X0102023Y0083409D01*
X0101987Y0083351D01*
X0101947Y0083295D01*
X0101905Y0083241D01*
X0101859Y0083190D01*
X0101810Y0083141D01*
X0101759Y0083095D01*
X0101705Y0083053D01*
X0101649Y0083013D01*
X0101591Y0082977D01*
X0101530Y0082945D01*
X0101468Y0082916D01*
X0101404Y0082890D01*
X0101339Y0082869D01*
X0101272Y0082851D01*
X0101205Y0082837D01*
X0101137Y0082827D01*
X0101069Y0082821D01*
X0101000Y0082819D01*
X0100931Y0082821D01*
X0100863Y0082827D01*
X0100795Y0082837D01*
X0100728Y0082851D01*
X0100661Y0082869D01*
X0100596Y0082890D01*
X0100532Y0082916D01*
X0100470Y0082945D01*
X0100409Y0082977D01*
X0100351Y0083013D01*
X0100295Y0083053D01*
X0100241Y0083095D01*
X0100190Y0083141D01*
X0100141Y0083190D01*
X0100095Y0083241D01*
X0100053Y0083295D01*
X0100013Y0083351D01*
X0099977Y0083409D01*
X0099945Y0083470D01*
X0099916Y0083532D01*
X0099890Y0083596D01*
X0099869Y0083661D01*
X0099851Y0083728D01*
X0099837Y0083795D01*
X0099827Y0083863D01*
X0099821Y0083931D01*
X0099819Y0084000D01*
X0099819Y0077000D02*
X0099821Y0077069D01*
X0099827Y0077137D01*
X0099837Y0077205D01*
X0099851Y0077272D01*
X0099869Y0077339D01*
X0099890Y0077404D01*
X0099916Y0077468D01*
X0099945Y0077530D01*
X0099977Y0077590D01*
X0100013Y0077649D01*
X0100053Y0077705D01*
X0100095Y0077759D01*
X0100141Y0077810D01*
X0100190Y0077859D01*
X0100241Y0077905D01*
X0100295Y0077947D01*
X0100351Y0077987D01*
X0100409Y0078023D01*
X0100470Y0078055D01*
X0100532Y0078084D01*
X0100596Y0078110D01*
X0100661Y0078131D01*
X0100728Y0078149D01*
X0100795Y0078163D01*
X0100863Y0078173D01*
X0100931Y0078179D01*
X0101000Y0078181D01*
X0101069Y0078179D01*
X0101137Y0078173D01*
X0101205Y0078163D01*
X0101272Y0078149D01*
X0101339Y0078131D01*
X0101404Y0078110D01*
X0101468Y0078084D01*
X0101530Y0078055D01*
X0101590Y0078023D01*
X0101649Y0077987D01*
X0101705Y0077947D01*
X0101759Y0077905D01*
X0101810Y0077859D01*
X0101859Y0077810D01*
X0101905Y0077759D01*
X0101947Y0077705D01*
X0101987Y0077649D01*
X0102023Y0077590D01*
X0102055Y0077530D01*
X0102084Y0077468D01*
X0102110Y0077404D01*
X0102131Y0077339D01*
X0102149Y0077272D01*
X0102163Y0077205D01*
X0102173Y0077137D01*
X0102179Y0077069D01*
X0102181Y0077000D01*
X0102179Y0076931D01*
X0102173Y0076863D01*
X0102163Y0076795D01*
X0102149Y0076728D01*
X0102131Y0076661D01*
X0102110Y0076596D01*
X0102084Y0076532D01*
X0102055Y0076470D01*
X0102023Y0076409D01*
X0101987Y0076351D01*
X0101947Y0076295D01*
X0101905Y0076241D01*
X0101859Y0076190D01*
X0101810Y0076141D01*
X0101759Y0076095D01*
X0101705Y0076053D01*
X0101649Y0076013D01*
X0101591Y0075977D01*
X0101530Y0075945D01*
X0101468Y0075916D01*
X0101404Y0075890D01*
X0101339Y0075869D01*
X0101272Y0075851D01*
X0101205Y0075837D01*
X0101137Y0075827D01*
X0101069Y0075821D01*
X0101000Y0075819D01*
X0100931Y0075821D01*
X0100863Y0075827D01*
X0100795Y0075837D01*
X0100728Y0075851D01*
X0100661Y0075869D01*
X0100596Y0075890D01*
X0100532Y0075916D01*
X0100470Y0075945D01*
X0100409Y0075977D01*
X0100351Y0076013D01*
X0100295Y0076053D01*
X0100241Y0076095D01*
X0100190Y0076141D01*
X0100141Y0076190D01*
X0100095Y0076241D01*
X0100053Y0076295D01*
X0100013Y0076351D01*
X0099977Y0076409D01*
X0099945Y0076470D01*
X0099916Y0076532D01*
X0099890Y0076596D01*
X0099869Y0076661D01*
X0099851Y0076728D01*
X0099837Y0076795D01*
X0099827Y0076863D01*
X0099821Y0076931D01*
X0099819Y0077000D01*
X0107819Y0066000D02*
X0107821Y0066069D01*
X0107827Y0066137D01*
X0107837Y0066205D01*
X0107851Y0066272D01*
X0107869Y0066339D01*
X0107890Y0066404D01*
X0107916Y0066468D01*
X0107945Y0066530D01*
X0107977Y0066590D01*
X0108013Y0066649D01*
X0108053Y0066705D01*
X0108095Y0066759D01*
X0108141Y0066810D01*
X0108190Y0066859D01*
X0108241Y0066905D01*
X0108295Y0066947D01*
X0108351Y0066987D01*
X0108409Y0067023D01*
X0108470Y0067055D01*
X0108532Y0067084D01*
X0108596Y0067110D01*
X0108661Y0067131D01*
X0108728Y0067149D01*
X0108795Y0067163D01*
X0108863Y0067173D01*
X0108931Y0067179D01*
X0109000Y0067181D01*
X0109069Y0067179D01*
X0109137Y0067173D01*
X0109205Y0067163D01*
X0109272Y0067149D01*
X0109339Y0067131D01*
X0109404Y0067110D01*
X0109468Y0067084D01*
X0109530Y0067055D01*
X0109590Y0067023D01*
X0109649Y0066987D01*
X0109705Y0066947D01*
X0109759Y0066905D01*
X0109810Y0066859D01*
X0109859Y0066810D01*
X0109905Y0066759D01*
X0109947Y0066705D01*
X0109987Y0066649D01*
X0110023Y0066590D01*
X0110055Y0066530D01*
X0110084Y0066468D01*
X0110110Y0066404D01*
X0110131Y0066339D01*
X0110149Y0066272D01*
X0110163Y0066205D01*
X0110173Y0066137D01*
X0110179Y0066069D01*
X0110181Y0066000D01*
X0110179Y0065931D01*
X0110173Y0065863D01*
X0110163Y0065795D01*
X0110149Y0065728D01*
X0110131Y0065661D01*
X0110110Y0065596D01*
X0110084Y0065532D01*
X0110055Y0065470D01*
X0110023Y0065409D01*
X0109987Y0065351D01*
X0109947Y0065295D01*
X0109905Y0065241D01*
X0109859Y0065190D01*
X0109810Y0065141D01*
X0109759Y0065095D01*
X0109705Y0065053D01*
X0109649Y0065013D01*
X0109591Y0064977D01*
X0109530Y0064945D01*
X0109468Y0064916D01*
X0109404Y0064890D01*
X0109339Y0064869D01*
X0109272Y0064851D01*
X0109205Y0064837D01*
X0109137Y0064827D01*
X0109069Y0064821D01*
X0109000Y0064819D01*
X0108931Y0064821D01*
X0108863Y0064827D01*
X0108795Y0064837D01*
X0108728Y0064851D01*
X0108661Y0064869D01*
X0108596Y0064890D01*
X0108532Y0064916D01*
X0108470Y0064945D01*
X0108409Y0064977D01*
X0108351Y0065013D01*
X0108295Y0065053D01*
X0108241Y0065095D01*
X0108190Y0065141D01*
X0108141Y0065190D01*
X0108095Y0065241D01*
X0108053Y0065295D01*
X0108013Y0065351D01*
X0107977Y0065409D01*
X0107945Y0065470D01*
X0107916Y0065532D01*
X0107890Y0065596D01*
X0107869Y0065661D01*
X0107851Y0065728D01*
X0107837Y0065795D01*
X0107827Y0065863D01*
X0107821Y0065931D01*
X0107819Y0066000D01*
X0107819Y0053000D02*
X0107821Y0053069D01*
X0107827Y0053137D01*
X0107837Y0053205D01*
X0107851Y0053272D01*
X0107869Y0053339D01*
X0107890Y0053404D01*
X0107916Y0053468D01*
X0107945Y0053530D01*
X0107977Y0053590D01*
X0108013Y0053649D01*
X0108053Y0053705D01*
X0108095Y0053759D01*
X0108141Y0053810D01*
X0108190Y0053859D01*
X0108241Y0053905D01*
X0108295Y0053947D01*
X0108351Y0053987D01*
X0108409Y0054023D01*
X0108470Y0054055D01*
X0108532Y0054084D01*
X0108596Y0054110D01*
X0108661Y0054131D01*
X0108728Y0054149D01*
X0108795Y0054163D01*
X0108863Y0054173D01*
X0108931Y0054179D01*
X0109000Y0054181D01*
X0109069Y0054179D01*
X0109137Y0054173D01*
X0109205Y0054163D01*
X0109272Y0054149D01*
X0109339Y0054131D01*
X0109404Y0054110D01*
X0109468Y0054084D01*
X0109530Y0054055D01*
X0109590Y0054023D01*
X0109649Y0053987D01*
X0109705Y0053947D01*
X0109759Y0053905D01*
X0109810Y0053859D01*
X0109859Y0053810D01*
X0109905Y0053759D01*
X0109947Y0053705D01*
X0109987Y0053649D01*
X0110023Y0053590D01*
X0110055Y0053530D01*
X0110084Y0053468D01*
X0110110Y0053404D01*
X0110131Y0053339D01*
X0110149Y0053272D01*
X0110163Y0053205D01*
X0110173Y0053137D01*
X0110179Y0053069D01*
X0110181Y0053000D01*
X0110179Y0052931D01*
X0110173Y0052863D01*
X0110163Y0052795D01*
X0110149Y0052728D01*
X0110131Y0052661D01*
X0110110Y0052596D01*
X0110084Y0052532D01*
X0110055Y0052470D01*
X0110023Y0052409D01*
X0109987Y0052351D01*
X0109947Y0052295D01*
X0109905Y0052241D01*
X0109859Y0052190D01*
X0109810Y0052141D01*
X0109759Y0052095D01*
X0109705Y0052053D01*
X0109649Y0052013D01*
X0109591Y0051977D01*
X0109530Y0051945D01*
X0109468Y0051916D01*
X0109404Y0051890D01*
X0109339Y0051869D01*
X0109272Y0051851D01*
X0109205Y0051837D01*
X0109137Y0051827D01*
X0109069Y0051821D01*
X0109000Y0051819D01*
X0108931Y0051821D01*
X0108863Y0051827D01*
X0108795Y0051837D01*
X0108728Y0051851D01*
X0108661Y0051869D01*
X0108596Y0051890D01*
X0108532Y0051916D01*
X0108470Y0051945D01*
X0108409Y0051977D01*
X0108351Y0052013D01*
X0108295Y0052053D01*
X0108241Y0052095D01*
X0108190Y0052141D01*
X0108141Y0052190D01*
X0108095Y0052241D01*
X0108053Y0052295D01*
X0108013Y0052351D01*
X0107977Y0052409D01*
X0107945Y0052470D01*
X0107916Y0052532D01*
X0107890Y0052596D01*
X0107869Y0052661D01*
X0107851Y0052728D01*
X0107837Y0052795D01*
X0107827Y0052863D01*
X0107821Y0052931D01*
X0107819Y0053000D01*
X0107819Y0040000D02*
X0107821Y0040069D01*
X0107827Y0040137D01*
X0107837Y0040205D01*
X0107851Y0040272D01*
X0107869Y0040339D01*
X0107890Y0040404D01*
X0107916Y0040468D01*
X0107945Y0040530D01*
X0107977Y0040590D01*
X0108013Y0040649D01*
X0108053Y0040705D01*
X0108095Y0040759D01*
X0108141Y0040810D01*
X0108190Y0040859D01*
X0108241Y0040905D01*
X0108295Y0040947D01*
X0108351Y0040987D01*
X0108409Y0041023D01*
X0108470Y0041055D01*
X0108532Y0041084D01*
X0108596Y0041110D01*
X0108661Y0041131D01*
X0108728Y0041149D01*
X0108795Y0041163D01*
X0108863Y0041173D01*
X0108931Y0041179D01*
X0109000Y0041181D01*
X0109069Y0041179D01*
X0109137Y0041173D01*
X0109205Y0041163D01*
X0109272Y0041149D01*
X0109339Y0041131D01*
X0109404Y0041110D01*
X0109468Y0041084D01*
X0109530Y0041055D01*
X0109590Y0041023D01*
X0109649Y0040987D01*
X0109705Y0040947D01*
X0109759Y0040905D01*
X0109810Y0040859D01*
X0109859Y0040810D01*
X0109905Y0040759D01*
X0109947Y0040705D01*
X0109987Y0040649D01*
X0110023Y0040590D01*
X0110055Y0040530D01*
X0110084Y0040468D01*
X0110110Y0040404D01*
X0110131Y0040339D01*
X0110149Y0040272D01*
X0110163Y0040205D01*
X0110173Y0040137D01*
X0110179Y0040069D01*
X0110181Y0040000D01*
X0110179Y0039931D01*
X0110173Y0039863D01*
X0110163Y0039795D01*
X0110149Y0039728D01*
X0110131Y0039661D01*
X0110110Y0039596D01*
X0110084Y0039532D01*
X0110055Y0039470D01*
X0110023Y0039409D01*
X0109987Y0039351D01*
X0109947Y0039295D01*
X0109905Y0039241D01*
X0109859Y0039190D01*
X0109810Y0039141D01*
X0109759Y0039095D01*
X0109705Y0039053D01*
X0109649Y0039013D01*
X0109591Y0038977D01*
X0109530Y0038945D01*
X0109468Y0038916D01*
X0109404Y0038890D01*
X0109339Y0038869D01*
X0109272Y0038851D01*
X0109205Y0038837D01*
X0109137Y0038827D01*
X0109069Y0038821D01*
X0109000Y0038819D01*
X0108931Y0038821D01*
X0108863Y0038827D01*
X0108795Y0038837D01*
X0108728Y0038851D01*
X0108661Y0038869D01*
X0108596Y0038890D01*
X0108532Y0038916D01*
X0108470Y0038945D01*
X0108409Y0038977D01*
X0108351Y0039013D01*
X0108295Y0039053D01*
X0108241Y0039095D01*
X0108190Y0039141D01*
X0108141Y0039190D01*
X0108095Y0039241D01*
X0108053Y0039295D01*
X0108013Y0039351D01*
X0107977Y0039409D01*
X0107945Y0039470D01*
X0107916Y0039532D01*
X0107890Y0039596D01*
X0107869Y0039661D01*
X0107851Y0039728D01*
X0107837Y0039795D01*
X0107827Y0039863D01*
X0107821Y0039931D01*
X0107819Y0040000D01*
X0104319Y0033000D02*
X0104321Y0033069D01*
X0104327Y0033137D01*
X0104337Y0033205D01*
X0104351Y0033272D01*
X0104369Y0033339D01*
X0104390Y0033404D01*
X0104416Y0033468D01*
X0104445Y0033530D01*
X0104477Y0033590D01*
X0104513Y0033649D01*
X0104553Y0033705D01*
X0104595Y0033759D01*
X0104641Y0033810D01*
X0104690Y0033859D01*
X0104741Y0033905D01*
X0104795Y0033947D01*
X0104851Y0033987D01*
X0104909Y0034023D01*
X0104970Y0034055D01*
X0105032Y0034084D01*
X0105096Y0034110D01*
X0105161Y0034131D01*
X0105228Y0034149D01*
X0105295Y0034163D01*
X0105363Y0034173D01*
X0105431Y0034179D01*
X0105500Y0034181D01*
X0105569Y0034179D01*
X0105637Y0034173D01*
X0105705Y0034163D01*
X0105772Y0034149D01*
X0105839Y0034131D01*
X0105904Y0034110D01*
X0105968Y0034084D01*
X0106030Y0034055D01*
X0106090Y0034023D01*
X0106149Y0033987D01*
X0106205Y0033947D01*
X0106259Y0033905D01*
X0106310Y0033859D01*
X0106359Y0033810D01*
X0106405Y0033759D01*
X0106447Y0033705D01*
X0106487Y0033649D01*
X0106523Y0033590D01*
X0106555Y0033530D01*
X0106584Y0033468D01*
X0106610Y0033404D01*
X0106631Y0033339D01*
X0106649Y0033272D01*
X0106663Y0033205D01*
X0106673Y0033137D01*
X0106679Y0033069D01*
X0106681Y0033000D01*
X0106679Y0032931D01*
X0106673Y0032863D01*
X0106663Y0032795D01*
X0106649Y0032728D01*
X0106631Y0032661D01*
X0106610Y0032596D01*
X0106584Y0032532D01*
X0106555Y0032470D01*
X0106523Y0032409D01*
X0106487Y0032351D01*
X0106447Y0032295D01*
X0106405Y0032241D01*
X0106359Y0032190D01*
X0106310Y0032141D01*
X0106259Y0032095D01*
X0106205Y0032053D01*
X0106149Y0032013D01*
X0106091Y0031977D01*
X0106030Y0031945D01*
X0105968Y0031916D01*
X0105904Y0031890D01*
X0105839Y0031869D01*
X0105772Y0031851D01*
X0105705Y0031837D01*
X0105637Y0031827D01*
X0105569Y0031821D01*
X0105500Y0031819D01*
X0105431Y0031821D01*
X0105363Y0031827D01*
X0105295Y0031837D01*
X0105228Y0031851D01*
X0105161Y0031869D01*
X0105096Y0031890D01*
X0105032Y0031916D01*
X0104970Y0031945D01*
X0104909Y0031977D01*
X0104851Y0032013D01*
X0104795Y0032053D01*
X0104741Y0032095D01*
X0104690Y0032141D01*
X0104641Y0032190D01*
X0104595Y0032241D01*
X0104553Y0032295D01*
X0104513Y0032351D01*
X0104477Y0032409D01*
X0104445Y0032470D01*
X0104416Y0032532D01*
X0104390Y0032596D01*
X0104369Y0032661D01*
X0104351Y0032728D01*
X0104337Y0032795D01*
X0104327Y0032863D01*
X0104321Y0032931D01*
X0104319Y0033000D01*
X0098219Y0020200D02*
X0098221Y0020269D01*
X0098227Y0020337D01*
X0098237Y0020405D01*
X0098251Y0020472D01*
X0098269Y0020539D01*
X0098290Y0020604D01*
X0098316Y0020668D01*
X0098345Y0020730D01*
X0098377Y0020790D01*
X0098413Y0020849D01*
X0098453Y0020905D01*
X0098495Y0020959D01*
X0098541Y0021010D01*
X0098590Y0021059D01*
X0098641Y0021105D01*
X0098695Y0021147D01*
X0098751Y0021187D01*
X0098809Y0021223D01*
X0098870Y0021255D01*
X0098932Y0021284D01*
X0098996Y0021310D01*
X0099061Y0021331D01*
X0099128Y0021349D01*
X0099195Y0021363D01*
X0099263Y0021373D01*
X0099331Y0021379D01*
X0099400Y0021381D01*
X0099469Y0021379D01*
X0099537Y0021373D01*
X0099605Y0021363D01*
X0099672Y0021349D01*
X0099739Y0021331D01*
X0099804Y0021310D01*
X0099868Y0021284D01*
X0099930Y0021255D01*
X0099990Y0021223D01*
X0100049Y0021187D01*
X0100105Y0021147D01*
X0100159Y0021105D01*
X0100210Y0021059D01*
X0100259Y0021010D01*
X0100305Y0020959D01*
X0100347Y0020905D01*
X0100387Y0020849D01*
X0100423Y0020790D01*
X0100455Y0020730D01*
X0100484Y0020668D01*
X0100510Y0020604D01*
X0100531Y0020539D01*
X0100549Y0020472D01*
X0100563Y0020405D01*
X0100573Y0020337D01*
X0100579Y0020269D01*
X0100581Y0020200D01*
X0100579Y0020131D01*
X0100573Y0020063D01*
X0100563Y0019995D01*
X0100549Y0019928D01*
X0100531Y0019861D01*
X0100510Y0019796D01*
X0100484Y0019732D01*
X0100455Y0019670D01*
X0100423Y0019609D01*
X0100387Y0019551D01*
X0100347Y0019495D01*
X0100305Y0019441D01*
X0100259Y0019390D01*
X0100210Y0019341D01*
X0100159Y0019295D01*
X0100105Y0019253D01*
X0100049Y0019213D01*
X0099991Y0019177D01*
X0099930Y0019145D01*
X0099868Y0019116D01*
X0099804Y0019090D01*
X0099739Y0019069D01*
X0099672Y0019051D01*
X0099605Y0019037D01*
X0099537Y0019027D01*
X0099469Y0019021D01*
X0099400Y0019019D01*
X0099331Y0019021D01*
X0099263Y0019027D01*
X0099195Y0019037D01*
X0099128Y0019051D01*
X0099061Y0019069D01*
X0098996Y0019090D01*
X0098932Y0019116D01*
X0098870Y0019145D01*
X0098809Y0019177D01*
X0098751Y0019213D01*
X0098695Y0019253D01*
X0098641Y0019295D01*
X0098590Y0019341D01*
X0098541Y0019390D01*
X0098495Y0019441D01*
X0098453Y0019495D01*
X0098413Y0019551D01*
X0098377Y0019609D01*
X0098345Y0019670D01*
X0098316Y0019732D01*
X0098290Y0019796D01*
X0098269Y0019861D01*
X0098251Y0019928D01*
X0098237Y0019995D01*
X0098227Y0020063D01*
X0098221Y0020131D01*
X0098219Y0020200D01*
X0084919Y0012600D02*
X0084921Y0012669D01*
X0084927Y0012737D01*
X0084937Y0012805D01*
X0084951Y0012872D01*
X0084969Y0012939D01*
X0084990Y0013004D01*
X0085016Y0013068D01*
X0085045Y0013130D01*
X0085077Y0013190D01*
X0085113Y0013249D01*
X0085153Y0013305D01*
X0085195Y0013359D01*
X0085241Y0013410D01*
X0085290Y0013459D01*
X0085341Y0013505D01*
X0085395Y0013547D01*
X0085451Y0013587D01*
X0085509Y0013623D01*
X0085570Y0013655D01*
X0085632Y0013684D01*
X0085696Y0013710D01*
X0085761Y0013731D01*
X0085828Y0013749D01*
X0085895Y0013763D01*
X0085963Y0013773D01*
X0086031Y0013779D01*
X0086100Y0013781D01*
X0086169Y0013779D01*
X0086237Y0013773D01*
X0086305Y0013763D01*
X0086372Y0013749D01*
X0086439Y0013731D01*
X0086504Y0013710D01*
X0086568Y0013684D01*
X0086630Y0013655D01*
X0086690Y0013623D01*
X0086749Y0013587D01*
X0086805Y0013547D01*
X0086859Y0013505D01*
X0086910Y0013459D01*
X0086959Y0013410D01*
X0087005Y0013359D01*
X0087047Y0013305D01*
X0087087Y0013249D01*
X0087123Y0013190D01*
X0087155Y0013130D01*
X0087184Y0013068D01*
X0087210Y0013004D01*
X0087231Y0012939D01*
X0087249Y0012872D01*
X0087263Y0012805D01*
X0087273Y0012737D01*
X0087279Y0012669D01*
X0087281Y0012600D01*
X0087279Y0012531D01*
X0087273Y0012463D01*
X0087263Y0012395D01*
X0087249Y0012328D01*
X0087231Y0012261D01*
X0087210Y0012196D01*
X0087184Y0012132D01*
X0087155Y0012070D01*
X0087123Y0012009D01*
X0087087Y0011951D01*
X0087047Y0011895D01*
X0087005Y0011841D01*
X0086959Y0011790D01*
X0086910Y0011741D01*
X0086859Y0011695D01*
X0086805Y0011653D01*
X0086749Y0011613D01*
X0086691Y0011577D01*
X0086630Y0011545D01*
X0086568Y0011516D01*
X0086504Y0011490D01*
X0086439Y0011469D01*
X0086372Y0011451D01*
X0086305Y0011437D01*
X0086237Y0011427D01*
X0086169Y0011421D01*
X0086100Y0011419D01*
X0086031Y0011421D01*
X0085963Y0011427D01*
X0085895Y0011437D01*
X0085828Y0011451D01*
X0085761Y0011469D01*
X0085696Y0011490D01*
X0085632Y0011516D01*
X0085570Y0011545D01*
X0085509Y0011577D01*
X0085451Y0011613D01*
X0085395Y0011653D01*
X0085341Y0011695D01*
X0085290Y0011741D01*
X0085241Y0011790D01*
X0085195Y0011841D01*
X0085153Y0011895D01*
X0085113Y0011951D01*
X0085077Y0012009D01*
X0085045Y0012070D01*
X0085016Y0012132D01*
X0084990Y0012196D01*
X0084969Y0012261D01*
X0084951Y0012328D01*
X0084937Y0012395D01*
X0084927Y0012463D01*
X0084921Y0012531D01*
X0084919Y0012600D01*
X0079219Y0012700D02*
X0079221Y0012769D01*
X0079227Y0012837D01*
X0079237Y0012905D01*
X0079251Y0012972D01*
X0079269Y0013039D01*
X0079290Y0013104D01*
X0079316Y0013168D01*
X0079345Y0013230D01*
X0079377Y0013290D01*
X0079413Y0013349D01*
X0079453Y0013405D01*
X0079495Y0013459D01*
X0079541Y0013510D01*
X0079590Y0013559D01*
X0079641Y0013605D01*
X0079695Y0013647D01*
X0079751Y0013687D01*
X0079809Y0013723D01*
X0079870Y0013755D01*
X0079932Y0013784D01*
X0079996Y0013810D01*
X0080061Y0013831D01*
X0080128Y0013849D01*
X0080195Y0013863D01*
X0080263Y0013873D01*
X0080331Y0013879D01*
X0080400Y0013881D01*
X0080469Y0013879D01*
X0080537Y0013873D01*
X0080605Y0013863D01*
X0080672Y0013849D01*
X0080739Y0013831D01*
X0080804Y0013810D01*
X0080868Y0013784D01*
X0080930Y0013755D01*
X0080990Y0013723D01*
X0081049Y0013687D01*
X0081105Y0013647D01*
X0081159Y0013605D01*
X0081210Y0013559D01*
X0081259Y0013510D01*
X0081305Y0013459D01*
X0081347Y0013405D01*
X0081387Y0013349D01*
X0081423Y0013290D01*
X0081455Y0013230D01*
X0081484Y0013168D01*
X0081510Y0013104D01*
X0081531Y0013039D01*
X0081549Y0012972D01*
X0081563Y0012905D01*
X0081573Y0012837D01*
X0081579Y0012769D01*
X0081581Y0012700D01*
X0081579Y0012631D01*
X0081573Y0012563D01*
X0081563Y0012495D01*
X0081549Y0012428D01*
X0081531Y0012361D01*
X0081510Y0012296D01*
X0081484Y0012232D01*
X0081455Y0012170D01*
X0081423Y0012109D01*
X0081387Y0012051D01*
X0081347Y0011995D01*
X0081305Y0011941D01*
X0081259Y0011890D01*
X0081210Y0011841D01*
X0081159Y0011795D01*
X0081105Y0011753D01*
X0081049Y0011713D01*
X0080991Y0011677D01*
X0080930Y0011645D01*
X0080868Y0011616D01*
X0080804Y0011590D01*
X0080739Y0011569D01*
X0080672Y0011551D01*
X0080605Y0011537D01*
X0080537Y0011527D01*
X0080469Y0011521D01*
X0080400Y0011519D01*
X0080331Y0011521D01*
X0080263Y0011527D01*
X0080195Y0011537D01*
X0080128Y0011551D01*
X0080061Y0011569D01*
X0079996Y0011590D01*
X0079932Y0011616D01*
X0079870Y0011645D01*
X0079809Y0011677D01*
X0079751Y0011713D01*
X0079695Y0011753D01*
X0079641Y0011795D01*
X0079590Y0011841D01*
X0079541Y0011890D01*
X0079495Y0011941D01*
X0079453Y0011995D01*
X0079413Y0012051D01*
X0079377Y0012109D01*
X0079345Y0012170D01*
X0079316Y0012232D01*
X0079290Y0012296D01*
X0079269Y0012361D01*
X0079251Y0012428D01*
X0079237Y0012495D01*
X0079227Y0012563D01*
X0079221Y0012631D01*
X0079219Y0012700D01*
X0038419Y0012500D02*
X0038421Y0012569D01*
X0038427Y0012637D01*
X0038437Y0012705D01*
X0038451Y0012772D01*
X0038469Y0012839D01*
X0038490Y0012904D01*
X0038516Y0012968D01*
X0038545Y0013030D01*
X0038577Y0013090D01*
X0038613Y0013149D01*
X0038653Y0013205D01*
X0038695Y0013259D01*
X0038741Y0013310D01*
X0038790Y0013359D01*
X0038841Y0013405D01*
X0038895Y0013447D01*
X0038951Y0013487D01*
X0039009Y0013523D01*
X0039070Y0013555D01*
X0039132Y0013584D01*
X0039196Y0013610D01*
X0039261Y0013631D01*
X0039328Y0013649D01*
X0039395Y0013663D01*
X0039463Y0013673D01*
X0039531Y0013679D01*
X0039600Y0013681D01*
X0039669Y0013679D01*
X0039737Y0013673D01*
X0039805Y0013663D01*
X0039872Y0013649D01*
X0039939Y0013631D01*
X0040004Y0013610D01*
X0040068Y0013584D01*
X0040130Y0013555D01*
X0040190Y0013523D01*
X0040249Y0013487D01*
X0040305Y0013447D01*
X0040359Y0013405D01*
X0040410Y0013359D01*
X0040459Y0013310D01*
X0040505Y0013259D01*
X0040547Y0013205D01*
X0040587Y0013149D01*
X0040623Y0013090D01*
X0040655Y0013030D01*
X0040684Y0012968D01*
X0040710Y0012904D01*
X0040731Y0012839D01*
X0040749Y0012772D01*
X0040763Y0012705D01*
X0040773Y0012637D01*
X0040779Y0012569D01*
X0040781Y0012500D01*
X0040779Y0012431D01*
X0040773Y0012363D01*
X0040763Y0012295D01*
X0040749Y0012228D01*
X0040731Y0012161D01*
X0040710Y0012096D01*
X0040684Y0012032D01*
X0040655Y0011970D01*
X0040623Y0011909D01*
X0040587Y0011851D01*
X0040547Y0011795D01*
X0040505Y0011741D01*
X0040459Y0011690D01*
X0040410Y0011641D01*
X0040359Y0011595D01*
X0040305Y0011553D01*
X0040249Y0011513D01*
X0040191Y0011477D01*
X0040130Y0011445D01*
X0040068Y0011416D01*
X0040004Y0011390D01*
X0039939Y0011369D01*
X0039872Y0011351D01*
X0039805Y0011337D01*
X0039737Y0011327D01*
X0039669Y0011321D01*
X0039600Y0011319D01*
X0039531Y0011321D01*
X0039463Y0011327D01*
X0039395Y0011337D01*
X0039328Y0011351D01*
X0039261Y0011369D01*
X0039196Y0011390D01*
X0039132Y0011416D01*
X0039070Y0011445D01*
X0039009Y0011477D01*
X0038951Y0011513D01*
X0038895Y0011553D01*
X0038841Y0011595D01*
X0038790Y0011641D01*
X0038741Y0011690D01*
X0038695Y0011741D01*
X0038653Y0011795D01*
X0038613Y0011851D01*
X0038577Y0011909D01*
X0038545Y0011970D01*
X0038516Y0012032D01*
X0038490Y0012096D01*
X0038469Y0012161D01*
X0038451Y0012228D01*
X0038437Y0012295D01*
X0038427Y0012363D01*
X0038421Y0012431D01*
X0038419Y0012500D01*
X0032819Y0012500D02*
X0032821Y0012569D01*
X0032827Y0012637D01*
X0032837Y0012705D01*
X0032851Y0012772D01*
X0032869Y0012839D01*
X0032890Y0012904D01*
X0032916Y0012968D01*
X0032945Y0013030D01*
X0032977Y0013090D01*
X0033013Y0013149D01*
X0033053Y0013205D01*
X0033095Y0013259D01*
X0033141Y0013310D01*
X0033190Y0013359D01*
X0033241Y0013405D01*
X0033295Y0013447D01*
X0033351Y0013487D01*
X0033409Y0013523D01*
X0033470Y0013555D01*
X0033532Y0013584D01*
X0033596Y0013610D01*
X0033661Y0013631D01*
X0033728Y0013649D01*
X0033795Y0013663D01*
X0033863Y0013673D01*
X0033931Y0013679D01*
X0034000Y0013681D01*
X0034069Y0013679D01*
X0034137Y0013673D01*
X0034205Y0013663D01*
X0034272Y0013649D01*
X0034339Y0013631D01*
X0034404Y0013610D01*
X0034468Y0013584D01*
X0034530Y0013555D01*
X0034590Y0013523D01*
X0034649Y0013487D01*
X0034705Y0013447D01*
X0034759Y0013405D01*
X0034810Y0013359D01*
X0034859Y0013310D01*
X0034905Y0013259D01*
X0034947Y0013205D01*
X0034987Y0013149D01*
X0035023Y0013090D01*
X0035055Y0013030D01*
X0035084Y0012968D01*
X0035110Y0012904D01*
X0035131Y0012839D01*
X0035149Y0012772D01*
X0035163Y0012705D01*
X0035173Y0012637D01*
X0035179Y0012569D01*
X0035181Y0012500D01*
X0035179Y0012431D01*
X0035173Y0012363D01*
X0035163Y0012295D01*
X0035149Y0012228D01*
X0035131Y0012161D01*
X0035110Y0012096D01*
X0035084Y0012032D01*
X0035055Y0011970D01*
X0035023Y0011909D01*
X0034987Y0011851D01*
X0034947Y0011795D01*
X0034905Y0011741D01*
X0034859Y0011690D01*
X0034810Y0011641D01*
X0034759Y0011595D01*
X0034705Y0011553D01*
X0034649Y0011513D01*
X0034591Y0011477D01*
X0034530Y0011445D01*
X0034468Y0011416D01*
X0034404Y0011390D01*
X0034339Y0011369D01*
X0034272Y0011351D01*
X0034205Y0011337D01*
X0034137Y0011327D01*
X0034069Y0011321D01*
X0034000Y0011319D01*
X0033931Y0011321D01*
X0033863Y0011327D01*
X0033795Y0011337D01*
X0033728Y0011351D01*
X0033661Y0011369D01*
X0033596Y0011390D01*
X0033532Y0011416D01*
X0033470Y0011445D01*
X0033409Y0011477D01*
X0033351Y0011513D01*
X0033295Y0011553D01*
X0033241Y0011595D01*
X0033190Y0011641D01*
X0033141Y0011690D01*
X0033095Y0011741D01*
X0033053Y0011795D01*
X0033013Y0011851D01*
X0032977Y0011909D01*
X0032945Y0011970D01*
X0032916Y0012032D01*
X0032890Y0012096D01*
X0032869Y0012161D01*
X0032851Y0012228D01*
X0032837Y0012295D01*
X0032827Y0012363D01*
X0032821Y0012431D01*
X0032819Y0012500D01*
X0041000Y0081000D02*
X0041002Y0081141D01*
X0041008Y0081282D01*
X0041018Y0081422D01*
X0041032Y0081562D01*
X0041050Y0081702D01*
X0041071Y0081841D01*
X0041097Y0081980D01*
X0041126Y0082118D01*
X0041160Y0082254D01*
X0041197Y0082390D01*
X0041238Y0082525D01*
X0041283Y0082659D01*
X0041332Y0082791D01*
X0041384Y0082922D01*
X0041440Y0083051D01*
X0041500Y0083178D01*
X0041563Y0083304D01*
X0041629Y0083428D01*
X0041700Y0083551D01*
X0041773Y0083671D01*
X0041850Y0083789D01*
X0041930Y0083905D01*
X0042014Y0084018D01*
X0042100Y0084129D01*
X0042190Y0084238D01*
X0042283Y0084344D01*
X0042378Y0084447D01*
X0042477Y0084548D01*
X0042578Y0084646D01*
X0042682Y0084741D01*
X0042789Y0084833D01*
X0042898Y0084922D01*
X0043010Y0085007D01*
X0043124Y0085090D01*
X0043240Y0085170D01*
X0043359Y0085246D01*
X0043480Y0085318D01*
X0043602Y0085388D01*
X0043727Y0085453D01*
X0043853Y0085516D01*
X0043981Y0085574D01*
X0044111Y0085629D01*
X0044242Y0085681D01*
X0044375Y0085728D01*
X0044509Y0085772D01*
X0044644Y0085813D01*
X0044780Y0085849D01*
X0044917Y0085881D01*
X0045055Y0085910D01*
X0045193Y0085935D01*
X0045333Y0085955D01*
X0045473Y0085972D01*
X0045613Y0085985D01*
X0045754Y0085994D01*
X0045894Y0085999D01*
X0046035Y0086000D01*
X0046176Y0085997D01*
X0046317Y0085990D01*
X0046457Y0085979D01*
X0046597Y0085964D01*
X0046737Y0085945D01*
X0046876Y0085923D01*
X0047014Y0085896D01*
X0047152Y0085866D01*
X0047288Y0085831D01*
X0047424Y0085793D01*
X0047558Y0085751D01*
X0047692Y0085705D01*
X0047824Y0085656D01*
X0047954Y0085602D01*
X0048083Y0085545D01*
X0048210Y0085485D01*
X0048336Y0085421D01*
X0048459Y0085353D01*
X0048581Y0085282D01*
X0048701Y0085208D01*
X0048818Y0085130D01*
X0048933Y0085049D01*
X0049046Y0084965D01*
X0049157Y0084878D01*
X0049265Y0084787D01*
X0049370Y0084694D01*
X0049473Y0084597D01*
X0049573Y0084498D01*
X0049670Y0084396D01*
X0049764Y0084291D01*
X0049855Y0084184D01*
X0049943Y0084074D01*
X0050028Y0083962D01*
X0050110Y0083847D01*
X0050189Y0083730D01*
X0050264Y0083611D01*
X0050336Y0083490D01*
X0050404Y0083367D01*
X0050469Y0083242D01*
X0050531Y0083115D01*
X0050588Y0082986D01*
X0050643Y0082856D01*
X0050693Y0082725D01*
X0050740Y0082592D01*
X0050783Y0082458D01*
X0050822Y0082322D01*
X0050857Y0082186D01*
X0050889Y0082049D01*
X0050916Y0081911D01*
X0050940Y0081772D01*
X0050960Y0081632D01*
X0050976Y0081492D01*
X0050988Y0081352D01*
X0050996Y0081211D01*
X0051000Y0081070D01*
X0051000Y0080930D01*
X0050996Y0080789D01*
X0050988Y0080648D01*
X0050976Y0080508D01*
X0050960Y0080368D01*
X0050940Y0080228D01*
X0050916Y0080089D01*
X0050889Y0079951D01*
X0050857Y0079814D01*
X0050822Y0079678D01*
X0050783Y0079542D01*
X0050740Y0079408D01*
X0050693Y0079275D01*
X0050643Y0079144D01*
X0050588Y0079014D01*
X0050531Y0078885D01*
X0050469Y0078758D01*
X0050404Y0078633D01*
X0050336Y0078510D01*
X0050264Y0078389D01*
X0050189Y0078270D01*
X0050110Y0078153D01*
X0050028Y0078038D01*
X0049943Y0077926D01*
X0049855Y0077816D01*
X0049764Y0077709D01*
X0049670Y0077604D01*
X0049573Y0077502D01*
X0049473Y0077403D01*
X0049370Y0077306D01*
X0049265Y0077213D01*
X0049157Y0077122D01*
X0049046Y0077035D01*
X0048933Y0076951D01*
X0048818Y0076870D01*
X0048701Y0076792D01*
X0048581Y0076718D01*
X0048459Y0076647D01*
X0048336Y0076579D01*
X0048210Y0076515D01*
X0048083Y0076455D01*
X0047954Y0076398D01*
X0047824Y0076344D01*
X0047692Y0076295D01*
X0047558Y0076249D01*
X0047424Y0076207D01*
X0047288Y0076169D01*
X0047152Y0076134D01*
X0047014Y0076104D01*
X0046876Y0076077D01*
X0046737Y0076055D01*
X0046597Y0076036D01*
X0046457Y0076021D01*
X0046317Y0076010D01*
X0046176Y0076003D01*
X0046035Y0076000D01*
X0045894Y0076001D01*
X0045754Y0076006D01*
X0045613Y0076015D01*
X0045473Y0076028D01*
X0045333Y0076045D01*
X0045193Y0076065D01*
X0045055Y0076090D01*
X0044917Y0076119D01*
X0044780Y0076151D01*
X0044644Y0076187D01*
X0044509Y0076228D01*
X0044375Y0076272D01*
X0044242Y0076319D01*
X0044111Y0076371D01*
X0043981Y0076426D01*
X0043853Y0076484D01*
X0043727Y0076547D01*
X0043602Y0076612D01*
X0043480Y0076682D01*
X0043359Y0076754D01*
X0043240Y0076830D01*
X0043124Y0076910D01*
X0043010Y0076993D01*
X0042898Y0077078D01*
X0042789Y0077167D01*
X0042682Y0077259D01*
X0042578Y0077354D01*
X0042477Y0077452D01*
X0042378Y0077553D01*
X0042283Y0077656D01*
X0042190Y0077762D01*
X0042100Y0077871D01*
X0042014Y0077982D01*
X0041930Y0078095D01*
X0041850Y0078211D01*
X0041773Y0078329D01*
X0041700Y0078449D01*
X0041629Y0078572D01*
X0041563Y0078696D01*
X0041500Y0078822D01*
X0041440Y0078949D01*
X0041384Y0079078D01*
X0041332Y0079209D01*
X0041283Y0079341D01*
X0041238Y0079475D01*
X0041197Y0079610D01*
X0041160Y0079746D01*
X0041126Y0079882D01*
X0041097Y0080020D01*
X0041071Y0080159D01*
X0041050Y0080298D01*
X0041032Y0080438D01*
X0041018Y0080578D01*
X0041008Y0080718D01*
X0041002Y0080859D01*
X0041000Y0081000D01*
X0069000Y0081000D02*
X0069002Y0081141D01*
X0069008Y0081282D01*
X0069018Y0081422D01*
X0069032Y0081562D01*
X0069050Y0081702D01*
X0069071Y0081841D01*
X0069097Y0081980D01*
X0069126Y0082118D01*
X0069160Y0082254D01*
X0069197Y0082390D01*
X0069238Y0082525D01*
X0069283Y0082659D01*
X0069332Y0082791D01*
X0069384Y0082922D01*
X0069440Y0083051D01*
X0069500Y0083178D01*
X0069563Y0083304D01*
X0069629Y0083428D01*
X0069700Y0083551D01*
X0069773Y0083671D01*
X0069850Y0083789D01*
X0069930Y0083905D01*
X0070014Y0084018D01*
X0070100Y0084129D01*
X0070190Y0084238D01*
X0070283Y0084344D01*
X0070378Y0084447D01*
X0070477Y0084548D01*
X0070578Y0084646D01*
X0070682Y0084741D01*
X0070789Y0084833D01*
X0070898Y0084922D01*
X0071010Y0085007D01*
X0071124Y0085090D01*
X0071240Y0085170D01*
X0071359Y0085246D01*
X0071480Y0085318D01*
X0071602Y0085388D01*
X0071727Y0085453D01*
X0071853Y0085516D01*
X0071981Y0085574D01*
X0072111Y0085629D01*
X0072242Y0085681D01*
X0072375Y0085728D01*
X0072509Y0085772D01*
X0072644Y0085813D01*
X0072780Y0085849D01*
X0072917Y0085881D01*
X0073055Y0085910D01*
X0073193Y0085935D01*
X0073333Y0085955D01*
X0073473Y0085972D01*
X0073613Y0085985D01*
X0073754Y0085994D01*
X0073894Y0085999D01*
X0074035Y0086000D01*
X0074176Y0085997D01*
X0074317Y0085990D01*
X0074457Y0085979D01*
X0074597Y0085964D01*
X0074737Y0085945D01*
X0074876Y0085923D01*
X0075014Y0085896D01*
X0075152Y0085866D01*
X0075288Y0085831D01*
X0075424Y0085793D01*
X0075558Y0085751D01*
X0075692Y0085705D01*
X0075824Y0085656D01*
X0075954Y0085602D01*
X0076083Y0085545D01*
X0076210Y0085485D01*
X0076336Y0085421D01*
X0076459Y0085353D01*
X0076581Y0085282D01*
X0076701Y0085208D01*
X0076818Y0085130D01*
X0076933Y0085049D01*
X0077046Y0084965D01*
X0077157Y0084878D01*
X0077265Y0084787D01*
X0077370Y0084694D01*
X0077473Y0084597D01*
X0077573Y0084498D01*
X0077670Y0084396D01*
X0077764Y0084291D01*
X0077855Y0084184D01*
X0077943Y0084074D01*
X0078028Y0083962D01*
X0078110Y0083847D01*
X0078189Y0083730D01*
X0078264Y0083611D01*
X0078336Y0083490D01*
X0078404Y0083367D01*
X0078469Y0083242D01*
X0078531Y0083115D01*
X0078588Y0082986D01*
X0078643Y0082856D01*
X0078693Y0082725D01*
X0078740Y0082592D01*
X0078783Y0082458D01*
X0078822Y0082322D01*
X0078857Y0082186D01*
X0078889Y0082049D01*
X0078916Y0081911D01*
X0078940Y0081772D01*
X0078960Y0081632D01*
X0078976Y0081492D01*
X0078988Y0081352D01*
X0078996Y0081211D01*
X0079000Y0081070D01*
X0079000Y0080930D01*
X0078996Y0080789D01*
X0078988Y0080648D01*
X0078976Y0080508D01*
X0078960Y0080368D01*
X0078940Y0080228D01*
X0078916Y0080089D01*
X0078889Y0079951D01*
X0078857Y0079814D01*
X0078822Y0079678D01*
X0078783Y0079542D01*
X0078740Y0079408D01*
X0078693Y0079275D01*
X0078643Y0079144D01*
X0078588Y0079014D01*
X0078531Y0078885D01*
X0078469Y0078758D01*
X0078404Y0078633D01*
X0078336Y0078510D01*
X0078264Y0078389D01*
X0078189Y0078270D01*
X0078110Y0078153D01*
X0078028Y0078038D01*
X0077943Y0077926D01*
X0077855Y0077816D01*
X0077764Y0077709D01*
X0077670Y0077604D01*
X0077573Y0077502D01*
X0077473Y0077403D01*
X0077370Y0077306D01*
X0077265Y0077213D01*
X0077157Y0077122D01*
X0077046Y0077035D01*
X0076933Y0076951D01*
X0076818Y0076870D01*
X0076701Y0076792D01*
X0076581Y0076718D01*
X0076459Y0076647D01*
X0076336Y0076579D01*
X0076210Y0076515D01*
X0076083Y0076455D01*
X0075954Y0076398D01*
X0075824Y0076344D01*
X0075692Y0076295D01*
X0075558Y0076249D01*
X0075424Y0076207D01*
X0075288Y0076169D01*
X0075152Y0076134D01*
X0075014Y0076104D01*
X0074876Y0076077D01*
X0074737Y0076055D01*
X0074597Y0076036D01*
X0074457Y0076021D01*
X0074317Y0076010D01*
X0074176Y0076003D01*
X0074035Y0076000D01*
X0073894Y0076001D01*
X0073754Y0076006D01*
X0073613Y0076015D01*
X0073473Y0076028D01*
X0073333Y0076045D01*
X0073193Y0076065D01*
X0073055Y0076090D01*
X0072917Y0076119D01*
X0072780Y0076151D01*
X0072644Y0076187D01*
X0072509Y0076228D01*
X0072375Y0076272D01*
X0072242Y0076319D01*
X0072111Y0076371D01*
X0071981Y0076426D01*
X0071853Y0076484D01*
X0071727Y0076547D01*
X0071602Y0076612D01*
X0071480Y0076682D01*
X0071359Y0076754D01*
X0071240Y0076830D01*
X0071124Y0076910D01*
X0071010Y0076993D01*
X0070898Y0077078D01*
X0070789Y0077167D01*
X0070682Y0077259D01*
X0070578Y0077354D01*
X0070477Y0077452D01*
X0070378Y0077553D01*
X0070283Y0077656D01*
X0070190Y0077762D01*
X0070100Y0077871D01*
X0070014Y0077982D01*
X0069930Y0078095D01*
X0069850Y0078211D01*
X0069773Y0078329D01*
X0069700Y0078449D01*
X0069629Y0078572D01*
X0069563Y0078696D01*
X0069500Y0078822D01*
X0069440Y0078949D01*
X0069384Y0079078D01*
X0069332Y0079209D01*
X0069283Y0079341D01*
X0069238Y0079475D01*
X0069197Y0079610D01*
X0069160Y0079746D01*
X0069126Y0079882D01*
X0069097Y0080020D01*
X0069071Y0080159D01*
X0069050Y0080298D01*
X0069032Y0080438D01*
X0069018Y0080578D01*
X0069008Y0080718D01*
X0069002Y0080859D01*
X0069000Y0081000D01*
D11*
X0063707Y0074302D02*
X0056292Y0074302D01*
X0056005Y0073803D02*
X0063995Y0073803D01*
X0064283Y0073305D02*
X0055717Y0073305D01*
X0055539Y0072996D02*
X0057701Y0076741D01*
X0057701Y0076741D01*
X0058452Y0081000D01*
X0057701Y0085259D01*
X0055539Y0089004D01*
X0055539Y0089004D01*
X0055539Y0089004D01*
X0052226Y0091784D01*
X0048162Y0093263D01*
X0043838Y0093263D01*
X0039774Y0091784D01*
X0036461Y0089004D01*
X0036461Y0089004D01*
X0034299Y0085259D01*
X0034299Y0085259D01*
X0033548Y0081000D01*
X0034299Y0076741D01*
X0036461Y0072996D01*
X0036461Y0072996D01*
X0036461Y0072996D01*
X0039774Y0070216D01*
X0043838Y0068737D01*
X0048162Y0068737D01*
X0052226Y0070216D01*
X0055539Y0072996D01*
X0055539Y0072996D01*
X0055313Y0072806D02*
X0064687Y0072806D01*
X0064461Y0072996D02*
X0067774Y0070216D01*
X0071838Y0068737D01*
X0076162Y0068737D01*
X0080226Y0070216D01*
X0083539Y0072996D01*
X0085701Y0076741D01*
X0085701Y0076741D01*
X0086452Y0081000D01*
X0085701Y0085259D01*
X0083539Y0089004D01*
X0083539Y0089004D01*
X0083539Y0089004D01*
X0080226Y0091784D01*
X0076162Y0093263D01*
X0071838Y0093263D01*
X0067774Y0091784D01*
X0064461Y0089004D01*
X0064461Y0089004D01*
X0062299Y0085259D01*
X0061548Y0081000D01*
X0062299Y0076741D01*
X0064461Y0072996D01*
X0064461Y0072996D01*
X0064461Y0072996D01*
X0065282Y0072308D02*
X0054718Y0072308D01*
X0054124Y0071809D02*
X0065876Y0071809D01*
X0066470Y0071311D02*
X0053530Y0071311D01*
X0052936Y0070812D02*
X0067064Y0070812D01*
X0067658Y0070314D02*
X0052342Y0070314D01*
X0052226Y0070216D02*
X0052226Y0070216D01*
X0051124Y0069815D02*
X0068876Y0069815D01*
X0067774Y0070216D02*
X0067774Y0070216D01*
X0066586Y0068000D02*
X0059586Y0061000D01*
X0059000Y0060414D01*
X0058414Y0061000D01*
X0051414Y0068000D01*
X0031414Y0068000D01*
X0031000Y0068414D01*
X0031000Y0075414D01*
X0030414Y0076000D01*
X0027591Y0078824D01*
X0027591Y0079762D01*
X0026512Y0080841D01*
X0024988Y0080841D01*
X0023909Y0079762D01*
X0023909Y0078238D01*
X0024988Y0077159D01*
X0026426Y0077159D01*
X0026586Y0077000D01*
X0024353Y0077000D01*
X0023512Y0077841D01*
X0021988Y0077841D01*
X0021872Y0077725D01*
X0021485Y0078660D01*
X0020660Y0079485D01*
X0019583Y0079931D01*
X0018417Y0079931D01*
X0017340Y0079485D01*
X0016515Y0078660D01*
X0016069Y0077583D01*
X0016069Y0076417D01*
X0016515Y0075340D01*
X0017340Y0074515D01*
X0018417Y0074069D01*
X0019583Y0074069D01*
X0020660Y0074515D01*
X0021146Y0075001D01*
X0021988Y0074159D01*
X0023512Y0074159D01*
X0024353Y0075000D01*
X0026586Y0075000D01*
X0028000Y0073586D01*
X0028000Y0066586D01*
X0028586Y0066000D01*
X0027414Y0066000D01*
X0026750Y0066664D01*
X0026750Y0071397D01*
X0027591Y0072238D01*
X0027591Y0073762D01*
X0026512Y0074841D01*
X0024988Y0074841D01*
X0023909Y0073762D01*
X0023909Y0072238D01*
X0024750Y0071397D01*
X0024750Y0065836D01*
X0025586Y0065000D01*
X0024414Y0065000D01*
X0023750Y0065664D01*
X0023750Y0068397D01*
X0024591Y0069238D01*
X0024591Y0070762D01*
X0023512Y0071841D01*
X0021988Y0071841D01*
X0020909Y0070762D01*
X0020909Y0069238D01*
X0021750Y0068397D01*
X0021750Y0067664D01*
X0021414Y0068000D01*
X0018384Y0071031D01*
X0018591Y0071238D01*
X0018591Y0072762D01*
X0017512Y0073841D01*
X0015988Y0073841D01*
X0014909Y0072762D01*
X0014909Y0071443D01*
X0014512Y0071841D01*
X0012988Y0071841D01*
X0011909Y0070762D01*
X0011909Y0069796D01*
X0011583Y0069931D01*
X0010417Y0069931D01*
X0010000Y0069758D01*
X0010000Y0094242D01*
X0010417Y0094069D01*
X0011583Y0094069D01*
X0011909Y0094204D01*
X0011909Y0093238D01*
X0012988Y0092159D01*
X0014512Y0092159D01*
X0014940Y0092587D01*
X0016469Y0092117D01*
X0016586Y0092000D01*
X0016850Y0092000D01*
X0017102Y0091922D01*
X0017248Y0092000D01*
X0017414Y0092000D01*
X0017601Y0092187D01*
X0017834Y0092310D01*
X0017883Y0092469D01*
X0025414Y0100000D01*
X0025586Y0100000D01*
X0017426Y0091841D01*
X0015988Y0091841D01*
X0014909Y0090762D01*
X0014909Y0089238D01*
X0015988Y0088159D01*
X0017512Y0088159D01*
X0018591Y0089238D01*
X0018591Y0090176D01*
X0020909Y0092495D01*
X0020909Y0091238D01*
X0021988Y0090159D01*
X0023512Y0090159D01*
X0024591Y0091238D01*
X0024591Y0092762D01*
X0023884Y0093469D01*
X0024750Y0094336D01*
X0024750Y0090603D01*
X0023909Y0089762D01*
X0023909Y0088238D01*
X0024988Y0087159D01*
X0026512Y0087159D01*
X0027591Y0088238D01*
X0027591Y0089762D01*
X0026750Y0090603D01*
X0026750Y0094336D01*
X0028000Y0095586D01*
X0028000Y0088414D01*
X0026586Y0087000D01*
X0024353Y0087000D01*
X0023512Y0087841D01*
X0021988Y0087841D01*
X0021146Y0086999D01*
X0020660Y0087485D01*
X0019583Y0087931D01*
X0018417Y0087931D01*
X0017340Y0087485D01*
X0016515Y0086660D01*
X0016069Y0085583D01*
X0016069Y0084417D01*
X0016515Y0083340D01*
X0017340Y0082515D01*
X0018417Y0082069D01*
X0019583Y0082069D01*
X0020660Y0082515D01*
X0021485Y0083340D01*
X0021872Y0084275D01*
X0021988Y0084159D01*
X0023512Y0084159D01*
X0024353Y0085000D01*
X0026586Y0085000D01*
X0026426Y0084841D01*
X0024988Y0084841D01*
X0023909Y0083762D01*
X0023909Y0082238D01*
X0024988Y0081159D01*
X0026512Y0081159D01*
X0027591Y0082238D01*
X0027591Y0083176D01*
X0030414Y0086000D01*
X0031000Y0086586D01*
X0031000Y0093586D01*
X0032414Y0095000D01*
X0054414Y0095000D01*
X0061414Y0102000D01*
X0062000Y0102586D01*
X0062586Y0102000D01*
X0069586Y0095000D01*
X0088586Y0095000D01*
X0090000Y0093586D01*
X0090000Y0086586D01*
X0090586Y0086000D01*
X0092616Y0083969D01*
X0092409Y0083762D01*
X0092409Y0082238D01*
X0093488Y0081159D01*
X0095012Y0081159D01*
X0096091Y0082238D01*
X0096091Y0083762D01*
X0095012Y0084841D01*
X0094574Y0084841D01*
X0094414Y0085000D01*
X0095647Y0085000D01*
X0096488Y0084159D01*
X0098012Y0084159D01*
X0098069Y0084216D01*
X0098069Y0083417D01*
X0098515Y0082340D01*
X0099340Y0081515D01*
X0100417Y0081069D01*
X0101583Y0081069D01*
X0102660Y0081515D01*
X0103485Y0082340D01*
X0103931Y0083417D01*
X0103931Y0084583D01*
X0103485Y0085660D01*
X0102660Y0086485D01*
X0101583Y0086931D01*
X0100417Y0086931D01*
X0099340Y0086485D01*
X0099091Y0086236D01*
X0099091Y0086762D01*
X0098012Y0087841D01*
X0096488Y0087841D01*
X0095647Y0087000D01*
X0094414Y0087000D01*
X0094255Y0087159D01*
X0095012Y0087159D01*
X0096091Y0088238D01*
X0096091Y0089762D01*
X0095250Y0090603D01*
X0095250Y0097164D01*
X0094414Y0098000D01*
X0095586Y0098000D01*
X0096250Y0097336D01*
X0096250Y0093603D01*
X0095409Y0092762D01*
X0095409Y0091238D01*
X0096488Y0090159D01*
X0098012Y0090159D01*
X0099091Y0091238D01*
X0099091Y0092762D01*
X0098250Y0093603D01*
X0098250Y0097336D01*
X0099000Y0096586D01*
X0099000Y0093586D01*
X0099586Y0093000D01*
X0101616Y0090969D01*
X0101409Y0090762D01*
X0101409Y0089238D01*
X0102488Y0088159D01*
X0104012Y0088159D01*
X0105091Y0089238D01*
X0105091Y0090762D01*
X0104012Y0091841D01*
X0103574Y0091841D01*
X0103414Y0092000D01*
X0104647Y0092000D01*
X0105488Y0091159D01*
X0107012Y0091159D01*
X0108091Y0092238D01*
X0108091Y0093204D01*
X0108417Y0093069D01*
X0109583Y0093069D01*
X0110000Y0093242D01*
X0110000Y0068758D01*
X0109583Y0068931D01*
X0108417Y0068931D01*
X0108091Y0068796D01*
X0108091Y0069762D01*
X0107012Y0070841D01*
X0105488Y0070841D01*
X0104647Y0070000D01*
X0103414Y0070000D01*
X0103574Y0070159D01*
X0104012Y0070159D01*
X0105091Y0071238D01*
X0105091Y0072762D01*
X0104012Y0073841D01*
X0102488Y0073841D01*
X0101409Y0072762D01*
X0101409Y0071238D01*
X0101616Y0071031D01*
X0098250Y0067664D01*
X0098250Y0068397D01*
X0099091Y0069238D01*
X0099091Y0070762D01*
X0098012Y0071841D01*
X0096488Y0071841D01*
X0095409Y0070762D01*
X0095409Y0069238D01*
X0096250Y0068397D01*
X0096250Y0067664D01*
X0095250Y0066664D01*
X0095250Y0071397D01*
X0096091Y0072238D01*
X0096091Y0073762D01*
X0095012Y0074841D01*
X0093488Y0074841D01*
X0092409Y0073762D01*
X0092409Y0072238D01*
X0093250Y0071397D01*
X0093250Y0066664D01*
X0092586Y0066000D01*
X0090414Y0066000D01*
X0091000Y0066586D01*
X0091000Y0073586D01*
X0092414Y0075000D01*
X0095647Y0075000D01*
X0096488Y0074159D01*
X0098012Y0074159D01*
X0098854Y0075001D01*
X0099340Y0074515D01*
X0100417Y0074069D01*
X0101583Y0074069D01*
X0102660Y0074515D01*
X0103485Y0075340D01*
X0103931Y0076417D01*
X0103931Y0077583D01*
X0103485Y0078660D01*
X0102660Y0079485D01*
X0101583Y0079931D01*
X0100417Y0079931D01*
X0099340Y0079485D01*
X0098515Y0078660D01*
X0098128Y0077725D01*
X0098012Y0077841D01*
X0096488Y0077841D01*
X0095647Y0077000D01*
X0092414Y0077000D01*
X0093031Y0077616D01*
X0093488Y0077159D01*
X0095012Y0077159D01*
X0096091Y0078238D01*
X0096091Y0079762D01*
X0095012Y0080841D01*
X0093488Y0080841D01*
X0092647Y0080000D01*
X0092586Y0080000D01*
X0088586Y0076000D01*
X0088000Y0075414D01*
X0088000Y0068414D01*
X0087586Y0068000D01*
X0066586Y0068000D01*
X0066407Y0067821D02*
X0051593Y0067821D01*
X0052091Y0067323D02*
X0065909Y0067323D01*
X0065410Y0066824D02*
X0052590Y0066824D01*
X0053088Y0066326D02*
X0064912Y0066326D01*
X0064413Y0065827D02*
X0053587Y0065827D01*
X0054085Y0065329D02*
X0063915Y0065329D01*
X0063416Y0064830D02*
X0054584Y0064830D01*
X0055082Y0064332D02*
X0062918Y0064332D01*
X0062419Y0063833D02*
X0055581Y0063833D01*
X0056079Y0063335D02*
X0061921Y0063335D01*
X0061422Y0062836D02*
X0056578Y0062836D01*
X0057076Y0062338D02*
X0060924Y0062338D01*
X0060425Y0061839D02*
X0057575Y0061839D01*
X0058073Y0061341D02*
X0059927Y0061341D01*
X0059428Y0060842D02*
X0058572Y0060842D01*
X0059000Y0060414D02*
X0059000Y0056414D01*
X0059000Y0056414D01*
X0059000Y0060414D01*
X0059000Y0060344D02*
X0059000Y0060344D01*
X0059000Y0059845D02*
X0059000Y0059845D01*
X0059000Y0059347D02*
X0059000Y0059347D01*
X0059000Y0058848D02*
X0059000Y0058848D01*
X0059000Y0058350D02*
X0059000Y0058350D01*
X0059000Y0057851D02*
X0059000Y0057851D01*
X0059000Y0057353D02*
X0059000Y0057353D01*
X0059000Y0056854D02*
X0059000Y0056854D01*
X0060000Y0056000D02*
X0059000Y0055000D01*
X0059000Y0051000D01*
X0061000Y0049000D01*
X0061000Y0041000D01*
X0060000Y0040000D01*
X0060000Y0037299D01*
X0061575Y0037299D02*
X0062000Y0040224D01*
X0062000Y0050000D01*
X0063000Y0051000D01*
X0063000Y0054000D01*
X0061000Y0056000D01*
X0061000Y0059000D01*
X0068000Y0066000D01*
X0089000Y0066000D01*
X0090000Y0067000D01*
X0090000Y0074000D01*
X0092000Y0076000D01*
X0097250Y0076000D01*
X0098653Y0074801D02*
X0099054Y0074801D01*
X0099854Y0074302D02*
X0098155Y0074302D01*
X0096345Y0074302D02*
X0095551Y0074302D01*
X0095847Y0074801D02*
X0095052Y0074801D01*
X0096049Y0073803D02*
X0102451Y0073803D01*
X0102146Y0074302D02*
X0110000Y0074302D01*
X0110000Y0074801D02*
X0102946Y0074801D01*
X0103444Y0075299D02*
X0110000Y0075299D01*
X0110000Y0075798D02*
X0103675Y0075798D01*
X0103881Y0076296D02*
X0110000Y0076296D01*
X0110000Y0076795D02*
X0103931Y0076795D01*
X0103931Y0077293D02*
X0110000Y0077293D01*
X0110000Y0077792D02*
X0103845Y0077792D01*
X0103638Y0078290D02*
X0110000Y0078290D01*
X0110000Y0078789D02*
X0103357Y0078789D01*
X0102858Y0079287D02*
X0110000Y0079287D01*
X0110000Y0079786D02*
X0101934Y0079786D01*
X0102095Y0081281D02*
X0110000Y0081281D01*
X0110000Y0080783D02*
X0095070Y0080783D01*
X0095134Y0081281D02*
X0099904Y0081281D01*
X0099075Y0081780D02*
X0095633Y0081780D01*
X0096091Y0082278D02*
X0098577Y0082278D01*
X0098334Y0082777D02*
X0096091Y0082777D01*
X0096091Y0083275D02*
X0098128Y0083275D01*
X0098069Y0083774D02*
X0096079Y0083774D01*
X0096375Y0084272D02*
X0095581Y0084272D01*
X0095876Y0084771D02*
X0095082Y0084771D01*
X0094250Y0083750D02*
X0094250Y0083000D01*
X0094250Y0083750D02*
X0091000Y0087000D01*
X0091000Y0094000D01*
X0089000Y0096000D01*
X0070000Y0096000D01*
X0063000Y0103000D01*
X0063000Y0111000D01*
X0061000Y0113000D01*
X0061000Y0121000D01*
X0061600Y0122000D01*
X0061600Y0124276D01*
X0061575Y0124701D01*
X0063000Y0124551D02*
X0063150Y0124701D01*
X0063000Y0124551D02*
X0063000Y0121000D01*
X0065000Y0119000D01*
X0065000Y0112000D01*
X0064000Y0111000D01*
X0064000Y0104000D01*
X0071000Y0097000D01*
X0090000Y0097000D01*
X0092000Y0095000D01*
X0092000Y0088000D01*
X0094000Y0086000D01*
X0097250Y0086000D01*
X0098590Y0087263D02*
X0110000Y0087263D01*
X0110000Y0086765D02*
X0101985Y0086765D01*
X0102879Y0086266D02*
X0110000Y0086266D01*
X0110000Y0085768D02*
X0103377Y0085768D01*
X0103647Y0085269D02*
X0110000Y0085269D01*
X0110000Y0084771D02*
X0103853Y0084771D01*
X0103931Y0084272D02*
X0110000Y0084272D01*
X0110000Y0083774D02*
X0103931Y0083774D01*
X0103872Y0083275D02*
X0110000Y0083275D01*
X0110000Y0082777D02*
X0103666Y0082777D01*
X0103423Y0082278D02*
X0110000Y0082278D01*
X0110000Y0081780D02*
X0102925Y0081780D01*
X0100066Y0079786D02*
X0096067Y0079786D01*
X0096091Y0079287D02*
X0099142Y0079287D01*
X0098643Y0078789D02*
X0096091Y0078789D01*
X0096091Y0078290D02*
X0098362Y0078290D01*
X0098155Y0077792D02*
X0098061Y0077792D01*
X0096439Y0077792D02*
X0095645Y0077792D01*
X0095940Y0077293D02*
X0095146Y0077293D01*
X0094250Y0079000D02*
X0093000Y0079000D01*
X0089000Y0075000D01*
X0089000Y0068000D01*
X0088000Y0067000D01*
X0067000Y0067000D01*
X0060000Y0060000D01*
X0060000Y0056000D01*
X0058000Y0060000D02*
X0058000Y0052000D01*
X0055000Y0049000D01*
X0055000Y0047000D01*
X0058400Y0043500D01*
X0058400Y0037224D01*
X0058425Y0037299D01*
X0056850Y0037299D02*
X0056800Y0037649D01*
X0056800Y0043200D01*
X0054000Y0046000D01*
X0054000Y0050000D01*
X0057000Y0053000D01*
X0057000Y0059000D01*
X0050000Y0066000D01*
X0030000Y0066000D01*
X0029000Y0067000D01*
X0029000Y0074000D01*
X0027000Y0076000D01*
X0022750Y0076000D01*
X0021347Y0074801D02*
X0020946Y0074801D01*
X0020146Y0074302D02*
X0021845Y0074302D01*
X0023655Y0074302D02*
X0024449Y0074302D01*
X0024153Y0074801D02*
X0024948Y0074801D01*
X0023951Y0073803D02*
X0017549Y0073803D01*
X0017854Y0074302D02*
X0010000Y0074302D01*
X0010000Y0074801D02*
X0017054Y0074801D01*
X0016556Y0075299D02*
X0010000Y0075299D01*
X0010000Y0075798D02*
X0016325Y0075798D01*
X0016119Y0076296D02*
X0010000Y0076296D01*
X0010000Y0076795D02*
X0016069Y0076795D01*
X0016069Y0077293D02*
X0010000Y0077293D01*
X0010000Y0077792D02*
X0016155Y0077792D01*
X0016362Y0078290D02*
X0010000Y0078290D01*
X0010000Y0078789D02*
X0016643Y0078789D01*
X0017142Y0079287D02*
X0010000Y0079287D01*
X0010000Y0079786D02*
X0018066Y0079786D01*
X0019934Y0079786D02*
X0023933Y0079786D01*
X0023909Y0079287D02*
X0020858Y0079287D01*
X0021357Y0078789D02*
X0023909Y0078789D01*
X0023909Y0078290D02*
X0021638Y0078290D01*
X0021845Y0077792D02*
X0021939Y0077792D01*
X0023561Y0077792D02*
X0024355Y0077792D01*
X0024060Y0077293D02*
X0024854Y0077293D01*
X0025750Y0079000D02*
X0026000Y0079000D01*
X0030000Y0075000D01*
X0030000Y0068000D01*
X0031000Y0067000D01*
X0051000Y0067000D01*
X0058000Y0060000D01*
X0054000Y0060000D02*
X0054000Y0056000D01*
X0052000Y0054000D01*
X0052000Y0050000D01*
X0053000Y0049000D01*
X0053000Y0045000D01*
X0055300Y0042800D01*
X0055300Y0037375D01*
X0055276Y0037299D01*
X0053701Y0037299D02*
X0053700Y0037898D01*
X0053700Y0042300D01*
X0049000Y0047000D01*
X0049000Y0049000D01*
X0050000Y0050000D01*
X0050000Y0054000D01*
X0048000Y0056000D01*
X0045000Y0056000D01*
X0043000Y0058000D01*
X0043000Y0059000D01*
X0038000Y0064000D01*
X0024000Y0064000D01*
X0022750Y0065250D01*
X0022750Y0070000D01*
X0021458Y0071311D02*
X0018591Y0071311D01*
X0018591Y0071809D02*
X0021957Y0071809D01*
X0020959Y0070812D02*
X0018602Y0070812D01*
X0019100Y0070314D02*
X0020909Y0070314D01*
X0020909Y0069815D02*
X0019599Y0069815D01*
X0020097Y0069317D02*
X0020909Y0069317D01*
X0020596Y0068818D02*
X0021329Y0068818D01*
X0021094Y0068320D02*
X0021750Y0068320D01*
X0021750Y0067821D02*
X0021593Y0067821D01*
X0021000Y0067000D02*
X0021000Y0065000D01*
X0023000Y0063000D01*
X0037000Y0063000D01*
X0042000Y0058000D01*
X0042000Y0055000D01*
X0048000Y0049000D01*
X0048000Y0046000D01*
X0052200Y0041800D01*
X0052200Y0037225D01*
X0052126Y0037299D01*
X0050600Y0037150D02*
X0050551Y0037299D01*
X0050600Y0037150D02*
X0050600Y0041300D01*
X0047000Y0045000D01*
X0047000Y0048000D01*
X0045000Y0050000D01*
X0041000Y0050000D01*
X0029000Y0062000D01*
X0022000Y0062000D01*
X0020000Y0064000D01*
X0020000Y0066000D01*
X0017000Y0069000D01*
X0013750Y0070000D01*
X0012458Y0071311D02*
X0010000Y0071311D01*
X0010000Y0071809D02*
X0012957Y0071809D01*
X0011959Y0070812D02*
X0010000Y0070812D01*
X0010000Y0070314D02*
X0011909Y0070314D01*
X0011909Y0069815D02*
X0011862Y0069815D01*
X0010138Y0069815D02*
X0010000Y0069815D01*
X0010000Y0072308D02*
X0014909Y0072308D01*
X0014909Y0071809D02*
X0014543Y0071809D01*
X0014954Y0072806D02*
X0010000Y0072806D01*
X0010000Y0073305D02*
X0015452Y0073305D01*
X0015951Y0073803D02*
X0010000Y0073803D01*
X0010000Y0080284D02*
X0024431Y0080284D01*
X0024930Y0080783D02*
X0010000Y0080783D01*
X0010000Y0081281D02*
X0024866Y0081281D01*
X0024367Y0081780D02*
X0010000Y0081780D01*
X0010000Y0082278D02*
X0017912Y0082278D01*
X0017078Y0082777D02*
X0010000Y0082777D01*
X0010000Y0083275D02*
X0016580Y0083275D01*
X0016335Y0083774D02*
X0010000Y0083774D01*
X0010000Y0084272D02*
X0016129Y0084272D01*
X0016069Y0084771D02*
X0010000Y0084771D01*
X0010000Y0085269D02*
X0016069Y0085269D01*
X0016145Y0085768D02*
X0010000Y0085768D01*
X0010000Y0086266D02*
X0016352Y0086266D01*
X0016620Y0086765D02*
X0010000Y0086765D01*
X0010000Y0087263D02*
X0017118Y0087263D01*
X0018008Y0087762D02*
X0010000Y0087762D01*
X0010000Y0088260D02*
X0015887Y0088260D01*
X0015388Y0088759D02*
X0010000Y0088759D01*
X0010000Y0089257D02*
X0014909Y0089257D01*
X0014909Y0089756D02*
X0010000Y0089756D01*
X0010000Y0090254D02*
X0014909Y0090254D01*
X0014909Y0090753D02*
X0010000Y0090753D01*
X0010000Y0091251D02*
X0015398Y0091251D01*
X0015897Y0091750D02*
X0010000Y0091750D01*
X0010000Y0092248D02*
X0012899Y0092248D01*
X0012400Y0092747D02*
X0010000Y0092747D01*
X0010000Y0093245D02*
X0011909Y0093245D01*
X0011909Y0093744D02*
X0010000Y0093744D01*
X0013750Y0094000D02*
X0017000Y0093000D01*
X0025000Y0101000D01*
X0033000Y0101000D01*
X0038000Y0106000D01*
X0040000Y0106000D01*
X0043000Y0109000D01*
X0043000Y0111000D01*
X0052100Y0120100D01*
X0052100Y0124675D01*
X0052126Y0124701D01*
X0053701Y0124701D02*
X0053800Y0124102D01*
X0053800Y0119700D01*
X0052000Y0117900D01*
X0052000Y0113000D01*
X0048000Y0109000D01*
X0048000Y0105000D01*
X0043000Y0100000D01*
X0027000Y0100000D01*
X0017000Y0090000D01*
X0016750Y0090000D01*
X0017613Y0088260D02*
X0023909Y0088260D01*
X0023909Y0088759D02*
X0018112Y0088759D01*
X0018591Y0089257D02*
X0023909Y0089257D01*
X0023909Y0089756D02*
X0018591Y0089756D01*
X0018669Y0090254D02*
X0021893Y0090254D01*
X0021394Y0090753D02*
X0019167Y0090753D01*
X0019666Y0091251D02*
X0020909Y0091251D01*
X0020909Y0091750D02*
X0020164Y0091750D01*
X0020663Y0092248D02*
X0020909Y0092248D01*
X0022750Y0092000D02*
X0022750Y0093750D01*
X0028000Y0099000D01*
X0044000Y0099000D01*
X0049000Y0104000D01*
X0049000Y0108000D01*
X0053000Y0112000D01*
X0053000Y0116900D01*
X0055300Y0119200D01*
X0055300Y0124525D01*
X0055276Y0124701D01*
X0056850Y0124701D02*
X0056900Y0124351D01*
X0056900Y0118800D01*
X0054000Y0116000D01*
X0054000Y0112000D01*
X0055000Y0111000D01*
X0055000Y0108000D01*
X0045000Y0098000D01*
X0029000Y0098000D01*
X0025750Y0094750D01*
X0025750Y0089000D01*
X0027099Y0090254D02*
X0028000Y0090254D01*
X0028000Y0089756D02*
X0027591Y0089756D01*
X0027591Y0089257D02*
X0028000Y0089257D01*
X0028000Y0088759D02*
X0027591Y0088759D01*
X0027591Y0088260D02*
X0027846Y0088260D01*
X0027348Y0087762D02*
X0027115Y0087762D01*
X0026849Y0087263D02*
X0026616Y0087263D01*
X0027000Y0086000D02*
X0029000Y0088000D01*
X0029000Y0096000D01*
X0030000Y0097000D01*
X0053000Y0097000D01*
X0059000Y0103000D01*
X0059000Y0106000D01*
X0057000Y0108000D01*
X0057000Y0112000D01*
X0058500Y0113400D01*
X0058500Y0123276D01*
X0058425Y0124701D01*
X0060000Y0124701D02*
X0060000Y0112000D01*
X0061000Y0111000D01*
X0061000Y0103000D01*
X0054000Y0096000D01*
X0032000Y0096000D01*
X0030000Y0094000D01*
X0030000Y0087000D01*
X0026000Y0083000D01*
X0025750Y0083000D01*
X0024419Y0084272D02*
X0023625Y0084272D01*
X0023921Y0083774D02*
X0021665Y0083774D01*
X0021871Y0084272D02*
X0021875Y0084272D01*
X0021420Y0083275D02*
X0023909Y0083275D01*
X0023909Y0082777D02*
X0020922Y0082777D01*
X0020088Y0082278D02*
X0023909Y0082278D01*
X0024124Y0084771D02*
X0024918Y0084771D01*
X0027000Y0086000D02*
X0022750Y0086000D01*
X0021410Y0087263D02*
X0020882Y0087263D01*
X0019992Y0087762D02*
X0021909Y0087762D01*
X0023591Y0087762D02*
X0024385Y0087762D01*
X0024090Y0087263D02*
X0024884Y0087263D01*
X0024401Y0090254D02*
X0023607Y0090254D01*
X0024106Y0090753D02*
X0024750Y0090753D01*
X0024750Y0091251D02*
X0024591Y0091251D01*
X0024591Y0091750D02*
X0024750Y0091750D01*
X0024750Y0092248D02*
X0024591Y0092248D01*
X0024591Y0092747D02*
X0024750Y0092747D01*
X0024750Y0093245D02*
X0024107Y0093245D01*
X0024158Y0093744D02*
X0024750Y0093744D01*
X0024750Y0094242D02*
X0024657Y0094242D01*
X0026750Y0094242D02*
X0028000Y0094242D01*
X0028000Y0093744D02*
X0026750Y0093744D01*
X0026750Y0093245D02*
X0028000Y0093245D01*
X0028000Y0092747D02*
X0026750Y0092747D01*
X0026750Y0092248D02*
X0028000Y0092248D01*
X0028000Y0091750D02*
X0026750Y0091750D01*
X0026750Y0091251D02*
X0028000Y0091251D01*
X0028000Y0090753D02*
X0026750Y0090753D01*
X0027155Y0094741D02*
X0028000Y0094741D01*
X0028000Y0095239D02*
X0027654Y0095239D01*
X0031158Y0093744D02*
X0089842Y0093744D01*
X0090000Y0093245D02*
X0076209Y0093245D01*
X0077579Y0092747D02*
X0090000Y0092747D01*
X0090000Y0092248D02*
X0078949Y0092248D01*
X0080226Y0091784D02*
X0080226Y0091784D01*
X0080266Y0091750D02*
X0090000Y0091750D01*
X0090000Y0091251D02*
X0080860Y0091251D01*
X0081454Y0090753D02*
X0090000Y0090753D01*
X0090000Y0090254D02*
X0082048Y0090254D01*
X0082642Y0089756D02*
X0090000Y0089756D01*
X0090000Y0089257D02*
X0083236Y0089257D01*
X0083680Y0088759D02*
X0090000Y0088759D01*
X0090000Y0088260D02*
X0083968Y0088260D01*
X0084256Y0087762D02*
X0090000Y0087762D01*
X0090000Y0087263D02*
X0084543Y0087263D01*
X0084831Y0086765D02*
X0090000Y0086765D01*
X0090320Y0086266D02*
X0085119Y0086266D01*
X0085407Y0085768D02*
X0090818Y0085768D01*
X0091317Y0085269D02*
X0085695Y0085269D01*
X0085701Y0085259D02*
X0085701Y0085259D01*
X0085787Y0084771D02*
X0091815Y0084771D01*
X0092314Y0084272D02*
X0085875Y0084272D01*
X0085963Y0083774D02*
X0092421Y0083774D01*
X0092409Y0083275D02*
X0086051Y0083275D01*
X0086138Y0082777D02*
X0092409Y0082777D01*
X0092409Y0082278D02*
X0086226Y0082278D01*
X0086314Y0081780D02*
X0092867Y0081780D01*
X0093366Y0081281D02*
X0086402Y0081281D01*
X0086413Y0080783D02*
X0093430Y0080783D01*
X0092931Y0080284D02*
X0086326Y0080284D01*
X0086238Y0079786D02*
X0092371Y0079786D01*
X0091873Y0079287D02*
X0086150Y0079287D01*
X0086062Y0078789D02*
X0091374Y0078789D01*
X0090876Y0078290D02*
X0085974Y0078290D01*
X0085886Y0077792D02*
X0090377Y0077792D01*
X0089879Y0077293D02*
X0085798Y0077293D01*
X0085710Y0076795D02*
X0089380Y0076795D01*
X0088882Y0076296D02*
X0085444Y0076296D01*
X0085156Y0075798D02*
X0088383Y0075798D01*
X0088000Y0075299D02*
X0084868Y0075299D01*
X0084580Y0074801D02*
X0088000Y0074801D01*
X0088000Y0074302D02*
X0084292Y0074302D01*
X0084005Y0073803D02*
X0088000Y0073803D01*
X0088000Y0073305D02*
X0083717Y0073305D01*
X0083539Y0072996D02*
X0083539Y0072996D01*
X0083313Y0072806D02*
X0088000Y0072806D01*
X0088000Y0072308D02*
X0082718Y0072308D01*
X0082124Y0071809D02*
X0088000Y0071809D01*
X0088000Y0071311D02*
X0081530Y0071311D01*
X0080936Y0070812D02*
X0088000Y0070812D01*
X0088000Y0070314D02*
X0080342Y0070314D01*
X0080226Y0070216D02*
X0080226Y0070216D01*
X0079124Y0069815D02*
X0088000Y0069815D01*
X0088000Y0069317D02*
X0077754Y0069317D01*
X0076385Y0068818D02*
X0088000Y0068818D01*
X0087906Y0068320D02*
X0031094Y0068320D01*
X0031000Y0068818D02*
X0043615Y0068818D01*
X0042246Y0069317D02*
X0031000Y0069317D01*
X0031000Y0069815D02*
X0040876Y0069815D01*
X0039774Y0070216D02*
X0039774Y0070216D01*
X0039658Y0070314D02*
X0031000Y0070314D01*
X0031000Y0070812D02*
X0039064Y0070812D01*
X0038470Y0071311D02*
X0031000Y0071311D01*
X0031000Y0071809D02*
X0037876Y0071809D01*
X0037282Y0072308D02*
X0031000Y0072308D01*
X0031000Y0072806D02*
X0036687Y0072806D01*
X0036283Y0073305D02*
X0031000Y0073305D01*
X0031000Y0073803D02*
X0035995Y0073803D01*
X0035707Y0074302D02*
X0031000Y0074302D01*
X0031000Y0074801D02*
X0035420Y0074801D01*
X0035132Y0075299D02*
X0031000Y0075299D01*
X0030617Y0075798D02*
X0034844Y0075798D01*
X0034556Y0076296D02*
X0030118Y0076296D01*
X0029620Y0076795D02*
X0034290Y0076795D01*
X0034299Y0076741D02*
X0034299Y0076741D01*
X0034202Y0077293D02*
X0029121Y0077293D01*
X0028623Y0077792D02*
X0034114Y0077792D01*
X0034026Y0078290D02*
X0028124Y0078290D01*
X0027626Y0078789D02*
X0033938Y0078789D01*
X0033850Y0079287D02*
X0027591Y0079287D01*
X0027567Y0079786D02*
X0033762Y0079786D01*
X0033674Y0080284D02*
X0027069Y0080284D01*
X0026570Y0080783D02*
X0033587Y0080783D01*
X0033548Y0081000D02*
X0033548Y0081000D01*
X0033598Y0081281D02*
X0026634Y0081281D01*
X0027133Y0081780D02*
X0033686Y0081780D01*
X0033774Y0082278D02*
X0027591Y0082278D01*
X0027591Y0082777D02*
X0033862Y0082777D01*
X0033949Y0083275D02*
X0027689Y0083275D01*
X0028188Y0083774D02*
X0034037Y0083774D01*
X0034125Y0084272D02*
X0028686Y0084272D01*
X0029185Y0084771D02*
X0034213Y0084771D01*
X0034305Y0085269D02*
X0029683Y0085269D01*
X0030182Y0085768D02*
X0034593Y0085768D01*
X0034881Y0086266D02*
X0030680Y0086266D01*
X0031000Y0086765D02*
X0035169Y0086765D01*
X0035457Y0087263D02*
X0031000Y0087263D01*
X0031000Y0087762D02*
X0035744Y0087762D01*
X0036032Y0088260D02*
X0031000Y0088260D01*
X0031000Y0088759D02*
X0036320Y0088759D01*
X0036764Y0089257D02*
X0031000Y0089257D01*
X0031000Y0089756D02*
X0037358Y0089756D01*
X0037952Y0090254D02*
X0031000Y0090254D01*
X0031000Y0090753D02*
X0038546Y0090753D01*
X0039140Y0091251D02*
X0031000Y0091251D01*
X0031000Y0091750D02*
X0039734Y0091750D01*
X0039774Y0091784D02*
X0039774Y0091784D01*
X0041051Y0092248D02*
X0031000Y0092248D01*
X0031000Y0092747D02*
X0042421Y0092747D01*
X0043791Y0093245D02*
X0031000Y0093245D01*
X0031657Y0094242D02*
X0089343Y0094242D01*
X0088845Y0094741D02*
X0032155Y0094741D01*
X0032000Y0102000D02*
X0036000Y0106000D01*
X0036000Y0110000D01*
X0043000Y0117000D01*
X0047000Y0117000D01*
X0050600Y0120700D01*
X0050600Y0123952D01*
X0050551Y0124701D01*
X0049000Y0124677D02*
X0049000Y0121000D01*
X0046000Y0118000D01*
X0042000Y0118000D01*
X0041000Y0117000D01*
X0034000Y0117000D01*
X0033000Y0116000D01*
X0033000Y0114000D01*
X0030000Y0111000D01*
X0030000Y0109000D01*
X0028000Y0107000D01*
X0024000Y0107000D01*
X0016000Y0099000D01*
X0013750Y0100000D01*
X0015131Y0101222D02*
X0015925Y0101222D01*
X0015988Y0101159D02*
X0016745Y0101159D01*
X0015779Y0100193D01*
X0015591Y0100276D01*
X0015591Y0100762D01*
X0014512Y0101841D01*
X0012988Y0101841D01*
X0011909Y0100762D01*
X0011909Y0099796D01*
X0011583Y0099931D01*
X0010417Y0099931D01*
X0010000Y0099758D01*
X0010000Y0107242D01*
X0010417Y0107069D01*
X0011583Y0107069D01*
X0011909Y0107204D01*
X0011909Y0106238D01*
X0012988Y0105159D01*
X0014512Y0105159D01*
X0015081Y0105728D01*
X0018511Y0105075D01*
X0018586Y0105000D01*
X0017969Y0104384D01*
X0017512Y0104841D01*
X0015988Y0104841D01*
X0014909Y0103762D01*
X0014909Y0102238D01*
X0015988Y0101159D01*
X0016309Y0100723D02*
X0015591Y0100723D01*
X0015707Y0100225D02*
X0015810Y0100225D01*
X0015427Y0101720D02*
X0014633Y0101720D01*
X0014928Y0102219D02*
X0010000Y0102219D01*
X0010000Y0102717D02*
X0014909Y0102717D01*
X0014909Y0103216D02*
X0010000Y0103216D01*
X0010000Y0103714D02*
X0014909Y0103714D01*
X0015360Y0104213D02*
X0010000Y0104213D01*
X0010000Y0104711D02*
X0015858Y0104711D01*
X0015187Y0105708D02*
X0015061Y0105708D01*
X0014563Y0105210D02*
X0017805Y0105210D01*
X0017642Y0104711D02*
X0018297Y0104711D01*
X0018586Y0105000D02*
X0018586Y0105000D01*
X0019000Y0106000D02*
X0026000Y0113000D01*
X0026000Y0115000D01*
X0030000Y0119000D01*
X0039000Y0119000D01*
X0040000Y0120000D01*
X0044000Y0120000D01*
X0045800Y0122000D01*
X0045800Y0124828D01*
X0045827Y0124701D01*
X0047402Y0124701D02*
X0047400Y0125099D01*
X0047400Y0121600D01*
X0045000Y0119000D01*
X0041000Y0119000D01*
X0040000Y0118000D01*
X0031000Y0118000D01*
X0027000Y0114000D01*
X0027000Y0112000D01*
X0018000Y0103000D01*
X0016750Y0103000D01*
X0019000Y0106000D02*
X0013750Y0107000D01*
X0012439Y0105708D02*
X0010000Y0105708D01*
X0010000Y0105210D02*
X0012937Y0105210D01*
X0011940Y0106207D02*
X0010000Y0106207D01*
X0010000Y0106705D02*
X0011909Y0106705D01*
X0011909Y0107204D02*
X0011909Y0107204D01*
X0010091Y0107204D02*
X0010000Y0107204D01*
X0010000Y0101720D02*
X0012867Y0101720D01*
X0012369Y0101222D02*
X0010000Y0101222D01*
X0010000Y0100723D02*
X0011909Y0100723D01*
X0011909Y0100225D02*
X0010000Y0100225D01*
X0016750Y0096750D02*
X0016750Y0096000D01*
X0016750Y0096750D02*
X0022000Y0102000D01*
X0032000Y0102000D01*
X0025312Y0099726D02*
X0025140Y0099726D01*
X0024813Y0099228D02*
X0024642Y0099228D01*
X0024315Y0098729D02*
X0024143Y0098729D01*
X0023816Y0098231D02*
X0023645Y0098231D01*
X0023318Y0097732D02*
X0023146Y0097732D01*
X0022819Y0097234D02*
X0022648Y0097234D01*
X0022321Y0096735D02*
X0022149Y0096735D01*
X0021822Y0096237D02*
X0021651Y0096237D01*
X0021324Y0095738D02*
X0021152Y0095738D01*
X0020825Y0095239D02*
X0020654Y0095239D01*
X0020327Y0094741D02*
X0020155Y0094741D01*
X0019828Y0094242D02*
X0019657Y0094242D01*
X0019330Y0093744D02*
X0019158Y0093744D01*
X0018831Y0093245D02*
X0018660Y0093245D01*
X0018333Y0092747D02*
X0018161Y0092747D01*
X0017834Y0092248D02*
X0017718Y0092248D01*
X0016042Y0092248D02*
X0014601Y0092248D01*
X0016750Y0109000D02*
X0016750Y0110750D01*
X0025000Y0119000D01*
X0028000Y0119000D01*
X0029000Y0120000D01*
X0038000Y0120000D01*
X0039000Y0121000D01*
X0043000Y0121000D01*
X0044200Y0122400D01*
X0044200Y0124949D01*
X0044252Y0124701D01*
X0042677Y0124701D02*
X0042700Y0124378D01*
X0042700Y0122900D01*
X0042000Y0122000D01*
X0038000Y0122000D01*
X0037000Y0121000D01*
X0028000Y0121000D01*
X0027000Y0120000D01*
X0024000Y0120000D01*
X0016000Y0112000D01*
X0013750Y0113000D01*
X0015170Y0114183D02*
X0015964Y0114183D01*
X0015988Y0114159D02*
X0016745Y0114159D01*
X0015779Y0113193D01*
X0015591Y0113276D01*
X0015591Y0113762D01*
X0014512Y0114841D01*
X0012988Y0114841D01*
X0011909Y0113762D01*
X0011909Y0112796D01*
X0011583Y0112931D01*
X0010417Y0112931D01*
X0010000Y0112758D01*
X0010000Y0120242D01*
X0010417Y0120069D01*
X0011583Y0120069D01*
X0011909Y0120204D01*
X0011909Y0119238D01*
X0012988Y0118159D01*
X0014512Y0118159D01*
X0015081Y0118728D01*
X0018511Y0118075D01*
X0018586Y0118000D01*
X0017969Y0117384D01*
X0017512Y0117841D01*
X0015988Y0117841D01*
X0014909Y0116762D01*
X0014909Y0115238D01*
X0015988Y0114159D01*
X0016270Y0113684D02*
X0015591Y0113684D01*
X0015466Y0114681D02*
X0014671Y0114681D01*
X0014967Y0115180D02*
X0010000Y0115180D01*
X0010000Y0115678D02*
X0014909Y0115678D01*
X0014909Y0116177D02*
X0010000Y0116177D01*
X0010000Y0116675D02*
X0014909Y0116675D01*
X0015321Y0117174D02*
X0010000Y0117174D01*
X0010000Y0117672D02*
X0015820Y0117672D01*
X0015391Y0118670D02*
X0015022Y0118670D01*
X0014524Y0118171D02*
X0018008Y0118171D01*
X0018258Y0117672D02*
X0017680Y0117672D01*
X0018586Y0118000D02*
X0018586Y0118000D01*
X0019000Y0119000D02*
X0022000Y0122000D01*
X0025000Y0122000D01*
X0026000Y0123000D01*
X0026000Y0124000D01*
X0029000Y0127000D01*
X0038000Y0127000D01*
X0038000Y0124748D01*
X0037953Y0124701D01*
X0039528Y0124701D02*
X0039500Y0125173D01*
X0039500Y0127000D01*
X0039000Y0128000D01*
X0028000Y0128000D01*
X0025000Y0125000D01*
X0025000Y0124000D01*
X0024000Y0123000D01*
X0021000Y0123000D01*
X0020000Y0122000D01*
X0016750Y0122000D01*
X0013750Y0120000D02*
X0019000Y0119000D01*
X0018000Y0116000D02*
X0023000Y0121000D01*
X0026000Y0121000D01*
X0027000Y0122000D01*
X0035800Y0122000D01*
X0036400Y0123523D01*
X0036378Y0124701D01*
X0036000Y0130000D02*
X0039500Y0132600D01*
X0039500Y0135797D01*
X0039528Y0135724D01*
X0038000Y0135677D02*
X0037953Y0135724D01*
X0038000Y0135677D02*
X0038000Y0133000D01*
X0035000Y0131000D01*
X0024000Y0131000D01*
X0022000Y0129000D01*
X0017750Y0129000D01*
X0019000Y0125000D02*
X0020000Y0124000D01*
X0023000Y0124000D01*
X0024000Y0125000D01*
X0024000Y0126000D01*
X0027000Y0129000D01*
X0040000Y0129000D01*
X0041000Y0128000D01*
X0041000Y0124803D01*
X0041102Y0124701D01*
X0040500Y0130600D02*
X0040800Y0132600D01*
X0041102Y0135724D01*
X0042677Y0135724D02*
X0042900Y0132700D01*
X0044500Y0133500D02*
X0044252Y0135724D01*
X0045827Y0135724D02*
X0045800Y0133600D01*
X0045800Y0133300D01*
X0049700Y0131500D01*
X0047100Y0129000D02*
X0044500Y0133500D01*
X0047402Y0135724D02*
X0047200Y0137700D01*
X0046100Y0138200D01*
X0035400Y0138200D01*
X0029900Y0141700D01*
X0029800Y0143350D01*
X0028448Y0142100D02*
X0026541Y0142100D01*
X0026541Y0142598D02*
X0027959Y0142598D01*
X0027959Y0142588D02*
X0028884Y0141663D01*
X0028907Y0141560D01*
X0028927Y0141226D01*
X0028994Y0141166D01*
X0029014Y0141079D01*
X0029296Y0140899D01*
X0029547Y0140677D01*
X0029637Y0140682D01*
X0033298Y0138352D01*
X0033228Y0138352D01*
X0032650Y0138352D01*
X0032332Y0138267D01*
X0032047Y0138103D01*
X0031815Y0137870D01*
X0031805Y0137852D01*
X0030398Y0137852D01*
X0029959Y0137413D01*
X0029959Y0134036D01*
X0029994Y0134000D01*
X0029414Y0134000D01*
X0028414Y0135000D01*
X0020953Y0135000D01*
X0021741Y0135788D01*
X0021741Y0137312D01*
X0021184Y0137869D01*
X0021383Y0137869D01*
X0022460Y0138315D01*
X0022859Y0138714D01*
X0022859Y0137388D01*
X0023938Y0136309D01*
X0025462Y0136309D01*
X0026541Y0137388D01*
X0026541Y0138912D01*
X0025462Y0139991D01*
X0023938Y0139991D01*
X0023425Y0139478D01*
X0023731Y0140217D01*
X0023731Y0140516D01*
X0023938Y0140309D01*
X0025462Y0140309D01*
X0026541Y0141388D01*
X0026541Y0142912D01*
X0025462Y0143991D01*
X0023938Y0143991D01*
X0022859Y0142912D01*
X0022859Y0142886D01*
X0022460Y0143285D01*
X0021383Y0143731D01*
X0021328Y0143731D01*
X0026100Y0151200D01*
X0030985Y0151222D01*
X0030969Y0151183D01*
X0030969Y0150017D01*
X0031311Y0149191D01*
X0030538Y0149191D01*
X0029459Y0148112D01*
X0029459Y0146588D01*
X0030538Y0145509D01*
X0030805Y0145509D01*
X0031000Y0144854D01*
X0031000Y0144753D01*
X0030562Y0145191D01*
X0029038Y0145191D01*
X0027959Y0144112D01*
X0027959Y0142588D01*
X0027959Y0143097D02*
X0026356Y0143097D01*
X0025858Y0143595D02*
X0027959Y0143595D01*
X0027959Y0144094D02*
X0021560Y0144094D01*
X0021711Y0143595D02*
X0023542Y0143595D01*
X0023044Y0143097D02*
X0022649Y0143097D01*
X0021878Y0144592D02*
X0028439Y0144592D01*
X0028938Y0145091D02*
X0022197Y0145091D01*
X0022515Y0145589D02*
X0025458Y0145589D01*
X0025938Y0145109D02*
X0027462Y0145109D01*
X0028541Y0146188D01*
X0028541Y0147712D01*
X0027462Y0148791D01*
X0025938Y0148791D01*
X0024859Y0147712D01*
X0024859Y0146188D01*
X0025938Y0145109D01*
X0024959Y0146088D02*
X0022834Y0146088D01*
X0023152Y0146586D02*
X0024859Y0146586D01*
X0024859Y0147085D02*
X0023471Y0147085D01*
X0023789Y0147583D02*
X0024859Y0147583D01*
X0025229Y0148082D02*
X0024108Y0148082D01*
X0024426Y0148580D02*
X0025727Y0148580D01*
X0024745Y0149079D02*
X0030426Y0149079D01*
X0029927Y0148580D02*
X0027673Y0148580D01*
X0028171Y0148082D02*
X0029459Y0148082D01*
X0029459Y0147583D02*
X0028541Y0147583D01*
X0028541Y0147085D02*
X0029459Y0147085D01*
X0029461Y0146586D02*
X0028541Y0146586D01*
X0028441Y0146088D02*
X0029959Y0146088D01*
X0030458Y0145589D02*
X0027942Y0145589D01*
X0030662Y0145091D02*
X0030930Y0145091D01*
X0032000Y0145000D02*
X0031300Y0147350D01*
X0031151Y0149577D02*
X0025063Y0149577D01*
X0025382Y0150076D02*
X0030969Y0150076D01*
X0030969Y0150574D02*
X0025700Y0150574D01*
X0026019Y0151073D02*
X0030969Y0151073D01*
X0032000Y0145000D02*
X0032000Y0141600D01*
X0035600Y0139300D01*
X0048200Y0139300D01*
X0049000Y0138600D01*
X0048976Y0135724D01*
X0050551Y0135724D02*
X0050600Y0139400D01*
X0049400Y0140300D01*
X0036300Y0140300D01*
X0034200Y0143250D01*
X0036600Y0143100D02*
X0037800Y0141400D01*
X0050000Y0141400D01*
X0052000Y0140300D01*
X0052126Y0135724D01*
X0053701Y0135724D02*
X0053700Y0141400D01*
X0050000Y0143200D01*
X0039600Y0143250D01*
X0036600Y0143100D02*
X0036600Y0147250D01*
X0042100Y0147050D02*
X0049500Y0147000D01*
X0056800Y0143200D01*
X0056850Y0135724D01*
X0055276Y0135724D02*
X0055300Y0141900D01*
X0050100Y0145100D01*
X0046100Y0145150D01*
X0045800Y0149250D02*
X0050100Y0149200D01*
X0058400Y0144300D01*
X0058425Y0135724D01*
X0060000Y0135724D02*
X0060000Y0144000D01*
X0069800Y0149500D01*
X0074100Y0149550D01*
X0075000Y0145350D02*
X0070400Y0145400D01*
X0063200Y0141800D01*
X0063150Y0135724D01*
X0064724Y0135724D02*
X0064800Y0140200D01*
X0070200Y0143400D01*
X0080200Y0143450D01*
X0081800Y0141400D02*
X0070300Y0141500D01*
X0066300Y0138900D01*
X0066299Y0135724D01*
X0067874Y0135724D02*
X0067900Y0138100D01*
X0070500Y0140100D01*
X0082200Y0140100D01*
X0086000Y0143250D01*
X0088100Y0142600D02*
X0083900Y0139100D01*
X0071100Y0139100D01*
X0069500Y0137900D01*
X0069449Y0135724D01*
X0071024Y0135724D02*
X0071300Y0137700D01*
X0072200Y0138000D01*
X0084400Y0138100D01*
X0090600Y0142950D01*
X0091854Y0141601D02*
X0094459Y0141601D01*
X0094459Y0141188D02*
X0095257Y0140391D01*
X0094338Y0140391D01*
X0093259Y0139312D01*
X0093259Y0137788D01*
X0094338Y0136709D01*
X0095862Y0136709D01*
X0096941Y0137788D01*
X0096941Y0139312D01*
X0096143Y0140109D01*
X0097062Y0140109D01*
X0097469Y0140516D01*
X0097469Y0139817D01*
X0097915Y0138740D01*
X0098351Y0138304D01*
X0097559Y0137512D01*
X0097559Y0135988D01*
X0098170Y0135377D01*
X0097552Y0135394D01*
X0097384Y0135479D01*
X0097154Y0135404D01*
X0096912Y0135411D01*
X0096776Y0135281D01*
X0092841Y0134000D01*
X0090006Y0134000D01*
X0090041Y0134036D01*
X0090041Y0137413D01*
X0089602Y0137852D01*
X0088195Y0137852D01*
X0088185Y0137870D01*
X0087953Y0138103D01*
X0087668Y0138267D01*
X0087350Y0138352D01*
X0086772Y0138352D01*
X0086772Y0135725D01*
X0086772Y0135725D01*
X0086772Y0138352D01*
X0086346Y0138352D01*
X0089870Y0141109D01*
X0091362Y0141109D01*
X0092441Y0142188D01*
X0092441Y0143712D01*
X0091362Y0144791D01*
X0089838Y0144791D01*
X0089100Y0144053D01*
X0089100Y0144899D01*
X0089314Y0145409D01*
X0089762Y0145409D01*
X0090841Y0146488D01*
X0090841Y0148012D01*
X0089762Y0149091D01*
X0088536Y0149091D01*
X0088585Y0149140D01*
X0089031Y0150217D01*
X0089031Y0151383D01*
X0088992Y0151478D01*
X0094000Y0151500D01*
X0099268Y0143104D01*
X0098740Y0142885D01*
X0098141Y0142286D01*
X0098141Y0142712D01*
X0097062Y0143791D01*
X0095538Y0143791D01*
X0094459Y0142712D01*
X0094459Y0141188D01*
X0094545Y0141103D02*
X0089861Y0141103D01*
X0089224Y0140604D02*
X0095043Y0140604D01*
X0094053Y0140105D02*
X0088587Y0140105D01*
X0087949Y0139607D02*
X0093554Y0139607D01*
X0093259Y0139108D02*
X0087312Y0139108D01*
X0086675Y0138610D02*
X0093259Y0138610D01*
X0093259Y0138111D02*
X0087937Y0138111D01*
X0086772Y0138111D02*
X0086772Y0138111D01*
X0086772Y0137613D02*
X0086772Y0137613D01*
X0086772Y0137114D02*
X0086772Y0137114D01*
X0086772Y0136616D02*
X0086772Y0136616D01*
X0086772Y0136117D02*
X0086772Y0136117D01*
X0089841Y0137613D02*
X0093434Y0137613D01*
X0093933Y0137114D02*
X0090041Y0137114D01*
X0090041Y0136616D02*
X0097559Y0136616D01*
X0097559Y0137114D02*
X0096267Y0137114D01*
X0096766Y0137613D02*
X0097660Y0137613D01*
X0098159Y0138111D02*
X0096941Y0138111D01*
X0096941Y0138610D02*
X0098045Y0138610D01*
X0097762Y0139108D02*
X0096941Y0139108D01*
X0096646Y0139607D02*
X0097556Y0139607D01*
X0097469Y0140105D02*
X0096147Y0140105D01*
X0094459Y0142100D02*
X0092352Y0142100D01*
X0092441Y0142598D02*
X0094459Y0142598D01*
X0094844Y0143097D02*
X0092441Y0143097D01*
X0092441Y0143595D02*
X0095342Y0143595D01*
X0094862Y0144509D02*
X0095941Y0145588D01*
X0095941Y0147112D01*
X0094862Y0148191D01*
X0093338Y0148191D01*
X0092259Y0147112D01*
X0092259Y0145588D01*
X0093338Y0144509D01*
X0094862Y0144509D01*
X0094945Y0144592D02*
X0098334Y0144592D01*
X0098022Y0145091D02*
X0095444Y0145091D01*
X0095941Y0145589D02*
X0097709Y0145589D01*
X0097396Y0146088D02*
X0095941Y0146088D01*
X0095941Y0146586D02*
X0097083Y0146586D01*
X0096770Y0147085D02*
X0095941Y0147085D01*
X0095470Y0147583D02*
X0096458Y0147583D01*
X0096145Y0148082D02*
X0094971Y0148082D01*
X0095832Y0148580D02*
X0090273Y0148580D01*
X0090771Y0148082D02*
X0093229Y0148082D01*
X0092730Y0147583D02*
X0090841Y0147583D01*
X0090841Y0147085D02*
X0092259Y0147085D01*
X0092259Y0146586D02*
X0090841Y0146586D01*
X0090441Y0146088D02*
X0092259Y0146088D01*
X0092259Y0145589D02*
X0089942Y0145589D01*
X0089180Y0145091D02*
X0092756Y0145091D01*
X0093255Y0144592D02*
X0091561Y0144592D01*
X0092059Y0144094D02*
X0098647Y0144094D01*
X0098960Y0143595D02*
X0097258Y0143595D01*
X0097756Y0143097D02*
X0099251Y0143097D01*
X0098453Y0142598D02*
X0098141Y0142598D01*
X0097559Y0136117D02*
X0090041Y0136117D01*
X0090041Y0135619D02*
X0097928Y0135619D01*
X0097300Y0134400D02*
X0093000Y0133000D01*
X0085000Y0133000D01*
X0083600Y0134300D01*
X0083600Y0135402D01*
X0083622Y0135724D01*
X0082047Y0135724D02*
X0081900Y0135677D01*
X0082000Y0134300D01*
X0084000Y0132000D01*
X0098250Y0132000D01*
X0096000Y0131000D02*
X0083000Y0131000D01*
X0080500Y0134000D01*
X0080400Y0135252D01*
X0080472Y0135724D01*
X0078898Y0135724D02*
X0078900Y0135022D01*
X0079100Y0133700D01*
X0082000Y0130000D01*
X0095000Y0130000D01*
X0098250Y0126750D01*
X0098250Y0126000D01*
X0097000Y0124000D02*
X0096000Y0125000D01*
X0096000Y0127000D01*
X0094000Y0129000D01*
X0081000Y0129000D01*
X0080500Y0128400D01*
X0080500Y0125573D01*
X0080472Y0124701D01*
X0082000Y0124748D02*
X0082000Y0127000D01*
X0083000Y0128000D01*
X0093000Y0128000D01*
X0095000Y0126000D01*
X0095000Y0124000D01*
X0096000Y0123000D01*
X0099000Y0123000D01*
X0100000Y0122000D01*
X0103250Y0122000D01*
X0101000Y0119000D02*
X0098000Y0122000D01*
X0095000Y0122000D01*
X0094000Y0123000D01*
X0094000Y0125000D01*
X0092000Y0127000D01*
X0084200Y0127000D01*
X0083600Y0126579D01*
X0083622Y0124701D01*
X0082047Y0124701D02*
X0082000Y0124748D01*
X0085197Y0124701D02*
X0085200Y0124504D01*
X0085200Y0122700D01*
X0086000Y0122000D01*
X0093000Y0122000D01*
X0094000Y0121000D01*
X0097000Y0121000D01*
X0102000Y0116000D01*
X0103250Y0116000D01*
X0104534Y0114681D02*
X0110000Y0114681D01*
X0110000Y0114183D02*
X0104036Y0114183D01*
X0104012Y0114159D02*
X0103255Y0114159D01*
X0104414Y0113000D01*
X0104647Y0113000D01*
X0105488Y0113841D01*
X0107012Y0113841D01*
X0108091Y0112762D01*
X0108091Y0111796D01*
X0108417Y0111931D01*
X0109583Y0111931D01*
X0110000Y0111758D01*
X0110000Y0119242D01*
X0109583Y0119069D01*
X0108417Y0119069D01*
X0108091Y0119204D01*
X0108091Y0118238D01*
X0107012Y0117159D01*
X0105488Y0117159D01*
X0104647Y0118000D01*
X0101414Y0118000D01*
X0102031Y0117384D01*
X0102488Y0117841D01*
X0104012Y0117841D01*
X0105091Y0116762D01*
X0105091Y0115238D01*
X0104012Y0114159D01*
X0103730Y0113684D02*
X0105331Y0113684D01*
X0104833Y0113186D02*
X0104228Y0113186D01*
X0104000Y0112000D02*
X0096000Y0120000D01*
X0093000Y0120000D01*
X0092000Y0121000D01*
X0085000Y0121000D01*
X0084000Y0122000D01*
X0080000Y0122000D01*
X0079000Y0123000D01*
X0079000Y0124598D01*
X0078898Y0124701D01*
X0077323Y0124701D02*
X0077300Y0124078D01*
X0077300Y0121700D01*
X0078000Y0121000D01*
X0083000Y0121000D01*
X0084000Y0120000D01*
X0091000Y0120000D01*
X0092000Y0119000D01*
X0095000Y0119000D01*
X0103250Y0110750D01*
X0103250Y0109000D01*
X0101000Y0108000D02*
X0103000Y0106000D01*
X0106250Y0106000D01*
X0107564Y0104711D02*
X0110000Y0104711D01*
X0110000Y0104213D02*
X0107066Y0104213D01*
X0107012Y0104159D02*
X0108091Y0105238D01*
X0108091Y0106204D01*
X0108417Y0106069D01*
X0109583Y0106069D01*
X0110000Y0106242D01*
X0110000Y0098758D01*
X0109583Y0098931D01*
X0108417Y0098931D01*
X0108091Y0098796D01*
X0108091Y0099762D01*
X0107012Y0100841D01*
X0105488Y0100841D01*
X0104647Y0100000D01*
X0104414Y0100000D01*
X0103255Y0101159D01*
X0104012Y0101159D01*
X0105091Y0102238D01*
X0105091Y0103762D01*
X0104012Y0104841D01*
X0102574Y0104841D01*
X0101000Y0106414D01*
X0101000Y0106586D01*
X0102586Y0105000D01*
X0104647Y0105000D01*
X0105488Y0104159D01*
X0107012Y0104159D01*
X0108063Y0105210D02*
X0110000Y0105210D01*
X0110000Y0105708D02*
X0108091Y0105708D01*
X0109916Y0106207D02*
X0110000Y0106207D01*
X0110000Y0103714D02*
X0105091Y0103714D01*
X0105091Y0103216D02*
X0110000Y0103216D01*
X0110000Y0102717D02*
X0105091Y0102717D01*
X0105072Y0102219D02*
X0110000Y0102219D01*
X0110000Y0101720D02*
X0104573Y0101720D01*
X0104075Y0101222D02*
X0110000Y0101222D01*
X0110000Y0100723D02*
X0107130Y0100723D01*
X0107628Y0100225D02*
X0110000Y0100225D01*
X0110000Y0099726D02*
X0108091Y0099726D01*
X0108091Y0099228D02*
X0110000Y0099228D01*
X0106250Y0099000D02*
X0104000Y0099000D01*
X0101000Y0102000D01*
X0101000Y0103000D01*
X0096000Y0108000D01*
X0096000Y0110000D01*
X0095000Y0111000D01*
X0093000Y0111000D01*
X0092000Y0112000D01*
X0088000Y0112000D01*
X0087000Y0113000D01*
X0087000Y0116000D01*
X0086000Y0117000D01*
X0081000Y0117000D01*
X0080000Y0118000D01*
X0075000Y0118000D01*
X0072600Y0120500D01*
X0072600Y0124799D01*
X0072598Y0124701D01*
X0074100Y0124428D02*
X0074173Y0124701D01*
X0074100Y0124428D02*
X0074100Y0120900D01*
X0076000Y0119000D01*
X0081000Y0119000D01*
X0082000Y0118000D01*
X0089000Y0118000D01*
X0090000Y0117000D01*
X0092000Y0117000D01*
X0093000Y0116000D01*
X0093000Y0113000D01*
X0094000Y0112000D01*
X0098000Y0112000D01*
X0100000Y0110000D01*
X0100000Y0106000D01*
X0103000Y0103000D01*
X0103250Y0103000D01*
X0104640Y0104213D02*
X0105434Y0104213D01*
X0104936Y0104711D02*
X0104142Y0104711D01*
X0102376Y0105210D02*
X0102204Y0105210D01*
X0101878Y0105708D02*
X0101706Y0105708D01*
X0101379Y0106207D02*
X0101207Y0106207D01*
X0101000Y0108000D02*
X0101000Y0111000D01*
X0094000Y0118000D01*
X0091000Y0118000D01*
X0090000Y0119000D01*
X0083000Y0119000D01*
X0082000Y0120000D01*
X0077000Y0120000D01*
X0075700Y0121300D01*
X0075700Y0124749D01*
X0075748Y0124701D01*
X0073500Y0129000D02*
X0074173Y0135724D01*
X0074200Y0135600D01*
X0072598Y0135724D02*
X0072100Y0132600D01*
X0069700Y0131400D01*
X0069449Y0124701D02*
X0069500Y0123150D01*
X0069500Y0119400D01*
X0074000Y0115000D01*
X0074000Y0113000D01*
X0075000Y0112000D01*
X0079000Y0112000D01*
X0080000Y0111000D01*
X0082000Y0111000D01*
X0083000Y0110000D01*
X0083000Y0108000D01*
X0084000Y0107000D01*
X0086000Y0107000D01*
X0092000Y0101000D01*
X0098000Y0101000D01*
X0101000Y0098000D01*
X0101000Y0095000D01*
X0103000Y0093000D01*
X0106250Y0093000D01*
X0104897Y0091750D02*
X0104103Y0091750D01*
X0104602Y0091251D02*
X0105396Y0091251D01*
X0105091Y0090753D02*
X0110000Y0090753D01*
X0110000Y0091251D02*
X0107104Y0091251D01*
X0107603Y0091750D02*
X0110000Y0091750D01*
X0110000Y0092248D02*
X0108091Y0092248D01*
X0108091Y0092747D02*
X0110000Y0092747D01*
X0110000Y0090254D02*
X0105091Y0090254D01*
X0105091Y0089756D02*
X0110000Y0089756D01*
X0110000Y0089257D02*
X0105091Y0089257D01*
X0104612Y0088759D02*
X0110000Y0088759D01*
X0110000Y0088260D02*
X0104113Y0088260D01*
X0102387Y0088260D02*
X0096091Y0088260D01*
X0096091Y0088759D02*
X0101888Y0088759D01*
X0101409Y0089257D02*
X0096091Y0089257D01*
X0096091Y0089756D02*
X0101409Y0089756D01*
X0101409Y0090254D02*
X0098107Y0090254D01*
X0098606Y0090753D02*
X0101409Y0090753D01*
X0101334Y0091251D02*
X0099091Y0091251D01*
X0099091Y0091750D02*
X0100836Y0091750D01*
X0100337Y0092248D02*
X0099091Y0092248D01*
X0099091Y0092747D02*
X0099839Y0092747D01*
X0099340Y0093245D02*
X0098607Y0093245D01*
X0098250Y0093744D02*
X0099000Y0093744D01*
X0099000Y0094242D02*
X0098250Y0094242D01*
X0098250Y0094741D02*
X0099000Y0094741D01*
X0099000Y0095239D02*
X0098250Y0095239D01*
X0098250Y0095738D02*
X0099000Y0095738D01*
X0099000Y0096237D02*
X0098250Y0096237D01*
X0098250Y0096735D02*
X0098851Y0096735D01*
X0098352Y0097234D02*
X0098250Y0097234D01*
X0097250Y0097750D02*
X0096000Y0099000D01*
X0081000Y0099000D01*
X0073000Y0107000D01*
X0071000Y0107000D01*
X0069000Y0109000D01*
X0069000Y0111000D01*
X0067000Y0113000D01*
X0067000Y0121000D01*
X0066300Y0121800D01*
X0066300Y0123502D01*
X0066299Y0124701D01*
X0067874Y0124701D02*
X0068000Y0122975D01*
X0068000Y0119000D01*
X0073000Y0114000D01*
X0073000Y0112000D01*
X0074000Y0111000D01*
X0076000Y0111000D01*
X0077000Y0110000D01*
X0077000Y0105000D01*
X0082000Y0100000D01*
X0097000Y0100000D01*
X0100000Y0097000D01*
X0100000Y0094000D01*
X0103250Y0090750D01*
X0103250Y0090000D01*
X0100015Y0086765D02*
X0099088Y0086765D01*
X0099091Y0086266D02*
X0099121Y0086266D01*
X0098091Y0087762D02*
X0110000Y0087762D01*
X0110000Y0080284D02*
X0095569Y0080284D01*
X0093354Y0077293D02*
X0092707Y0077293D01*
X0092215Y0074801D02*
X0093448Y0074801D01*
X0092949Y0074302D02*
X0091716Y0074302D01*
X0091218Y0073803D02*
X0092451Y0073803D01*
X0092409Y0073305D02*
X0091000Y0073305D01*
X0091000Y0072806D02*
X0092409Y0072806D01*
X0092409Y0072308D02*
X0091000Y0072308D01*
X0091000Y0071809D02*
X0092838Y0071809D01*
X0093250Y0071311D02*
X0091000Y0071311D01*
X0091000Y0070812D02*
X0093250Y0070812D01*
X0093250Y0070314D02*
X0091000Y0070314D01*
X0091000Y0069815D02*
X0093250Y0069815D01*
X0093250Y0069317D02*
X0091000Y0069317D01*
X0091000Y0068818D02*
X0093250Y0068818D01*
X0093250Y0068320D02*
X0091000Y0068320D01*
X0091000Y0067821D02*
X0093250Y0067821D01*
X0093250Y0067323D02*
X0091000Y0067323D01*
X0091000Y0066824D02*
X0093250Y0066824D01*
X0092912Y0066326D02*
X0090740Y0066326D01*
X0093000Y0065000D02*
X0076000Y0065000D01*
X0071000Y0060000D01*
X0071000Y0058000D01*
X0068000Y0055000D01*
X0066000Y0055000D01*
X0065000Y0054000D01*
X0065000Y0051000D01*
X0066000Y0050000D01*
X0066000Y0046000D01*
X0063200Y0043200D01*
X0063200Y0037649D01*
X0063150Y0037299D01*
X0064724Y0037299D02*
X0064700Y0038724D01*
X0064700Y0042700D01*
X0067000Y0045000D01*
X0067000Y0050000D01*
X0070000Y0053000D01*
X0070000Y0055000D01*
X0072000Y0057000D01*
X0072000Y0059000D01*
X0077000Y0064000D01*
X0094000Y0064000D01*
X0097250Y0067250D01*
X0097250Y0070000D01*
X0098542Y0071311D02*
X0101409Y0071311D01*
X0101409Y0071809D02*
X0098043Y0071809D01*
X0099040Y0070812D02*
X0101398Y0070812D01*
X0100900Y0070314D02*
X0099091Y0070314D01*
X0099091Y0069815D02*
X0100401Y0069815D01*
X0099903Y0069317D02*
X0099091Y0069317D01*
X0099404Y0068818D02*
X0098671Y0068818D01*
X0098906Y0068320D02*
X0098250Y0068320D01*
X0098250Y0067821D02*
X0098407Y0067821D01*
X0096250Y0067821D02*
X0095250Y0067821D01*
X0095250Y0067323D02*
X0095909Y0067323D01*
X0095410Y0066824D02*
X0095250Y0066824D01*
X0094250Y0066250D02*
X0093000Y0065000D01*
X0094250Y0066250D02*
X0094250Y0073000D01*
X0095662Y0071809D02*
X0096457Y0071809D01*
X0096091Y0072308D02*
X0101409Y0072308D01*
X0101454Y0072806D02*
X0096091Y0072806D01*
X0096091Y0073305D02*
X0101952Y0073305D01*
X0103250Y0072000D02*
X0103250Y0071250D01*
X0095000Y0063000D01*
X0078000Y0063000D01*
X0073000Y0058000D01*
X0073000Y0056000D01*
X0071000Y0054000D01*
X0071000Y0052000D01*
X0068000Y0049000D01*
X0068000Y0044000D01*
X0066300Y0042300D01*
X0066300Y0037898D01*
X0066299Y0037299D01*
X0067874Y0037299D02*
X0067900Y0037325D01*
X0067900Y0041900D01*
X0078000Y0052000D01*
X0078000Y0054000D01*
X0086000Y0062000D01*
X0096000Y0062000D01*
X0103000Y0069000D01*
X0106250Y0069000D01*
X0107539Y0070314D02*
X0110000Y0070314D01*
X0110000Y0070812D02*
X0107040Y0070812D01*
X0108038Y0069815D02*
X0110000Y0069815D01*
X0110000Y0069317D02*
X0108091Y0069317D01*
X0108091Y0068818D02*
X0108145Y0068818D01*
X0109855Y0068818D02*
X0110000Y0068818D01*
X0110000Y0071311D02*
X0105091Y0071311D01*
X0105091Y0071809D02*
X0110000Y0071809D01*
X0110000Y0072308D02*
X0105091Y0072308D01*
X0105046Y0072806D02*
X0110000Y0072806D01*
X0110000Y0073305D02*
X0104548Y0073305D01*
X0104049Y0073803D02*
X0110000Y0073803D01*
X0105459Y0070812D02*
X0104665Y0070812D01*
X0104961Y0070314D02*
X0104167Y0070314D01*
X0103250Y0066000D02*
X0102000Y0066000D01*
X0097000Y0061000D01*
X0088500Y0061000D01*
X0082500Y0055000D01*
X0082500Y0050500D01*
X0077000Y0045000D01*
X0073000Y0045000D01*
X0069400Y0041500D01*
X0069400Y0037350D01*
X0069449Y0037299D01*
X0071000Y0037323D02*
X0071024Y0037299D01*
X0071000Y0037323D02*
X0071000Y0041000D01*
X0074000Y0044000D01*
X0078000Y0044000D01*
X0079000Y0045000D01*
X0087000Y0045000D01*
X0088000Y0046000D01*
X0088000Y0049000D01*
X0089000Y0050000D01*
X0089000Y0052000D01*
X0092000Y0055000D01*
X0093000Y0055000D01*
X0101000Y0063000D01*
X0106250Y0063000D01*
X0107692Y0061839D02*
X0110000Y0061839D01*
X0110000Y0061341D02*
X0107194Y0061341D01*
X0107012Y0061159D02*
X0108091Y0062238D01*
X0108091Y0063204D01*
X0108417Y0063069D01*
X0109583Y0063069D01*
X0110000Y0063242D01*
X0110000Y0055758D01*
X0109583Y0055931D01*
X0108417Y0055931D01*
X0108091Y0055796D01*
X0108091Y0056762D01*
X0107012Y0057841D01*
X0105488Y0057841D01*
X0104647Y0057000D01*
X0101414Y0057000D01*
X0102031Y0057616D01*
X0102488Y0057159D01*
X0104012Y0057159D01*
X0105091Y0058238D01*
X0105091Y0059762D01*
X0104012Y0060841D01*
X0102488Y0060841D01*
X0101647Y0060000D01*
X0101586Y0060000D01*
X0091586Y0050000D01*
X0091586Y0050000D01*
X0091000Y0049414D01*
X0091000Y0046414D01*
X0090586Y0046000D01*
X0089586Y0046000D01*
X0088586Y0045000D01*
X0088414Y0045000D01*
X0089000Y0045586D01*
X0089000Y0048586D01*
X0090000Y0049586D01*
X0090000Y0051586D01*
X0092414Y0054000D01*
X0093414Y0054000D01*
X0094000Y0054586D01*
X0101414Y0062000D01*
X0104647Y0062000D01*
X0105488Y0061159D01*
X0107012Y0061159D01*
X0108091Y0062338D02*
X0110000Y0062338D01*
X0110000Y0062836D02*
X0108091Y0062836D01*
X0110000Y0060842D02*
X0100256Y0060842D01*
X0099758Y0060344D02*
X0101991Y0060344D01*
X0101431Y0059845D02*
X0099259Y0059845D01*
X0098761Y0059347D02*
X0100932Y0059347D01*
X0100434Y0058848D02*
X0098262Y0058848D01*
X0097764Y0058350D02*
X0099935Y0058350D01*
X0099437Y0057851D02*
X0097265Y0057851D01*
X0096767Y0057353D02*
X0098938Y0057353D01*
X0098440Y0056854D02*
X0096268Y0056854D01*
X0095770Y0056356D02*
X0097941Y0056356D01*
X0097443Y0055857D02*
X0095271Y0055857D01*
X0094773Y0055359D02*
X0096944Y0055359D01*
X0096446Y0054860D02*
X0094274Y0054860D01*
X0093776Y0054362D02*
X0095947Y0054362D01*
X0095449Y0053863D02*
X0092277Y0053863D01*
X0091779Y0053365D02*
X0094950Y0053365D01*
X0094452Y0052866D02*
X0091280Y0052866D01*
X0090782Y0052368D02*
X0093953Y0052368D01*
X0093455Y0051869D02*
X0090283Y0051869D01*
X0090000Y0051370D02*
X0092956Y0051370D01*
X0092458Y0050872D02*
X0090000Y0050872D01*
X0090000Y0050373D02*
X0091959Y0050373D01*
X0091461Y0049875D02*
X0090000Y0049875D01*
X0089791Y0049376D02*
X0091000Y0049376D01*
X0091000Y0048878D02*
X0089292Y0048878D01*
X0089000Y0048379D02*
X0091000Y0048379D01*
X0091000Y0047881D02*
X0089000Y0047881D01*
X0089000Y0047382D02*
X0091000Y0047382D01*
X0091000Y0046884D02*
X0089000Y0046884D01*
X0089000Y0046385D02*
X0090971Y0046385D01*
X0092000Y0046000D02*
X0091000Y0045000D01*
X0090000Y0045000D01*
X0089000Y0044000D01*
X0080000Y0044000D01*
X0079000Y0043000D01*
X0075000Y0043000D01*
X0072600Y0040400D01*
X0072600Y0037101D01*
X0072598Y0037299D01*
X0074173Y0037299D02*
X0074200Y0037572D01*
X0074200Y0040100D01*
X0076000Y0042000D01*
X0080000Y0042000D01*
X0081000Y0043000D01*
X0090000Y0043000D01*
X0091000Y0044000D01*
X0093000Y0044000D01*
X0094000Y0045000D01*
X0094000Y0049000D01*
X0101000Y0056000D01*
X0106250Y0056000D01*
X0107500Y0057353D02*
X0110000Y0057353D01*
X0110000Y0057851D02*
X0104704Y0057851D01*
X0105000Y0057353D02*
X0104206Y0057353D01*
X0105091Y0058350D02*
X0110000Y0058350D01*
X0110000Y0058848D02*
X0105091Y0058848D01*
X0105091Y0059347D02*
X0110000Y0059347D01*
X0110000Y0059845D02*
X0105008Y0059845D01*
X0104509Y0060344D02*
X0110000Y0060344D01*
X0110000Y0056854D02*
X0107999Y0056854D01*
X0108091Y0056356D02*
X0110000Y0056356D01*
X0110000Y0055857D02*
X0109762Y0055857D01*
X0108238Y0055857D02*
X0108091Y0055857D01*
X0105306Y0061341D02*
X0100755Y0061341D01*
X0101253Y0061839D02*
X0104808Y0061839D01*
X0103250Y0059000D02*
X0102000Y0059000D01*
X0092000Y0049000D01*
X0092000Y0046000D01*
X0089473Y0045887D02*
X0089000Y0045887D01*
X0088974Y0045388D02*
X0088803Y0045388D01*
X0092000Y0043000D02*
X0091000Y0042000D01*
X0082000Y0042000D01*
X0081000Y0041000D01*
X0077000Y0041000D01*
X0075700Y0039700D01*
X0075700Y0037251D01*
X0075748Y0037299D01*
X0077300Y0037422D02*
X0077300Y0038800D01*
X0078000Y0040000D01*
X0082000Y0040000D01*
X0083000Y0041000D01*
X0092000Y0041000D01*
X0093000Y0042000D01*
X0097000Y0042000D01*
X0101000Y0046000D01*
X0101000Y0047000D01*
X0104000Y0050000D01*
X0106250Y0050000D01*
X0107731Y0048878D02*
X0110000Y0048878D01*
X0110000Y0049376D02*
X0108091Y0049376D01*
X0108091Y0049238D02*
X0108091Y0050204D01*
X0108417Y0050069D01*
X0109583Y0050069D01*
X0110000Y0050242D01*
X0110000Y0042758D01*
X0109583Y0042931D01*
X0108417Y0042931D01*
X0108091Y0042796D01*
X0108091Y0043762D01*
X0107012Y0044841D01*
X0105488Y0044841D01*
X0104647Y0044000D01*
X0102414Y0044000D01*
X0102574Y0044159D01*
X0104012Y0044159D01*
X0105091Y0045238D01*
X0105091Y0046762D01*
X0104012Y0047841D01*
X0103255Y0047841D01*
X0104414Y0049000D01*
X0104647Y0049000D01*
X0105488Y0048159D01*
X0107012Y0048159D01*
X0108091Y0049238D01*
X0108091Y0049875D02*
X0110000Y0049875D01*
X0110000Y0048379D02*
X0107232Y0048379D01*
X0105268Y0048379D02*
X0103794Y0048379D01*
X0103295Y0047881D02*
X0110000Y0047881D01*
X0110000Y0047382D02*
X0104471Y0047382D01*
X0104969Y0046884D02*
X0110000Y0046884D01*
X0110000Y0046385D02*
X0105091Y0046385D01*
X0105091Y0045887D02*
X0110000Y0045887D01*
X0110000Y0045388D02*
X0105091Y0045388D01*
X0104743Y0044890D02*
X0110000Y0044890D01*
X0110000Y0044391D02*
X0107462Y0044391D01*
X0107960Y0043893D02*
X0110000Y0043893D01*
X0110000Y0043394D02*
X0108091Y0043394D01*
X0108091Y0042896D02*
X0108332Y0042896D01*
X0109668Y0042896D02*
X0110000Y0042896D01*
X0106250Y0043000D02*
X0102000Y0043000D01*
X0099000Y0040000D01*
X0095000Y0040000D01*
X0094000Y0039000D01*
X0094000Y0038000D01*
X0091000Y0035000D01*
X0082800Y0035000D01*
X0082100Y0036346D01*
X0082047Y0037299D01*
X0080500Y0037272D02*
X0080500Y0035500D01*
X0082000Y0034000D01*
X0092000Y0034000D01*
X0095000Y0037000D01*
X0095000Y0038000D01*
X0096000Y0039000D01*
X0100000Y0039000D01*
X0101000Y0040000D01*
X0103250Y0040000D01*
X0101000Y0037000D02*
X0100000Y0038000D01*
X0097000Y0038000D01*
X0096000Y0037000D01*
X0096000Y0036000D01*
X0093000Y0033000D01*
X0081000Y0033000D01*
X0078900Y0035100D01*
X0078900Y0037297D01*
X0078898Y0037299D01*
X0077323Y0037299D02*
X0077300Y0037422D01*
X0080472Y0037299D02*
X0080500Y0037272D01*
X0083622Y0037299D02*
X0083600Y0037677D01*
X0083600Y0040000D01*
X0093000Y0040000D01*
X0094000Y0041000D01*
X0098000Y0041000D01*
X0103000Y0046000D01*
X0103250Y0046000D01*
X0104244Y0044391D02*
X0105038Y0044391D01*
X0104769Y0048878D02*
X0104292Y0048878D01*
X0103250Y0051250D02*
X0100000Y0048000D01*
X0100000Y0047000D01*
X0096000Y0043000D01*
X0092000Y0043000D01*
X0098000Y0036000D02*
X0094000Y0032000D01*
X0083000Y0032000D01*
X0080500Y0029200D01*
X0080500Y0026003D01*
X0080472Y0026276D01*
X0082000Y0026323D02*
X0082000Y0029000D01*
X0084000Y0031000D01*
X0095000Y0031000D01*
X0097000Y0033000D01*
X0101250Y0033000D01*
X0102774Y0031921D02*
X0103015Y0031340D01*
X0103840Y0030515D01*
X0104917Y0030069D01*
X0106083Y0030069D01*
X0106338Y0030175D01*
X0101410Y0022335D01*
X0101060Y0022685D01*
X0100196Y0023043D01*
X0100741Y0023588D01*
X0100741Y0025112D01*
X0099662Y0026191D01*
X0098138Y0026191D01*
X0097059Y0025112D01*
X0097059Y0023588D01*
X0097897Y0022750D01*
X0097740Y0022685D01*
X0096915Y0021860D01*
X0096498Y0020854D01*
X0095762Y0021591D01*
X0094238Y0021591D01*
X0093159Y0020512D01*
X0093159Y0018988D01*
X0093357Y0018791D01*
X0092338Y0018791D01*
X0091259Y0017712D01*
X0091259Y0016188D01*
X0092338Y0015109D01*
X0093862Y0015109D01*
X0094941Y0016188D01*
X0094941Y0017712D01*
X0094743Y0017909D01*
X0095762Y0017909D01*
X0096762Y0018909D01*
X0096915Y0018540D01*
X0097740Y0017715D01*
X0098348Y0017463D01*
X0094600Y0011500D01*
X0088817Y0011500D01*
X0089031Y0012017D01*
X0089031Y0013183D01*
X0088585Y0014260D01*
X0087760Y0015085D01*
X0087701Y0015109D01*
X0089062Y0015109D01*
X0090141Y0016188D01*
X0090141Y0017712D01*
X0089062Y0018791D01*
X0088820Y0018791D01*
X0088649Y0019398D01*
X0089338Y0018709D01*
X0090862Y0018709D01*
X0091941Y0019788D01*
X0091941Y0021312D01*
X0090862Y0022391D01*
X0089338Y0022391D01*
X0089168Y0022221D01*
X0088201Y0022766D01*
X0086717Y0023648D01*
X0086772Y0023648D01*
X0087350Y0023648D01*
X0087668Y0023733D01*
X0087953Y0023897D01*
X0088185Y0024130D01*
X0088195Y0024148D01*
X0089602Y0024148D01*
X0090041Y0024587D01*
X0090041Y0027964D01*
X0090006Y0028000D01*
X0092838Y0028000D01*
X0095460Y0027126D01*
X0095586Y0027000D01*
X0095838Y0027000D01*
X0096077Y0026920D01*
X0096236Y0027000D01*
X0100247Y0027000D01*
X0101088Y0026159D01*
X0102612Y0026159D01*
X0103691Y0027238D01*
X0103691Y0028762D01*
X0102612Y0029841D01*
X0101088Y0029841D01*
X0100247Y0029000D01*
X0099853Y0029000D01*
X0100091Y0029238D01*
X0100091Y0030762D01*
X0099012Y0031841D01*
X0097488Y0031841D01*
X0096647Y0031000D01*
X0096414Y0031000D01*
X0097414Y0032000D01*
X0099647Y0032000D01*
X0100488Y0031159D01*
X0102012Y0031159D01*
X0102774Y0031921D01*
X0102978Y0031430D02*
X0102283Y0031430D01*
X0103423Y0030932D02*
X0099921Y0030932D01*
X0100091Y0030433D02*
X0104038Y0030433D01*
X0103017Y0029436D02*
X0105874Y0029436D01*
X0105561Y0028937D02*
X0103515Y0028937D01*
X0103691Y0028439D02*
X0105247Y0028439D01*
X0104934Y0027940D02*
X0103691Y0027940D01*
X0103691Y0027442D02*
X0104621Y0027442D01*
X0104307Y0026943D02*
X0103396Y0026943D01*
X0102898Y0026445D02*
X0103994Y0026445D01*
X0103681Y0025946D02*
X0099907Y0025946D01*
X0100405Y0025448D02*
X0103367Y0025448D01*
X0103054Y0024949D02*
X0100741Y0024949D01*
X0100741Y0024451D02*
X0102741Y0024451D01*
X0102427Y0023952D02*
X0100741Y0023952D01*
X0100607Y0023454D02*
X0102114Y0023454D01*
X0101801Y0022955D02*
X0100407Y0022955D01*
X0101288Y0022457D02*
X0101487Y0022457D01*
X0097692Y0022955D02*
X0096808Y0022955D01*
X0096841Y0022988D02*
X0095762Y0021909D01*
X0094238Y0021909D01*
X0093159Y0022988D01*
X0093159Y0024512D01*
X0094238Y0025591D01*
X0095762Y0025591D01*
X0096841Y0024512D01*
X0096841Y0022988D01*
X0096841Y0023454D02*
X0097193Y0023454D01*
X0097059Y0023952D02*
X0096841Y0023952D01*
X0096841Y0024451D02*
X0097059Y0024451D01*
X0097059Y0024949D02*
X0096404Y0024949D01*
X0095905Y0025448D02*
X0097395Y0025448D01*
X0097893Y0025946D02*
X0090041Y0025946D01*
X0090041Y0025448D02*
X0094095Y0025448D01*
X0093596Y0024949D02*
X0090041Y0024949D01*
X0089905Y0024451D02*
X0093159Y0024451D01*
X0093159Y0023952D02*
X0088008Y0023952D01*
X0087882Y0022955D02*
X0093192Y0022955D01*
X0093159Y0023454D02*
X0087043Y0023454D01*
X0086772Y0023648D02*
X0086772Y0026275D01*
X0086772Y0026275D01*
X0086772Y0023648D01*
X0086772Y0023952D02*
X0086772Y0023952D01*
X0086772Y0024451D02*
X0086772Y0024451D01*
X0086772Y0024949D02*
X0086772Y0024949D01*
X0086772Y0025448D02*
X0086772Y0025448D01*
X0086772Y0025946D02*
X0086772Y0025946D01*
X0085200Y0026072D02*
X0085197Y0026276D01*
X0085300Y0028500D01*
X0086000Y0029000D01*
X0093000Y0029000D01*
X0096000Y0028000D01*
X0101850Y0028000D01*
X0100683Y0029436D02*
X0100091Y0029436D01*
X0100091Y0029934D02*
X0106187Y0029934D01*
X0100802Y0026445D02*
X0090041Y0026445D01*
X0090041Y0026943D02*
X0096007Y0026943D01*
X0096123Y0026943D02*
X0100304Y0026943D01*
X0098250Y0030000D02*
X0085000Y0030000D01*
X0083600Y0028600D01*
X0083600Y0026254D01*
X0083622Y0026276D01*
X0082047Y0026276D02*
X0082000Y0026323D01*
X0084000Y0024100D02*
X0073200Y0024100D01*
X0072598Y0026276D01*
X0071024Y0026276D02*
X0071000Y0024000D01*
X0071500Y0023100D01*
X0083500Y0023100D01*
X0087300Y0020500D01*
X0088300Y0016950D01*
X0089431Y0015478D02*
X0091969Y0015478D01*
X0091471Y0015976D02*
X0089929Y0015976D01*
X0090141Y0016475D02*
X0091259Y0016475D01*
X0091259Y0016973D02*
X0090141Y0016973D01*
X0090141Y0017472D02*
X0091259Y0017472D01*
X0091517Y0017970D02*
X0089883Y0017970D01*
X0089384Y0018469D02*
X0092016Y0018469D01*
X0091120Y0018967D02*
X0093180Y0018967D01*
X0093159Y0019466D02*
X0091619Y0019466D01*
X0091941Y0019964D02*
X0093159Y0019964D01*
X0093159Y0020463D02*
X0091941Y0020463D01*
X0091941Y0020961D02*
X0093608Y0020961D01*
X0094107Y0021460D02*
X0091793Y0021460D01*
X0091295Y0021958D02*
X0094189Y0021958D01*
X0093690Y0022457D02*
X0088750Y0022457D01*
X0087700Y0021900D02*
X0084000Y0024100D01*
X0082200Y0022000D02*
X0084800Y0019950D01*
X0082500Y0019700D02*
X0083200Y0016650D01*
X0082500Y0019700D02*
X0081100Y0020900D01*
X0070100Y0020900D01*
X0068000Y0023800D01*
X0067874Y0026276D01*
X0066299Y0026276D02*
X0066400Y0023300D01*
X0069600Y0019200D01*
X0072800Y0019600D01*
X0077300Y0019600D01*
X0079500Y0018950D01*
X0078200Y0015850D02*
X0068400Y0015600D01*
X0063200Y0020900D01*
X0063150Y0026276D01*
X0064724Y0026276D02*
X0064700Y0022300D01*
X0069000Y0017500D01*
X0075000Y0017750D01*
X0074400Y0013750D02*
X0068100Y0013700D01*
X0061500Y0020100D01*
X0061575Y0026276D01*
X0060000Y0026276D02*
X0060000Y0020000D01*
X0051600Y0013700D01*
X0046200Y0013750D01*
X0044000Y0015700D02*
X0042500Y0015850D01*
X0044000Y0015700D02*
X0051500Y0015700D01*
X0058500Y0020900D01*
X0058425Y0026276D01*
X0056850Y0026276D02*
X0056800Y0021900D01*
X0051100Y0017700D01*
X0045600Y0017650D01*
X0043759Y0017472D02*
X0043481Y0017472D01*
X0043262Y0017691D02*
X0041738Y0017691D01*
X0040659Y0016612D01*
X0040659Y0015234D01*
X0040183Y0015431D01*
X0039017Y0015431D01*
X0037940Y0014985D01*
X0037115Y0014160D01*
X0036800Y0013400D01*
X0036485Y0014160D01*
X0035660Y0014985D01*
X0034583Y0015431D01*
X0033417Y0015431D01*
X0032340Y0014985D01*
X0031515Y0014160D01*
X0031069Y0013083D01*
X0031069Y0011917D01*
X0031242Y0011500D01*
X0026600Y0011500D01*
X0021972Y0018330D01*
X0022660Y0018615D01*
X0023096Y0019051D01*
X0024138Y0018009D01*
X0025657Y0018009D01*
X0025259Y0017612D01*
X0025259Y0016088D01*
X0026338Y0015009D01*
X0027862Y0015009D01*
X0028941Y0016088D01*
X0028941Y0017612D01*
X0027862Y0018691D01*
X0026343Y0018691D01*
X0026741Y0019088D01*
X0026741Y0020612D01*
X0025662Y0021691D01*
X0024138Y0021691D01*
X0023931Y0021484D01*
X0023931Y0021683D01*
X0023696Y0022251D01*
X0024238Y0021709D01*
X0025762Y0021709D01*
X0026841Y0022788D01*
X0026841Y0024312D01*
X0025762Y0025391D01*
X0024238Y0025391D01*
X0023159Y0024312D01*
X0023159Y0023086D01*
X0022660Y0023585D01*
X0022220Y0023767D01*
X0022841Y0024388D01*
X0022841Y0025912D01*
X0022132Y0026621D01*
X0024188Y0026334D01*
X0024400Y0026222D01*
X0024582Y0026279D01*
X0024772Y0026252D01*
X0024963Y0026396D01*
X0029959Y0027941D01*
X0029959Y0024587D01*
X0030398Y0024148D01*
X0031805Y0024148D01*
X0031815Y0024130D01*
X0032047Y0023897D01*
X0032332Y0023733D01*
X0032650Y0023648D01*
X0033228Y0023648D01*
X0033228Y0026275D01*
X0033228Y0026275D01*
X0033228Y0023648D01*
X0033308Y0023648D01*
X0030497Y0021956D01*
X0030362Y0022091D01*
X0028838Y0022091D01*
X0027759Y0021012D01*
X0027759Y0019488D01*
X0028838Y0018409D01*
X0030357Y0018409D01*
X0029659Y0017712D01*
X0029659Y0016188D01*
X0030738Y0015109D01*
X0032262Y0015109D01*
X0033341Y0016188D01*
X0033341Y0017712D01*
X0032998Y0018055D01*
X0033163Y0018484D01*
X0033938Y0017709D01*
X0035159Y0017709D01*
X0035159Y0016188D01*
X0036238Y0015109D01*
X0037762Y0015109D01*
X0038841Y0016188D01*
X0038841Y0017607D01*
X0039338Y0017109D01*
X0040862Y0017109D01*
X0041941Y0018188D01*
X0041941Y0018431D01*
X0042539Y0018600D01*
X0043947Y0018600D01*
X0043759Y0018412D01*
X0043759Y0017193D01*
X0043262Y0017691D01*
X0043759Y0017970D02*
X0041723Y0017970D01*
X0041519Y0017472D02*
X0041225Y0017472D01*
X0041020Y0016973D02*
X0038841Y0016973D01*
X0038841Y0016475D02*
X0040659Y0016475D01*
X0040659Y0015976D02*
X0038629Y0015976D01*
X0038131Y0015478D02*
X0040659Y0015478D01*
X0038975Y0017472D02*
X0038841Y0017472D01*
X0040100Y0018950D02*
X0042400Y0019600D01*
X0047800Y0019600D01*
X0050600Y0019100D01*
X0055300Y0023200D01*
X0055276Y0026276D01*
X0053701Y0026276D02*
X0053700Y0023800D01*
X0050300Y0020800D01*
X0038000Y0020800D01*
X0037100Y0019300D01*
X0037000Y0016950D01*
X0035159Y0016973D02*
X0033341Y0016973D01*
X0033341Y0016475D02*
X0035159Y0016475D01*
X0035371Y0015976D02*
X0033129Y0015976D01*
X0032631Y0015478D02*
X0035869Y0015478D01*
X0035666Y0014979D02*
X0037934Y0014979D01*
X0037435Y0014481D02*
X0036165Y0014481D01*
X0036559Y0013982D02*
X0037041Y0013982D01*
X0036835Y0013484D02*
X0036765Y0013484D01*
X0035159Y0017472D02*
X0033341Y0017472D01*
X0033083Y0017970D02*
X0033677Y0017970D01*
X0033178Y0018469D02*
X0033157Y0018469D01*
X0034700Y0019550D02*
X0037100Y0022000D01*
X0049200Y0021900D01*
X0051900Y0024100D01*
X0052126Y0026276D01*
X0050551Y0026276D02*
X0050500Y0024600D01*
X0048600Y0023000D01*
X0036800Y0023100D01*
X0033100Y0021100D01*
X0031500Y0016950D01*
X0030369Y0015478D02*
X0028331Y0015478D01*
X0028829Y0015976D02*
X0029871Y0015976D01*
X0029659Y0016475D02*
X0028941Y0016475D01*
X0028941Y0016973D02*
X0029659Y0016973D01*
X0029659Y0017472D02*
X0028941Y0017472D01*
X0028583Y0017970D02*
X0029917Y0017970D01*
X0028778Y0018469D02*
X0028084Y0018469D01*
X0028280Y0018967D02*
X0026620Y0018967D01*
X0026741Y0019466D02*
X0027781Y0019466D01*
X0027759Y0019964D02*
X0026741Y0019964D01*
X0026741Y0020463D02*
X0027759Y0020463D01*
X0027759Y0020961D02*
X0026392Y0020961D01*
X0025893Y0021460D02*
X0028207Y0021460D01*
X0028705Y0021958D02*
X0026011Y0021958D01*
X0026510Y0022457D02*
X0031329Y0022457D01*
X0032157Y0022955D02*
X0026841Y0022955D01*
X0026841Y0023454D02*
X0032986Y0023454D01*
X0033228Y0023952D02*
X0033228Y0023952D01*
X0033228Y0024451D02*
X0033228Y0024451D01*
X0033228Y0024949D02*
X0033228Y0024949D01*
X0033228Y0025448D02*
X0033228Y0025448D01*
X0033228Y0025946D02*
X0033228Y0025946D01*
X0031992Y0023952D02*
X0026841Y0023952D01*
X0026702Y0024451D02*
X0030095Y0024451D01*
X0029959Y0024949D02*
X0026204Y0024949D01*
X0025120Y0026445D02*
X0029959Y0026445D01*
X0029959Y0026943D02*
X0026733Y0026943D01*
X0028345Y0027442D02*
X0029959Y0027442D01*
X0029958Y0027940D02*
X0029959Y0027940D01*
X0030000Y0029000D02*
X0035300Y0029000D01*
X0036000Y0028500D01*
X0036378Y0026276D01*
X0037953Y0026276D02*
X0038000Y0026323D01*
X0038000Y0028000D01*
X0036000Y0030000D01*
X0021750Y0030000D01*
X0023000Y0033000D02*
X0025000Y0031000D01*
X0037000Y0031000D01*
X0039600Y0027800D01*
X0039600Y0025603D01*
X0039528Y0026276D01*
X0041000Y0028000D02*
X0040000Y0029000D01*
X0040000Y0030000D01*
X0038000Y0032000D01*
X0026000Y0032000D01*
X0022000Y0036000D01*
X0021750Y0036000D01*
X0023000Y0038000D02*
X0024000Y0037000D01*
X0024000Y0036000D01*
X0027000Y0033000D01*
X0038000Y0033000D01*
X0039500Y0034600D01*
X0039500Y0037372D01*
X0039528Y0037299D01*
X0038000Y0037252D02*
X0038000Y0035000D01*
X0037000Y0034000D01*
X0028000Y0034000D01*
X0025000Y0037000D01*
X0025000Y0038000D01*
X0024000Y0039000D01*
X0020000Y0039000D01*
X0019000Y0040000D01*
X0016750Y0040000D01*
X0018000Y0043000D02*
X0013750Y0044000D01*
X0012535Y0045388D02*
X0010000Y0045388D01*
X0010000Y0044890D02*
X0012037Y0044890D01*
X0011909Y0044762D02*
X0011909Y0043979D01*
X0011783Y0044031D01*
X0010617Y0044031D01*
X0010000Y0043776D01*
X0010000Y0051242D01*
X0010417Y0051069D01*
X0011583Y0051069D01*
X0011909Y0051204D01*
X0011909Y0050238D01*
X0012988Y0049159D01*
X0014512Y0049159D01*
X0014794Y0049441D01*
X0015424Y0049162D01*
X0016745Y0047841D01*
X0015988Y0047841D01*
X0014909Y0046762D01*
X0014909Y0045443D01*
X0014512Y0045841D01*
X0012988Y0045841D01*
X0011909Y0044762D01*
X0011909Y0044391D02*
X0010000Y0044391D01*
X0010000Y0043893D02*
X0010283Y0043893D01*
X0010000Y0045887D02*
X0014909Y0045887D01*
X0014909Y0046385D02*
X0010000Y0046385D01*
X0010000Y0046884D02*
X0015031Y0046884D01*
X0015529Y0047382D02*
X0010000Y0047382D01*
X0010000Y0047881D02*
X0016705Y0047881D01*
X0016206Y0048379D02*
X0010000Y0048379D01*
X0010000Y0048878D02*
X0015708Y0048878D01*
X0014941Y0049376D02*
X0014729Y0049376D01*
X0016000Y0050000D02*
X0013750Y0051000D01*
X0012272Y0049875D02*
X0010000Y0049875D01*
X0010000Y0050373D02*
X0011909Y0050373D01*
X0011909Y0050872D02*
X0010000Y0050872D01*
X0010000Y0049376D02*
X0012771Y0049376D01*
X0016000Y0050000D02*
X0019000Y0047000D01*
X0019000Y0046000D01*
X0023000Y0042000D01*
X0027000Y0042000D01*
X0028000Y0041000D01*
X0035000Y0041000D01*
X0036000Y0040000D01*
X0040000Y0040000D01*
X0041000Y0039000D01*
X0041000Y0037402D01*
X0041102Y0037299D01*
X0042677Y0037299D02*
X0042700Y0037276D01*
X0042700Y0039300D01*
X0041000Y0041000D01*
X0037000Y0041000D01*
X0036000Y0042000D01*
X0029000Y0042000D01*
X0028000Y0043000D01*
X0024000Y0043000D01*
X0020000Y0047000D01*
X0020000Y0048000D01*
X0016750Y0051250D01*
X0016750Y0053000D01*
X0019000Y0055000D02*
X0018000Y0056000D01*
X0013750Y0057000D01*
X0012497Y0058350D02*
X0010000Y0058350D01*
X0010000Y0058848D02*
X0014909Y0058848D01*
X0014512Y0058841D02*
X0012988Y0058841D01*
X0011909Y0057762D01*
X0011909Y0056796D01*
X0011583Y0056931D01*
X0010417Y0056931D01*
X0010000Y0056758D01*
X0010000Y0064242D01*
X0010417Y0064069D01*
X0011583Y0064069D01*
X0011909Y0064204D01*
X0011909Y0063238D01*
X0012988Y0062159D01*
X0014512Y0062159D01*
X0014940Y0062587D01*
X0016469Y0062117D01*
X0019000Y0059586D01*
X0019335Y0059251D01*
X0018591Y0059480D01*
X0018591Y0059762D01*
X0017512Y0060841D01*
X0015988Y0060841D01*
X0014909Y0059762D01*
X0014909Y0058443D01*
X0014512Y0058841D01*
X0014909Y0059347D02*
X0010000Y0059347D01*
X0010000Y0059845D02*
X0014992Y0059845D01*
X0015491Y0060344D02*
X0010000Y0060344D01*
X0010000Y0060842D02*
X0017744Y0060842D01*
X0018009Y0060344D02*
X0018242Y0060344D01*
X0018508Y0059845D02*
X0018741Y0059845D01*
X0019024Y0059347D02*
X0019239Y0059347D01*
X0020000Y0060000D02*
X0027000Y0060000D01*
X0030000Y0057000D01*
X0030000Y0052000D01*
X0033000Y0049000D01*
X0033000Y0047000D01*
X0035000Y0045000D01*
X0039000Y0045000D01*
X0040000Y0044000D01*
X0044000Y0044000D01*
X0047400Y0040500D01*
X0047400Y0037201D01*
X0047402Y0037299D01*
X0048976Y0037299D02*
X0049000Y0037323D01*
X0049000Y0041000D01*
X0045000Y0045000D01*
X0041000Y0045000D01*
X0040000Y0046000D01*
X0040000Y0049000D01*
X0039000Y0050000D01*
X0034000Y0050000D01*
X0031000Y0053000D01*
X0031000Y0058000D01*
X0028000Y0061000D01*
X0021000Y0061000D01*
X0016750Y0065250D01*
X0016750Y0066000D01*
X0017000Y0063000D02*
X0020000Y0060000D01*
X0020000Y0058000D02*
X0025000Y0053000D01*
X0025000Y0051000D01*
X0028000Y0048000D01*
X0028000Y0047000D01*
X0031000Y0044000D01*
X0038000Y0044000D01*
X0039000Y0043000D01*
X0043000Y0043000D01*
X0045800Y0039800D01*
X0045800Y0037272D01*
X0045827Y0037299D01*
X0044252Y0037299D02*
X0044200Y0037451D01*
X0044200Y0039200D01*
X0042000Y0042000D01*
X0038000Y0042000D01*
X0037000Y0043000D01*
X0030000Y0043000D01*
X0029000Y0044000D01*
X0025000Y0044000D01*
X0022000Y0047000D01*
X0022000Y0048000D01*
X0019000Y0051000D01*
X0019000Y0055000D01*
X0020000Y0058000D02*
X0016750Y0059000D01*
X0017245Y0061341D02*
X0010000Y0061341D01*
X0010000Y0061839D02*
X0016747Y0061839D01*
X0015752Y0062338D02*
X0014691Y0062338D01*
X0013750Y0064000D02*
X0017000Y0063000D01*
X0021000Y0067000D02*
X0016750Y0071250D01*
X0016750Y0072000D01*
X0018048Y0073305D02*
X0023909Y0073305D01*
X0023909Y0072806D02*
X0018546Y0072806D01*
X0018591Y0072308D02*
X0023909Y0072308D01*
X0023543Y0071809D02*
X0024338Y0071809D01*
X0024042Y0071311D02*
X0024750Y0071311D01*
X0024750Y0070812D02*
X0024540Y0070812D01*
X0024591Y0070314D02*
X0024750Y0070314D01*
X0024750Y0069815D02*
X0024591Y0069815D01*
X0024591Y0069317D02*
X0024750Y0069317D01*
X0024750Y0068818D02*
X0024171Y0068818D01*
X0023750Y0068320D02*
X0024750Y0068320D01*
X0024750Y0067821D02*
X0023750Y0067821D01*
X0023750Y0067323D02*
X0024750Y0067323D01*
X0024750Y0066824D02*
X0023750Y0066824D01*
X0023750Y0066326D02*
X0024750Y0066326D01*
X0024758Y0065827D02*
X0023750Y0065827D01*
X0024085Y0065329D02*
X0025257Y0065329D01*
X0025750Y0066250D02*
X0027000Y0065000D01*
X0049000Y0065000D01*
X0054000Y0060000D01*
X0049754Y0069317D02*
X0070246Y0069317D01*
X0071615Y0068818D02*
X0048385Y0068818D01*
X0056580Y0074801D02*
X0063420Y0074801D01*
X0063132Y0075299D02*
X0056868Y0075299D01*
X0057156Y0075798D02*
X0062844Y0075798D01*
X0062556Y0076296D02*
X0057444Y0076296D01*
X0057710Y0076795D02*
X0062290Y0076795D01*
X0062299Y0076741D02*
X0062299Y0076741D01*
X0062202Y0077293D02*
X0057798Y0077293D01*
X0057886Y0077792D02*
X0062114Y0077792D01*
X0062026Y0078290D02*
X0057974Y0078290D01*
X0058062Y0078789D02*
X0061938Y0078789D01*
X0061850Y0079287D02*
X0058150Y0079287D01*
X0058238Y0079786D02*
X0061762Y0079786D01*
X0061674Y0080284D02*
X0058326Y0080284D01*
X0058413Y0080783D02*
X0061587Y0080783D01*
X0061548Y0081000D02*
X0061548Y0081000D01*
X0061598Y0081281D02*
X0058402Y0081281D01*
X0058314Y0081780D02*
X0061686Y0081780D01*
X0061774Y0082278D02*
X0058226Y0082278D01*
X0058138Y0082777D02*
X0061862Y0082777D01*
X0061949Y0083275D02*
X0058051Y0083275D01*
X0057963Y0083774D02*
X0062037Y0083774D01*
X0062125Y0084272D02*
X0057875Y0084272D01*
X0057787Y0084771D02*
X0062213Y0084771D01*
X0062305Y0085269D02*
X0057695Y0085269D01*
X0057701Y0085259D02*
X0057701Y0085259D01*
X0057407Y0085768D02*
X0062593Y0085768D01*
X0062881Y0086266D02*
X0057119Y0086266D01*
X0056831Y0086765D02*
X0063169Y0086765D01*
X0063457Y0087263D02*
X0056543Y0087263D01*
X0056256Y0087762D02*
X0063744Y0087762D01*
X0064032Y0088260D02*
X0055968Y0088260D01*
X0055680Y0088759D02*
X0064320Y0088759D01*
X0064764Y0089257D02*
X0055236Y0089257D01*
X0054642Y0089756D02*
X0065358Y0089756D01*
X0065952Y0090254D02*
X0054048Y0090254D01*
X0053454Y0090753D02*
X0066546Y0090753D01*
X0067140Y0091251D02*
X0052860Y0091251D01*
X0052266Y0091750D02*
X0067734Y0091750D01*
X0067774Y0091784D02*
X0067774Y0091784D01*
X0069051Y0092248D02*
X0050949Y0092248D01*
X0052226Y0091784D02*
X0052226Y0091784D01*
X0049579Y0092747D02*
X0070421Y0092747D01*
X0071791Y0093245D02*
X0048209Y0093245D01*
X0054654Y0095239D02*
X0069346Y0095239D01*
X0068848Y0095738D02*
X0055152Y0095738D01*
X0055651Y0096237D02*
X0068349Y0096237D01*
X0067851Y0096735D02*
X0056149Y0096735D01*
X0056648Y0097234D02*
X0067352Y0097234D01*
X0066854Y0097732D02*
X0057146Y0097732D01*
X0057645Y0098231D02*
X0066355Y0098231D01*
X0065857Y0098729D02*
X0058143Y0098729D01*
X0058642Y0099228D02*
X0065358Y0099228D01*
X0064860Y0099726D02*
X0059140Y0099726D01*
X0059639Y0100225D02*
X0064361Y0100225D01*
X0063863Y0100723D02*
X0060137Y0100723D01*
X0060636Y0101222D02*
X0063364Y0101222D01*
X0062866Y0101720D02*
X0061134Y0101720D01*
X0061633Y0102219D02*
X0062367Y0102219D01*
X0062000Y0102586D02*
X0062000Y0110586D01*
X0062000Y0110586D01*
X0062000Y0102586D01*
X0062000Y0102717D02*
X0062000Y0102717D01*
X0062000Y0103216D02*
X0062000Y0103216D01*
X0062000Y0103714D02*
X0062000Y0103714D01*
X0062000Y0104213D02*
X0062000Y0104213D01*
X0062000Y0104711D02*
X0062000Y0104711D01*
X0062000Y0105210D02*
X0062000Y0105210D01*
X0062000Y0105708D02*
X0062000Y0105708D01*
X0062000Y0106207D02*
X0062000Y0106207D01*
X0062000Y0106705D02*
X0062000Y0106705D01*
X0062000Y0107204D02*
X0062000Y0107204D01*
X0062000Y0107702D02*
X0062000Y0107702D01*
X0062000Y0108201D02*
X0062000Y0108201D01*
X0062000Y0108699D02*
X0062000Y0108699D01*
X0062000Y0109198D02*
X0062000Y0109198D01*
X0062000Y0109696D02*
X0062000Y0109696D01*
X0062000Y0110195D02*
X0062000Y0110195D01*
X0066000Y0112000D02*
X0066000Y0120000D01*
X0064700Y0121300D01*
X0064700Y0124825D01*
X0064724Y0124701D01*
X0071000Y0124677D02*
X0071000Y0120000D01*
X0074000Y0117000D01*
X0079000Y0117000D01*
X0080000Y0116000D01*
X0080000Y0113000D01*
X0081000Y0112000D01*
X0086000Y0112000D01*
X0087000Y0111000D01*
X0089000Y0111000D01*
X0090000Y0110000D01*
X0090000Y0105000D01*
X0093000Y0102000D01*
X0099000Y0102000D01*
X0103250Y0097750D01*
X0103250Y0096000D01*
X0104190Y0100225D02*
X0104872Y0100225D01*
X0105370Y0100723D02*
X0103691Y0100723D01*
X0097250Y0097750D02*
X0097250Y0092000D01*
X0096393Y0090254D02*
X0095599Y0090254D01*
X0095894Y0090753D02*
X0095250Y0090753D01*
X0095250Y0091251D02*
X0095409Y0091251D01*
X0095409Y0091750D02*
X0095250Y0091750D01*
X0095250Y0092248D02*
X0095409Y0092248D01*
X0095409Y0092747D02*
X0095250Y0092747D01*
X0095250Y0093245D02*
X0095893Y0093245D01*
X0096250Y0093744D02*
X0095250Y0093744D01*
X0095250Y0094242D02*
X0096250Y0094242D01*
X0096250Y0094741D02*
X0095250Y0094741D01*
X0095250Y0095239D02*
X0096250Y0095239D01*
X0096250Y0095738D02*
X0095250Y0095738D01*
X0095250Y0096237D02*
X0096250Y0096237D01*
X0096250Y0096735D02*
X0095250Y0096735D01*
X0095181Y0097234D02*
X0096250Y0097234D01*
X0095854Y0097732D02*
X0094682Y0097732D01*
X0094250Y0096750D02*
X0093000Y0098000D01*
X0072000Y0098000D01*
X0066000Y0104000D01*
X0066000Y0106000D01*
X0068000Y0108000D01*
X0068000Y0110000D01*
X0066000Y0112000D01*
X0071000Y0124677D02*
X0071024Y0124701D01*
X0075700Y0131800D02*
X0075748Y0135724D01*
X0077300Y0135600D02*
X0077300Y0134700D01*
X0077323Y0135724D01*
X0077300Y0135600D02*
X0078300Y0129000D01*
X0081800Y0141400D02*
X0083400Y0143000D01*
X0083400Y0147250D01*
X0088100Y0145100D02*
X0088100Y0142600D01*
X0089100Y0144094D02*
X0089141Y0144094D01*
X0089100Y0144592D02*
X0089639Y0144592D01*
X0088100Y0145100D02*
X0089000Y0147250D01*
X0089774Y0149079D02*
X0095519Y0149079D01*
X0095206Y0149577D02*
X0088766Y0149577D01*
X0088973Y0150076D02*
X0094894Y0150076D01*
X0094581Y0150574D02*
X0089031Y0150574D01*
X0089031Y0151073D02*
X0094268Y0151073D01*
X0095000Y0154000D02*
X0025000Y0154000D01*
X0008000Y0127000D01*
X0008000Y0035000D01*
X0025000Y0009000D01*
X0096000Y0009000D01*
X0112000Y0035000D01*
X0112000Y0127000D01*
X0095000Y0154000D01*
X0096283Y0135120D02*
X0090041Y0135120D01*
X0090041Y0134622D02*
X0094751Y0134622D01*
X0093220Y0134123D02*
X0090041Y0134123D01*
X0096000Y0131000D02*
X0098000Y0129000D01*
X0101250Y0129000D01*
X0101000Y0125000D02*
X0100000Y0124000D01*
X0097000Y0124000D01*
X0101000Y0125000D02*
X0106250Y0125000D01*
X0106250Y0119000D02*
X0101000Y0119000D01*
X0101742Y0117672D02*
X0102320Y0117672D01*
X0104180Y0117672D02*
X0104975Y0117672D01*
X0104679Y0117174D02*
X0105473Y0117174D01*
X0105091Y0116675D02*
X0110000Y0116675D01*
X0110000Y0116177D02*
X0105091Y0116177D01*
X0105091Y0115678D02*
X0110000Y0115678D01*
X0110000Y0115180D02*
X0105033Y0115180D01*
X0107169Y0113684D02*
X0110000Y0113684D01*
X0110000Y0113186D02*
X0107667Y0113186D01*
X0108091Y0112687D02*
X0110000Y0112687D01*
X0110000Y0112189D02*
X0108091Y0112189D01*
X0106250Y0112000D02*
X0104000Y0112000D01*
X0107027Y0117174D02*
X0110000Y0117174D01*
X0110000Y0117672D02*
X0107525Y0117672D01*
X0108024Y0118171D02*
X0110000Y0118171D01*
X0110000Y0118670D02*
X0108091Y0118670D01*
X0108091Y0119168D02*
X0108178Y0119168D01*
X0109822Y0119168D02*
X0110000Y0119168D01*
X0102850Y0133400D02*
X0101100Y0134300D01*
X0097300Y0134400D01*
X0077900Y0147550D02*
X0070100Y0147600D01*
X0061500Y0142600D01*
X0061575Y0135724D01*
X0049000Y0124677D02*
X0048976Y0124701D01*
X0036000Y0130000D02*
X0026000Y0130000D01*
X0022000Y0126000D01*
X0020750Y0126000D01*
X0019000Y0125000D02*
X0013750Y0126000D01*
X0011909Y0120165D02*
X0011815Y0120165D01*
X0011909Y0119667D02*
X0010000Y0119667D01*
X0010000Y0120165D02*
X0010185Y0120165D01*
X0010000Y0119168D02*
X0011979Y0119168D01*
X0012478Y0118670D02*
X0010000Y0118670D01*
X0010000Y0118171D02*
X0012976Y0118171D01*
X0012828Y0114681D02*
X0010000Y0114681D01*
X0010000Y0114183D02*
X0012330Y0114183D01*
X0011909Y0113684D02*
X0010000Y0113684D01*
X0010000Y0113186D02*
X0011909Y0113186D01*
X0016750Y0116000D02*
X0018000Y0116000D01*
X0021750Y0132000D02*
X0034000Y0132000D01*
X0036400Y0133700D01*
X0036400Y0136046D01*
X0036378Y0135724D01*
X0035000Y0135528D02*
X0034803Y0135724D01*
X0035000Y0135528D02*
X0035000Y0134000D01*
X0033000Y0133000D01*
X0029000Y0133000D01*
X0028000Y0134000D01*
X0020000Y0134000D01*
X0019000Y0133000D01*
X0017750Y0133000D01*
X0021073Y0135120D02*
X0029959Y0135120D01*
X0029959Y0134622D02*
X0028792Y0134622D01*
X0029291Y0134123D02*
X0029959Y0134123D01*
X0029959Y0135619D02*
X0021572Y0135619D01*
X0021741Y0136117D02*
X0029959Y0136117D01*
X0029959Y0136616D02*
X0025769Y0136616D01*
X0026267Y0137114D02*
X0029959Y0137114D01*
X0030159Y0137613D02*
X0026541Y0137613D01*
X0026541Y0138111D02*
X0032063Y0138111D01*
X0032893Y0138610D02*
X0026541Y0138610D01*
X0026344Y0139108D02*
X0032110Y0139108D01*
X0031326Y0139607D02*
X0025846Y0139607D01*
X0025757Y0140604D02*
X0029760Y0140604D01*
X0029008Y0141103D02*
X0026255Y0141103D01*
X0026541Y0141601D02*
X0028898Y0141601D01*
X0030543Y0140105D02*
X0023685Y0140105D01*
X0023554Y0139607D02*
X0023478Y0139607D01*
X0022859Y0138610D02*
X0022755Y0138610D01*
X0022859Y0138111D02*
X0021969Y0138111D01*
X0021440Y0137613D02*
X0022859Y0137613D01*
X0023133Y0137114D02*
X0021741Y0137114D01*
X0021741Y0136616D02*
X0023631Y0136616D01*
X0033228Y0136616D02*
X0033228Y0136616D01*
X0033228Y0137114D02*
X0033228Y0137114D01*
X0033228Y0137613D02*
X0033228Y0137613D01*
X0033228Y0138111D02*
X0033228Y0138111D01*
X0033228Y0138352D02*
X0033228Y0135725D01*
X0033228Y0138352D01*
X0033228Y0136117D02*
X0033228Y0136117D01*
X0033228Y0135725D02*
X0033228Y0135725D01*
X0026785Y0074801D02*
X0026552Y0074801D01*
X0027051Y0074302D02*
X0027284Y0074302D01*
X0027549Y0073803D02*
X0027782Y0073803D01*
X0027591Y0073305D02*
X0028000Y0073305D01*
X0028000Y0072806D02*
X0027591Y0072806D01*
X0027591Y0072308D02*
X0028000Y0072308D01*
X0028000Y0071809D02*
X0027162Y0071809D01*
X0026750Y0071311D02*
X0028000Y0071311D01*
X0028000Y0070812D02*
X0026750Y0070812D01*
X0026750Y0070314D02*
X0028000Y0070314D01*
X0028000Y0069815D02*
X0026750Y0069815D01*
X0026750Y0069317D02*
X0028000Y0069317D01*
X0028000Y0068818D02*
X0026750Y0068818D01*
X0026750Y0068320D02*
X0028000Y0068320D01*
X0028000Y0067821D02*
X0026750Y0067821D01*
X0026750Y0067323D02*
X0028000Y0067323D01*
X0028000Y0066824D02*
X0026750Y0066824D01*
X0027088Y0066326D02*
X0028260Y0066326D01*
X0025750Y0066250D02*
X0025750Y0073000D01*
X0012809Y0062338D02*
X0010000Y0062338D01*
X0010000Y0062836D02*
X0012311Y0062836D01*
X0011909Y0063335D02*
X0010000Y0063335D01*
X0010000Y0063833D02*
X0011909Y0063833D01*
X0011998Y0057851D02*
X0010000Y0057851D01*
X0010000Y0057353D02*
X0011909Y0057353D01*
X0011909Y0056854D02*
X0011769Y0056854D01*
X0010231Y0056854D02*
X0010000Y0056854D01*
X0016750Y0046000D02*
X0017000Y0046000D01*
X0022000Y0041000D01*
X0026000Y0041000D01*
X0027000Y0040000D01*
X0034000Y0040000D01*
X0034800Y0039000D01*
X0034800Y0037496D01*
X0034803Y0037299D01*
X0036378Y0037299D02*
X0036400Y0036921D01*
X0036400Y0035000D01*
X0029000Y0035000D01*
X0026000Y0038000D01*
X0026000Y0039000D01*
X0025000Y0040000D01*
X0021000Y0040000D01*
X0018000Y0043000D01*
X0020000Y0038000D02*
X0023000Y0038000D01*
X0020000Y0038000D02*
X0019000Y0037000D01*
X0013750Y0038000D01*
X0018750Y0033000D02*
X0023000Y0033000D01*
X0024500Y0027300D02*
X0030000Y0029000D01*
X0029959Y0025946D02*
X0022807Y0025946D01*
X0022841Y0025448D02*
X0029959Y0025448D01*
X0030495Y0021958D02*
X0030500Y0021958D01*
X0029600Y0020250D02*
X0036000Y0024100D01*
X0048000Y0024100D01*
X0049000Y0024700D01*
X0048976Y0026276D01*
X0047402Y0026276D02*
X0047700Y0028600D01*
X0050500Y0030500D01*
X0047700Y0032200D02*
X0046300Y0030800D01*
X0046100Y0029100D01*
X0045827Y0026276D01*
X0044252Y0026276D02*
X0044200Y0029800D01*
X0042000Y0032000D02*
X0042677Y0026276D01*
X0041102Y0026276D02*
X0041000Y0026378D01*
X0041000Y0028000D01*
X0038000Y0037252D02*
X0037953Y0037299D01*
X0024500Y0027300D02*
X0018050Y0028200D01*
X0022308Y0026445D02*
X0023392Y0026445D01*
X0023796Y0024949D02*
X0022841Y0024949D01*
X0022841Y0024451D02*
X0023298Y0024451D01*
X0023159Y0023952D02*
X0022405Y0023952D01*
X0022791Y0023454D02*
X0023159Y0023454D01*
X0023817Y0021958D02*
X0023989Y0021958D01*
X0023180Y0018967D02*
X0023012Y0018967D01*
X0023678Y0018469D02*
X0022307Y0018469D01*
X0022216Y0017970D02*
X0025617Y0017970D01*
X0025259Y0017472D02*
X0022554Y0017472D01*
X0022892Y0016973D02*
X0025259Y0016973D01*
X0025259Y0016475D02*
X0023229Y0016475D01*
X0023567Y0015976D02*
X0025371Y0015976D01*
X0025869Y0015478D02*
X0023905Y0015478D01*
X0024243Y0014979D02*
X0032334Y0014979D01*
X0031835Y0014481D02*
X0024580Y0014481D01*
X0024918Y0013982D02*
X0031441Y0013982D01*
X0031235Y0013484D02*
X0025256Y0013484D01*
X0025594Y0012985D02*
X0031069Y0012985D01*
X0031069Y0012487D02*
X0025932Y0012487D01*
X0026269Y0011988D02*
X0031069Y0011988D01*
X0042074Y0018469D02*
X0043816Y0018469D01*
X0069300Y0024000D02*
X0069449Y0026276D01*
X0069300Y0024000D02*
X0071000Y0022000D01*
X0082200Y0022000D01*
X0078898Y0026276D02*
X0079400Y0032200D01*
X0077300Y0030100D02*
X0077323Y0026276D01*
X0075748Y0026276D02*
X0075300Y0030400D01*
X0074000Y0033100D01*
X0070500Y0030700D02*
X0073800Y0028800D01*
X0074173Y0026276D01*
X0087700Y0021900D02*
X0090100Y0020550D01*
X0089080Y0018967D02*
X0088771Y0018967D01*
X0087866Y0014979D02*
X0096787Y0014979D01*
X0096474Y0014481D02*
X0088365Y0014481D01*
X0088700Y0013982D02*
X0096160Y0013982D01*
X0095847Y0013484D02*
X0088907Y0013484D01*
X0089031Y0012985D02*
X0095534Y0012985D01*
X0095220Y0012487D02*
X0089031Y0012487D01*
X0089019Y0011988D02*
X0094907Y0011988D01*
X0094231Y0015478D02*
X0097100Y0015478D01*
X0097414Y0015976D02*
X0094729Y0015976D01*
X0094941Y0016475D02*
X0097727Y0016475D01*
X0098040Y0016973D02*
X0094941Y0016973D01*
X0094941Y0017472D02*
X0098327Y0017472D01*
X0097485Y0017970D02*
X0095823Y0017970D01*
X0096322Y0018469D02*
X0096986Y0018469D01*
X0096543Y0020961D02*
X0096392Y0020961D01*
X0096749Y0021460D02*
X0095893Y0021460D01*
X0095811Y0021958D02*
X0097013Y0021958D01*
X0097512Y0022457D02*
X0096310Y0022457D01*
X0094512Y0027442D02*
X0090041Y0027442D01*
X0090041Y0027940D02*
X0093016Y0027940D01*
X0096844Y0031430D02*
X0097077Y0031430D01*
X0097343Y0031929D02*
X0099719Y0031929D01*
X0099423Y0031430D02*
X0100217Y0031430D01*
X0098250Y0036000D02*
X0098000Y0036000D01*
X0101000Y0037000D02*
X0106250Y0037000D01*
X0103250Y0051250D02*
X0103250Y0053000D01*
X0102294Y0057353D02*
X0101767Y0057353D01*
X0096250Y0068320D02*
X0095250Y0068320D01*
X0095250Y0068818D02*
X0095829Y0068818D01*
X0095409Y0069317D02*
X0095250Y0069317D01*
X0095250Y0069815D02*
X0095409Y0069815D01*
X0095409Y0070314D02*
X0095250Y0070314D01*
X0095250Y0070812D02*
X0095459Y0070812D01*
X0095250Y0071311D02*
X0095958Y0071311D01*
X0095910Y0087263D02*
X0095116Y0087263D01*
X0095615Y0087762D02*
X0096409Y0087762D01*
X0094250Y0089000D02*
X0094250Y0096750D01*
D12*
X0086772Y0124701D03*
X0085197Y0124701D03*
X0083622Y0124701D03*
X0082047Y0124701D03*
X0080472Y0124701D03*
X0078898Y0124701D03*
X0077323Y0124701D03*
X0075748Y0124701D03*
X0074173Y0124701D03*
X0072598Y0124701D03*
X0071024Y0124701D03*
X0069449Y0124701D03*
X0067874Y0124701D03*
X0066299Y0124701D03*
X0064724Y0124701D03*
X0063150Y0124701D03*
X0061575Y0124701D03*
X0060000Y0124701D03*
X0058425Y0124701D03*
X0056850Y0124701D03*
X0055276Y0124701D03*
X0053701Y0124701D03*
X0052126Y0124701D03*
X0050551Y0124701D03*
X0048976Y0124701D03*
X0047402Y0124701D03*
X0045827Y0124701D03*
X0044252Y0124701D03*
X0042677Y0124701D03*
X0041102Y0124701D03*
X0039528Y0124701D03*
X0037953Y0124701D03*
X0036378Y0124701D03*
X0034803Y0124701D03*
X0033228Y0124701D03*
X0033228Y0135724D03*
X0034803Y0135724D03*
X0036378Y0135724D03*
X0037953Y0135724D03*
X0039528Y0135724D03*
X0041102Y0135724D03*
X0042677Y0135724D03*
X0044252Y0135724D03*
X0045827Y0135724D03*
X0047402Y0135724D03*
X0048976Y0135724D03*
X0050551Y0135724D03*
X0052126Y0135724D03*
X0053701Y0135724D03*
X0055276Y0135724D03*
X0056850Y0135724D03*
X0058425Y0135724D03*
X0060000Y0135724D03*
X0061575Y0135724D03*
X0063150Y0135724D03*
X0064724Y0135724D03*
X0066299Y0135724D03*
X0067874Y0135724D03*
X0069449Y0135724D03*
X0071024Y0135724D03*
X0072598Y0135724D03*
X0074173Y0135724D03*
X0075748Y0135724D03*
X0077323Y0135724D03*
X0078898Y0135724D03*
X0080472Y0135724D03*
X0082047Y0135724D03*
X0083622Y0135724D03*
X0085197Y0135724D03*
X0086772Y0135724D03*
X0086772Y0037299D03*
X0085197Y0037299D03*
X0083622Y0037299D03*
X0082047Y0037299D03*
X0080472Y0037299D03*
X0078898Y0037299D03*
X0077323Y0037299D03*
X0075748Y0037299D03*
X0074173Y0037299D03*
X0072598Y0037299D03*
X0071024Y0037299D03*
X0069449Y0037299D03*
X0067874Y0037299D03*
X0066299Y0037299D03*
X0064724Y0037299D03*
X0063150Y0037299D03*
X0061575Y0037299D03*
X0060000Y0037299D03*
X0058425Y0037299D03*
X0056850Y0037299D03*
X0055276Y0037299D03*
X0053701Y0037299D03*
X0052126Y0037299D03*
X0050551Y0037299D03*
X0048976Y0037299D03*
X0047402Y0037299D03*
X0045827Y0037299D03*
X0044252Y0037299D03*
X0042677Y0037299D03*
X0041102Y0037299D03*
X0039528Y0037299D03*
X0037953Y0037299D03*
X0036378Y0037299D03*
X0034803Y0037299D03*
X0033228Y0037299D03*
X0033228Y0026276D03*
X0034803Y0026276D03*
X0036378Y0026276D03*
X0037953Y0026276D03*
X0039528Y0026276D03*
X0041102Y0026276D03*
X0042677Y0026276D03*
X0044252Y0026276D03*
X0045827Y0026276D03*
X0047402Y0026276D03*
X0048976Y0026276D03*
X0050551Y0026276D03*
X0052126Y0026276D03*
X0053701Y0026276D03*
X0055276Y0026276D03*
X0056850Y0026276D03*
X0058425Y0026276D03*
X0060000Y0026276D03*
X0061575Y0026276D03*
X0063150Y0026276D03*
X0064724Y0026276D03*
X0066299Y0026276D03*
X0067874Y0026276D03*
X0069449Y0026276D03*
X0071024Y0026276D03*
X0072598Y0026276D03*
X0074173Y0026276D03*
X0075748Y0026276D03*
X0077323Y0026276D03*
X0078898Y0026276D03*
X0080472Y0026276D03*
X0082047Y0026276D03*
X0083622Y0026276D03*
X0085197Y0026276D03*
X0086772Y0026276D03*
D13*
X0088642Y0026276D03*
X0088642Y0037299D03*
X0031358Y0037299D03*
X0031358Y0026276D03*
X0031358Y0124701D03*
X0031358Y0135724D03*
X0088642Y0135724D03*
X0088642Y0124701D03*
D14*
X0098250Y0126000D03*
X0101250Y0129000D03*
X0098250Y0132000D03*
X0099400Y0136750D03*
X0095100Y0138550D03*
X0096300Y0141950D03*
X0094100Y0146350D03*
X0090600Y0142950D03*
X0089000Y0147250D03*
X0086000Y0143250D03*
X0083400Y0147250D03*
X0080200Y0143450D03*
X0077900Y0147550D03*
X0075000Y0145350D03*
X0074100Y0149550D03*
X0045800Y0149250D03*
X0046100Y0145150D03*
X0042100Y0147050D03*
X0039600Y0143250D03*
X0036600Y0147250D03*
X0034200Y0143250D03*
X0031300Y0147350D03*
X0029800Y0143350D03*
X0026700Y0146950D03*
X0024700Y0142150D03*
X0024700Y0138150D03*
X0019900Y0136550D03*
X0017750Y0133000D03*
X0017750Y0129000D03*
X0020750Y0126000D03*
X0021750Y0132000D03*
X0016750Y0122000D03*
X0013750Y0120000D03*
X0016750Y0116000D03*
X0013750Y0113000D03*
X0016750Y0109000D03*
X0013750Y0107000D03*
X0016750Y0103000D03*
X0013750Y0100000D03*
X0016750Y0096000D03*
X0013750Y0094000D03*
X0016750Y0090000D03*
X0022750Y0092000D03*
X0025750Y0089000D03*
X0022750Y0086000D03*
X0025750Y0083000D03*
X0025750Y0079000D03*
X0022750Y0076000D03*
X0025750Y0073000D03*
X0022750Y0070000D03*
X0016750Y0072000D03*
X0013750Y0070000D03*
X0016750Y0066000D03*
X0013750Y0064000D03*
X0016750Y0059000D03*
X0013750Y0057000D03*
X0016750Y0053000D03*
X0013750Y0051000D03*
X0016750Y0046000D03*
X0013750Y0044000D03*
X0016750Y0040000D03*
X0013750Y0038000D03*
X0018750Y0033000D03*
X0021750Y0030000D03*
X0018050Y0028200D03*
X0021000Y0025150D03*
X0025000Y0023550D03*
X0024900Y0019850D03*
X0027100Y0016850D03*
X0029600Y0020250D03*
X0031500Y0016950D03*
X0034700Y0019550D03*
X0037000Y0016950D03*
X0040100Y0018950D03*
X0042500Y0015850D03*
X0045600Y0017650D03*
X0046200Y0013750D03*
X0021750Y0036000D03*
X0075000Y0017750D03*
X0074400Y0013750D03*
X0078200Y0015850D03*
X0079500Y0018950D03*
X0083200Y0016650D03*
X0084800Y0019950D03*
X0088300Y0016950D03*
X0090100Y0020550D03*
X0093100Y0016950D03*
X0095000Y0019750D03*
X0095000Y0023750D03*
X0098900Y0024350D03*
X0101850Y0028000D03*
X0098250Y0030000D03*
X0101250Y0033000D03*
X0098250Y0036000D03*
X0103250Y0040000D03*
X0106250Y0037000D03*
X0106250Y0043000D03*
X0103250Y0046000D03*
X0106250Y0050000D03*
X0103250Y0053000D03*
X0106250Y0056000D03*
X0103250Y0059000D03*
X0106250Y0063000D03*
X0103250Y0066000D03*
X0106250Y0069000D03*
X0103250Y0072000D03*
X0097250Y0070000D03*
X0094250Y0073000D03*
X0097250Y0076000D03*
X0094250Y0079000D03*
X0094250Y0083000D03*
X0097250Y0086000D03*
X0094250Y0089000D03*
X0097250Y0092000D03*
X0103250Y0090000D03*
X0106250Y0093000D03*
X0103250Y0096000D03*
X0106250Y0099000D03*
X0103250Y0103000D03*
X0106250Y0106000D03*
X0103250Y0109000D03*
X0106250Y0112000D03*
X0103250Y0116000D03*
X0106250Y0119000D03*
X0103250Y0122000D03*
X0106250Y0125000D03*
X0102850Y0133400D03*
X0013750Y0126000D03*
D15*
X0011000Y0116000D03*
X0011000Y0103000D03*
X0034000Y0092000D03*
X0034000Y0071000D03*
X0011000Y0060000D03*
X0011000Y0046000D03*
X0027200Y0012300D03*
X0042000Y0032000D03*
X0044200Y0029800D03*
X0047700Y0032200D03*
X0050500Y0030500D03*
X0070500Y0030700D03*
X0074000Y0033100D03*
X0077300Y0030100D03*
X0079400Y0032200D03*
X0094000Y0012500D03*
X0109000Y0046000D03*
X0109000Y0060000D03*
X0085000Y0070000D03*
X0086000Y0093000D03*
X0109000Y0102000D03*
X0109000Y0116000D03*
X0093800Y0150600D03*
X0078300Y0129000D03*
X0075700Y0131800D03*
X0073500Y0129000D03*
X0069700Y0131400D03*
X0049700Y0131500D03*
X0047100Y0129000D03*
X0042900Y0132700D03*
X0040500Y0130600D03*
X0026600Y0150400D03*
D16*
X0012000Y0081000D03*
X0108000Y0081000D03*
M02*
